<svg width="300" height="243" viewBox="0 0 300 243" fill="none" xmlns="http://www.w3.org/2000/svg">
<g clip-path="url(#clip0_2145_1165)">
<path d="M45 188.127C45 188.328 45.4062 188.489 45.9122 188.489H240.088C240.594 188.489 241 188.328 241 188.127C241 187.925 240.594 187.764 240.088 187.764H45.9122C45.4062 187.764 45 187.925 45 188.127Z" fill="#D6D6E3"/>
<path d="M154.889 100.445L164.009 107.679L166.766 107.878L167.779 107.951L184.783 109.186L202.414 107.908L205.038 107.718L208.382 107.477L215.374 100.845C215.374 100.845 210.425 95.5889 206.09 92.0414C204.381 90.6398 202.767 89.5066 201.59 89.0606L201.39 88.9914C200.65 88.7052 193.402 87.9564 192.874 87.3668C189.451 83.8677 192.874 75.5251 192.874 75.5251C192.874 75.5251 177.774 67.7913 179.598 77.9363C181.423 88.0812 176.33 86.5798 176.119 86.6757L169.972 86.8577L168.85 87.3678L165.989 88.6669L159.535 91.6024C154.47 93.9142 154.889 100.445 154.889 100.445Z" fill="#ED9DA0"/>
<path d="M187.911 80.8129C180.408 80.8129 174.326 74.7828 174.326 67.3444C174.326 59.906 180.408 53.876 187.911 53.876C195.414 53.876 201.496 59.906 201.496 67.3444C201.496 74.7828 195.414 80.8129 187.911 80.8129Z" fill="#ED9DA0"/>
<path d="M181.449 49.8948C178.456 50.9374 176.745 51.5342 175.176 53.032C172.527 55.5624 172.089 58.944 171.684 62.0863C171.365 64.5443 170.955 67.7218 172.408 71.3536C172.904 72.5924 173.822 76.7054 178.422 77.4021C179.326 77.5391 174.248 71.8941 174.446 65.5116C174.568 61.5473 180.681 57.2645 184.31 56.4947C185.182 56.3181 186.082 56.3303 186.949 56.5305C187.816 56.7307 188.629 57.1142 189.333 57.6546C192.383 60.1374 192.253 70.4041 195.47 72.5499C196.793 73.4327 195.911 67.2195 196.843 68.2261C198.683 70.2141 197.503 73.2563 197.172 74.4177C195.604 79.9174 193.963 75.8508 192.433 80.5468C190.78 85.6171 204.167 89.8612 204.661 90.9937C205.519 92.9632 206.691 100.884 210.056 102.505C214.328 104.562 205.373 102.476 207.359 104.773C208.469 106.056 207.868 107.417 209.874 111.412C210.528 112.716 210.857 113.368 211.145 113.345C212.517 113.236 214.736 102.356 211.145 92.223C209.639 87.9706 208.163 83.8052 204.208 80.5466C202.115 78.8241 200.361 78.2044 199.862 76.1929C199.148 73.3185 202.111 72.0928 202.704 67.5591C203.11 64.4583 203.395 60.0237 202.29 57.1812C201.247 54.4968 200.342 52.167 197.973 50.0544C197.404 49.5475 192.81 46.0981 187.939 46.001C185.696 45.9563 184.048 48.9873 181.449 49.8931V49.8948Z" fill="#090814"/>
<path d="M87.8778 187.139L124.51 186.962L128.15 178.498L115.279 177.572L117.523 168.292L92.0656 165.021L116.443 156.619L114.289 156.112L75.0913 162.452L77.2507 176.934L80.3361 184.893L87.8778 187.139Z" fill="#6C63FF"/>
<path d="M66.9771 180.395C66.9771 180.395 69.4028 183.33 67.4769 187.769L86.8484 196.098L88.7074 196.484L89.5635 192.771L88.9909 188.084V185.523L66.9771 180.395Z" fill="#D5D6DB"/>
<path d="M128.15 178.497L101.338 173.651L65.8111 179.263L87.8775 187.139L128.15 178.497Z" fill="#6C63FF"/>
<path d="M128.15 178.496C128.15 178.496 130.657 183.206 127.768 187.557L88.008 196.098C88.008 196.098 90.4761 192.346 87.8806 187.139L128.15 178.496Z" fill="#6C63FF"/>
<path opacity="0.1" d="M128.15 178.496C128.15 178.496 130.657 183.206 127.768 187.557L88.008 196.098C88.008 196.098 90.4761 192.346 87.8806 187.139L128.15 178.496Z" fill="black"/>
<path d="M88.0078 196.098L65.8107 186.708C65.8107 186.708 64.5692 186.973 65.3719 187.874C66.1746 188.775 87.5797 196.999 87.5797 196.999L127.768 187.557L88.0078 196.098Z" fill="#6C63FF"/>
<path opacity="0.1" d="M88.0078 196.098L65.8107 186.708C65.8107 186.708 64.5692 186.973 65.3719 187.874C66.1746 188.775 87.5797 196.999 87.5797 196.999L127.768 187.557L88.0078 196.098Z" fill="black"/>
<path opacity="0.1" d="M79.4643 188.044L89.0654 191.22L89.0315 191.32L79.4304 188.145L79.4643 188.044Z" fill="black"/>
<path opacity="0.1" d="M77.5422 187.728L89.0693 192.074L89.0313 192.173L77.5041 187.827L77.5422 187.728Z" fill="black"/>
<path opacity="0.1" d="M75.7759 187.713L89.0049 193.081L88.9643 193.179L75.7353 187.811L75.7759 187.713Z" fill="black"/>
<path opacity="0.1" d="M73.8555 187.253L88.8506 193.969L88.8065 194.065L73.8114 187.35L73.8555 187.253Z" fill="black"/>
<path opacity="0.1" d="M72.2469 187.246L88.7314 194.401L88.6885 194.498L72.204 187.344L72.2469 187.246Z" fill="black"/>
<path opacity="0.1" d="M68.7119 186.661L88.4824 195.126L88.44 195.224L68.6695 186.758L68.7119 186.661Z" fill="black"/>
<path d="M65.8112 179.262C65.8112 179.262 64.8373 179.651 65.4089 180.253C65.9805 180.856 87.8809 187.138 87.8809 187.138L65.8112 179.262Z" fill="#6C63FF"/>
<path d="M56.3509 170.189C56.3509 170.189 58.7766 173.124 56.8498 177.564L76.2213 185.893L78.0802 186.282L78.9365 182.568L78.3553 177.883V175.318L56.3509 170.189Z" fill="#D5D6DB"/>
<path d="M117.522 168.291L90.7115 163.446L55.1841 169.058L77.2506 176.934L117.522 168.291Z" fill="#090814"/>
<path d="M117.527 168.291C117.527 168.291 120.036 173.001 117.146 177.352L77.3862 185.893C77.3862 185.893 79.853 182.138 77.2546 176.933L117.527 168.291Z" fill="#3A3768"/>
<path d="M117.527 168.291C117.527 168.291 120.036 173.001 117.146 177.352L77.3862 185.893C77.3862 185.893 79.853 182.138 77.2546 176.933L89.8279 174.234L117.527 168.291Z" fill="#090814"/>
<path d="M77.3818 185.893L55.1833 176.502C55.1833 176.502 53.9428 176.768 54.7457 177.668C55.5486 178.569 76.9535 186.793 76.9535 186.793L117.142 177.351L77.3818 185.893Z" fill="#3A3768"/>
<path d="M77.3818 185.893L55.1833 176.502C55.1833 176.502 53.9428 176.768 54.7457 177.668C55.5486 178.569 76.9535 186.793 76.9535 186.793L117.142 177.351L77.3818 185.893Z" fill="#090814"/>
<path opacity="0.1" d="M79.201 177.882C79.201 177.882 81.3415 180.428 79.201 184.248Z" fill="black"/>
<path opacity="0.1" d="M68.8363 177.84L78.4375 181.016L78.4036 181.116L68.8025 177.941L68.8363 177.84Z" fill="black"/>
<path opacity="0.1" d="M66.9133 177.523L78.4404 181.869L78.4024 181.968L66.8752 177.623L66.9133 177.523Z" fill="black"/>
<path opacity="0.1" d="M65.148 177.507L78.377 182.875L78.3364 182.973L65.1074 177.605L65.148 177.507Z" fill="black"/>
<path opacity="0.1" d="M63.2266 177.047L78.2217 183.763L78.1776 183.859L63.1825 177.144L63.2266 177.047Z" fill="black"/>
<path opacity="0.1" d="M61.62 177.039L78.1045 184.193L78.0616 184.291L61.577 177.136L61.62 177.039Z" fill="black"/>
<path opacity="0.1" d="M58.084 176.454L77.8545 184.919L77.812 185.017L58.0416 176.551L58.084 176.454Z" fill="black"/>
<path d="M55.1833 169.057C55.1833 169.057 54.2104 169.446 54.781 170.047C55.3516 170.649 77.249 176.932 77.249 176.932L55.1833 169.057Z" fill="#3A3768"/>
<path d="M55.3453 158.515C55.3453 158.515 57.771 163.786 55.8451 168.223L75.2169 174.219L77.0716 174.608L77.9277 170.894L77.3551 166.207V163.643L55.3453 158.515Z" fill="#D5D6DB"/>
<path d="M116.513 156.617L89.7008 151.771L54.1734 157.383L76.2401 165.258L116.513 156.617Z" fill="#6C63FF"/>
<path d="M116.513 156.616C116.513 156.616 119.025 161.326 116.135 165.677L76.3754 174.218C76.3754 174.218 78.8435 170.463 76.2448 165.259L116.513 156.616Z" fill="#6C63FF"/>
<path opacity="0.1" d="M116.513 156.616C116.513 156.616 119.025 161.326 116.135 165.677L76.3754 174.218C76.3754 174.218 78.8435 170.463 76.2448 165.259L116.513 156.616Z" fill="black"/>
<path d="M76.371 174.218L54.174 167.162C54.174 167.162 52.9325 167.427 53.7352 168.328C54.5379 169.229 75.943 175.119 75.943 175.119L116.131 165.677L76.371 174.218Z" fill="#6C63FF"/>
<path opacity="0.1" d="M76.371 174.218L54.174 167.162C54.174 167.162 52.9325 167.427 53.7352 168.328C54.5379 169.229 75.943 175.119 75.943 175.119L116.131 165.677L76.371 174.218Z" fill="black"/>
<path opacity="0.1" d="M67.8266 166.165L77.4277 169.34L77.3938 169.441L67.7927 166.265L67.8266 166.165Z" fill="black"/>
<path opacity="0.1" d="M65.9035 165.849L77.4307 170.195L77.3926 170.294L65.8655 165.948L65.9035 165.849Z" fill="black"/>
<path opacity="0.1" d="M64.1392 165.833L77.3682 171.201L77.3276 171.299L64.0986 165.931L64.1392 165.833Z" fill="black"/>
<path opacity="0.1" d="M62.2158 165.372L77.2109 172.088L77.1669 172.185L62.1717 165.469L62.2158 165.372Z" fill="black"/>
<path opacity="0.1" d="M60.6092 165.365L77.0938 172.52L77.0508 172.617L60.5663 165.462L60.6092 165.365Z" fill="black"/>
<path opacity="0.1" d="M57.0733 164.78L76.8438 173.246L76.8013 173.344L57.0308 164.878L57.0733 164.78Z" fill="black"/>
<path d="M54.1745 157.382C54.1745 157.382 53.2006 157.771 53.7722 158.373C54.3438 158.976 76.2402 165.258 76.2402 165.258L54.1745 157.382Z" fill="#6C63FF"/>
<path opacity="0.1" d="M65.1601 154.573C65.1601 154.573 68.9777 155.146 69.6904 155.924Z" fill="black"/>
<path opacity="0.1" d="M74.3398 158.3C73.9536 158.013 73.5424 157.759 73.1111 157.544C72.4853 157.209 71.8779 156.841 71.2916 156.441" fill="black"/>
<path d="M167.041 136.787C167.041 136.787 162.39 148.843 159.745 147.637C157.1 146.431 157.817 141.308 157.313 139.903C156.808 138.499 156.249 127.848 156.249 127.848C156.249 127.848 155.993 120.313 155.489 118.787C155.021 117.385 154.641 110.318 154.577 109.206V109.058L155.079 100.317L157.918 99.6152L164.503 102.028L165.415 107.191L165.77 109.207L165.922 110.066L167.041 136.787Z" fill="#ED9DA0"/>
<path d="M203.415 137.315C203.415 137.315 208.067 149.37 210.711 148.165C213.356 146.959 212.639 141.836 213.143 140.431C213.648 139.027 214.207 128.375 214.207 128.375C214.207 128.375 214.463 120.841 214.967 119.315C215.435 117.913 215.815 110.846 215.879 109.733V109.586L215.374 100.845L212.535 100.143L205.95 102.554L205.038 107.717L204.682 109.733L204.53 110.592L203.415 137.315Z" fill="#ED9DA0"/>
<path d="M205.239 149.322C205.239 149.322 208.787 153.189 207.471 153.891C206.154 154.593 197.639 167.755 197.639 167.755C197.639 167.755 169.671 171.17 164.395 166.046C159.119 160.922 159.227 151.769 159.227 151.769C159.227 151.769 163.466 152.673 163.927 152.182C164.388 151.691 166.927 149.322 166.927 149.322C166.927 149.322 202.808 147.164 205.239 149.322Z" fill="#090814"/>
<path opacity="0.1" d="M154.869 110.035H215.88V109.888L215.375 101.147C215.375 101.147 210.426 95.8908 206.091 92.3433L167.786 90.8373L166.004 88.9746L159.551 91.9095C154.483 94.2171 154.89 100.749 154.89 100.749C154.89 100.749 154.197 108.317 154.869 110.035Z" fill="black"/>
<path d="M154.869 109.734H215.88V109.586L215.375 100.846C215.375 100.846 210.426 95.5895 206.091 92.042L167.786 90.536L166.004 88.6733L159.551 91.6082C154.483 93.9158 154.89 100.448 154.89 100.448C154.89 100.448 154.197 108.016 154.869 109.734Z" fill="#D6D6E3"/>
<path d="M168.865 87.3593L167.846 102.757L166.755 107.881L165.922 111.799C165.922 111.799 163.794 141.939 164.403 143.446C165.011 144.953 164.098 146.158 163.971 146.96C163.843 147.762 164.098 149.775 163.998 150.679C163.898 151.583 163.998 151.984 166.326 151.662C168.654 151.339 171.902 150.779 171.902 150.779C171.902 150.779 180.11 151.382 182.946 150.378C185.783 149.374 191.154 149.371 191.154 149.371C191.154 149.371 199.262 149.573 201.895 149.272C204.527 148.971 205.95 152.488 207.671 151.481C209.391 150.475 205.646 140.734 204.43 137.919C203.214 135.103 206.05 127.973 206.05 127.973L202.402 107.908L201.59 103.36V89.0616L201.39 88.9924C200.65 88.7062 199.899 88.928 199.372 88.3385L198.55 102.049L169.974 103.055V86.8613" fill="#D6D6E3"/>
<path d="M171.99 188.371L159.93 188.753L161.66 179.887L170.899 180.758L171.99 188.371Z" fill="#ED9DA0"/>
<path d="M134.621 167.355C135.433 168.358 138.574 170.166 138.878 170.769C139.182 171.372 142.93 173.18 144.857 173.482C146.785 173.783 152.862 175.091 153.978 175.794C154.777 176.3 161.195 177.903 165.411 178.793C166.554 179.061 167.709 179.267 168.874 179.411C170.698 179.51 190.659 172.779 190.659 172.779L186.81 168.861L186.598 168.788C185.509 168.424 180.481 166.739 177.69 165.937C174.547 165.033 170.899 161.316 170.899 161.316C170.899 161.316 165.53 159.508 164.819 159.306C164.107 159.104 166.643 152.275 166.643 152.275C166.643 152.275 154.99 150.671 150.43 149.311C145.87 147.951 135.33 148.455 133.405 153.781C131.481 159.106 133.797 166.351 134.621 167.355Z" fill="#090814"/>
<path d="M187.723 184.332C187.723 184.332 190.05 186.743 192.383 186.544C194.716 186.345 202.868 187.147 202.868 187.147C204.346 187.731 205.73 188.526 206.976 189.507C208.882 190.996 213.46 190.26 213.46 190.26C213.46 190.26 212.448 180.616 212.758 179.41C213.068 178.203 210.754 176.134 210.754 176.134L208.018 175.444L201.087 173.684L191.155 177.098L187.723 184.332Z" fill="#090814"/>
<path opacity="0.1" d="M165.413 178.793C166.555 179.061 167.711 179.267 168.876 179.411C170.7 179.51 190.661 172.779 190.661 172.779L186.812 168.861L186.6 168.788C185.991 169.213 185.493 169.578 185.137 169.855C183.462 171.163 181.845 169.454 181.237 169.454C180.629 169.454 175.361 173.774 175.361 173.774C175.361 173.774 170.497 174.88 169.685 175.884C168.874 176.887 166.037 176.688 165.532 177.39C165.381 177.608 165.363 178.142 165.413 178.793Z" fill="black"/>
<path d="M202.868 152.686C202.868 152.686 207.787 152.966 210.623 151.782C213.46 150.597 222.884 147.864 225.62 149.784C228.356 151.704 234.944 153.4 231.904 161.038C228.864 168.675 227.445 168.874 227.445 168.874C226.504 169.573 225.683 170.418 225.013 171.376C224.101 172.783 215.588 175.996 213.46 175.996C211.333 175.996 207.584 175.996 202.316 179.613C197.047 183.23 192.283 183.633 192.283 183.633C192.283 183.633 185.594 186.345 183.511 186.948C181.428 187.551 171.913 190.161 169.682 189.359C167.451 188.557 166.034 183.529 166.034 183.529C166.034 183.529 165.021 179.008 165.529 178.307C166.037 177.605 168.873 177.803 169.682 176.801C170.491 175.798 175.358 174.691 175.358 174.691C175.358 174.691 180.614 170.369 181.222 170.369C181.83 170.369 183.447 172.075 185.122 170.77C188.459 168.319 191.965 166.103 195.614 164.138C199.463 162.128 202.868 152.686 202.868 152.686Z" fill="#090814"/>
<path opacity="0.1" d="M212.757 155.6C211.881 155.423 210.976 155.448 210.111 155.675C209.247 155.901 208.447 156.322 207.774 156.905C205.342 158.916 197.158 162.951 197.158 162.951" fill="black"/>
<path opacity="0.1" d="M151.95 155.474C151.95 155.474 162.794 157.101 164.818 159.31Z" fill="black"/>
<path d="M139.486 188.754H139.963C141.678 188.693 147.488 188.512 148.606 188.754C149.923 189.055 167.354 188.754 167.354 188.754L163.947 188.051C163.947 188.051 165.211 183.657 164.409 183.292C164.409 183.292 168.969 180.314 165.53 178.304C162.092 176.294 158.386 177.141 158.386 177.141L149.755 174.241L148.099 173.683C148.099 173.683 138.371 174.186 135.738 180.817C133.104 187.447 139.486 188.754 139.486 188.754Z" fill="#090814"/>
<path d="M213.512 100.997L208.131 96.1743C208.131 96.1743 187.267 94.8182 186.404 101.85C186.404 101.85 179.007 93.5132 163.451 95.3698L156.87 100.566L175.061 108.48L192.739 114.56L205.76 108.782L213.512 100.997Z" fill="#F2F2F2"/>
<path d="M215.892 100.997L213.51 129.228L188.278 130.485L189.373 102.374L189.394 101.901L215.892 100.997Z" fill="#6C63FF"/>
<path d="M155.713 100.394L181.742 104.264V132.621L156.306 128.977L155.713 100.394Z" fill="#6C63FF"/>
<path opacity="0.3" d="M161.852 107.314L175.912 108.863L175.605 113.613L161.861 112.124L161.852 107.314Z" fill="white"/>
<path d="M212.143 144.346L210.711 148.164C210.711 148.164 208.583 149.973 206.254 149.068C203.925 148.164 201.895 147.715 200.883 146.835C199.87 145.955 198.451 141.534 198.451 141.534C198.451 141.534 197.031 136.711 195.614 135.506C194.198 134.3 190.446 117.69 195.614 119.315C200.782 120.939 204.734 136.009 204.734 136.009C204.734 136.009 205.646 137.112 206.963 137.215C208.279 137.317 210.915 137.013 211.422 138.119C211.929 139.225 213.663 142.137 212.143 144.346Z" fill="#ED9DA0"/>
<path d="M181.742 104.261C183.075 104.558 184.46 104.543 185.785 104.215C187.11 103.888 188.34 103.257 189.376 102.374L188.279 130.482C188.279 130.482 185.695 133.255 181.742 132.622V104.261Z" fill="#6C63FF"/>
<path opacity="0.1" d="M181.742 104.261C183.075 104.558 184.46 104.543 185.785 104.215C187.11 103.888 188.34 103.257 189.376 102.374L188.279 130.482C188.279 130.482 185.695 133.255 181.742 132.622V104.261Z" fill="black"/>
<path opacity="0.1" d="M181.135 101.093C181.135 101.093 170.546 97.8836 167.786 98.3356Z" fill="black"/>
<path opacity="0.1" d="M192.978 99.6921C192.978 99.6921 203.241 97.2809 204.956 97.965Z" fill="black"/>
<path opacity="0.1" d="M174.459 101.494C174.459 101.494 167.378 98.9187 164.819 100.143Z" fill="black"/>
<path opacity="0.1" d="M178.024 166.062C176.927 165.245 175.759 164.526 174.534 163.913C172.711 163.042 169.366 160.781 169.366 160.781" fill="black"/>
<path opacity="0.1" d="M204.957 135.304C204.957 135.304 209.399 138.906 210.733 139.222C212.068 139.539 212.892 142.348 212.892 142.348" fill="black"/>
<path d="M158.324 143.81L159.741 147.638C159.741 147.638 161.869 149.446 164.2 148.542C166.531 147.637 168.557 147.188 169.572 146.308C170.587 145.428 172.004 141.007 172.004 141.007C172.004 141.007 173.421 136.185 174.84 134.979C176.26 133.773 180.008 117.164 174.84 118.788C169.672 120.412 165.72 135.482 165.72 135.482C165.72 135.482 164.808 136.585 163.492 136.688C162.175 136.79 159.539 136.486 159.032 137.592C158.525 138.698 156.805 141.61 158.324 143.81Z" fill="#ED9DA0"/>
<path opacity="0.1" d="M164.569 135.635C164.569 135.635 160.656 138.793 159.477 139.071C158.298 139.349 157.574 141.812 157.574 141.812" fill="black"/>
</g>
<defs>
<clipPath id="clip0_2145_1165">
<rect width="196" height="151" fill="white" transform="matrix(-1 0 0 1 241 46)"/>
</clipPath>
</defs>
</svg>
