<svg width="300" height="243" viewBox="0 0 300 243" fill="none" xmlns="http://www.w3.org/2000/svg">
<g clip-path="url(#clip0_2145_1086)">
<path d="M120.963 166.745C120.306 165.168 120.234 163.408 120.759 161.782C121.285 160.156 122.374 158.773 123.829 157.881C124.314 157.586 123.871 156.821 123.384 157.118C121.714 158.116 120.469 159.693 119.882 161.549C119.295 163.405 119.409 165.412 120.201 167.191C120.423 167.712 121.184 167.262 120.963 166.745Z" fill="#3F3D56"/>
<path d="M121.216 167.934C120.026 165.822 120.306 163.294 120.734 161.01C121.181 158.626 121.767 156.206 121.26 153.781C121.03 152.604 120.486 151.511 119.685 150.619C119.3 150.199 118.677 150.826 119.061 151.244C120.558 152.872 120.732 155.234 120.489 157.332C120.202 159.806 119.391 162.217 119.492 164.732C119.518 166.007 119.848 167.258 120.454 168.38C120.515 168.477 120.611 168.546 120.723 168.573C120.834 168.6 120.951 168.583 121.05 168.525C121.149 168.467 121.222 168.373 121.253 168.263C121.283 168.153 121.27 168.034 121.216 167.934Z" fill="#3F3D56"/>
<path d="M127.604 174.677H112.601C112.25 174.677 111.914 174.537 111.666 174.289C111.417 174.04 111.278 173.703 111.277 173.352V168.938C111.279 167.804 111.729 166.717 112.53 165.915C113.331 165.113 114.416 164.662 115.549 164.661H117.749C117.866 164.661 117.978 164.614 118.061 164.531C118.144 164.448 118.19 164.336 118.19 164.219V162.156C118.191 161.961 118.268 161.774 118.406 161.636C118.544 161.498 118.731 161.42 118.926 161.42H121.279C121.474 161.42 121.661 161.498 121.799 161.636C121.937 161.774 122.014 161.961 122.015 162.156V164.219C122.015 164.336 122.061 164.448 122.144 164.531C122.227 164.614 122.339 164.661 122.456 164.661H124.656C125.789 164.662 126.874 165.113 127.675 165.915C128.476 166.717 128.926 167.804 128.928 168.938V173.352C128.927 173.703 128.788 174.04 128.539 174.289C128.291 174.537 127.955 174.677 127.604 174.677Z" fill="#CCCCCC"/>
<path d="M120.333 148.174C120.649 149.853 120.258 151.336 119.459 151.487C118.661 151.638 117.758 150.399 117.442 148.72C117.126 147.041 118.098 144.249 118.098 144.249C118.098 144.249 120.017 146.495 120.333 148.174Z" fill="#6C63FF"/>
<path d="M126.392 155.985C125.392 157.369 124.047 158.104 123.389 157.627C122.731 157.15 123.009 155.642 124.009 154.258C125.009 152.874 127.702 151.661 127.702 151.661C127.702 151.661 127.392 154.601 126.392 155.985Z" fill="#6C63FF"/>
<path d="M93.3104 60.684C92.6534 59.1072 92.5813 57.347 93.1069 55.7215C93.6325 54.096 94.7213 52.7123 96.1766 51.8205C96.6612 51.5254 96.2182 50.7608 95.7312 51.0574C94.062 52.0556 92.8162 53.632 92.2296 55.4883C91.6431 57.3447 91.7565 59.3519 92.5484 61.1301C92.771 61.6515 93.5315 61.2017 93.3104 60.684Z" fill="#3F3D56"/>
<path d="M93.5637 61.873C92.3734 59.7611 92.6535 57.2337 93.0816 54.9499C93.5285 52.5658 94.1144 50.1452 93.6075 47.7204C93.3776 46.5432 92.8334 45.4503 92.0328 44.5581C91.6473 44.1388 91.0244 44.765 91.4088 45.1831C92.9057 46.8114 93.0793 49.1736 92.8365 51.2714C92.5501 53.7457 91.7385 56.1569 91.8392 58.6712C91.8656 59.9465 92.1955 61.1972 92.8016 62.3191C92.8628 62.4161 92.9591 62.4855 93.0704 62.5126C93.1816 62.5398 93.299 62.5227 93.3979 62.4648C93.4967 62.4069 93.5693 62.3129 93.6002 62.2025C93.6311 62.0921 93.618 61.9739 93.5637 61.873Z" fill="#3F3D56"/>
<path d="M99.9515 68.6169H84.9488C84.5978 68.6166 84.2613 68.4768 84.0132 68.2282C83.765 67.9797 83.6254 67.6427 83.625 67.2912V62.8778C83.6263 61.7436 84.0767 60.6564 84.8775 59.8544C85.6782 59.0525 86.7639 58.6014 87.8963 58.6001H90.0968C90.2138 58.6 90.3259 58.5534 90.4086 58.4705C90.4914 58.3877 90.5379 58.2754 90.538 58.1582V56.0959C90.5382 55.9006 90.6158 55.7134 90.7537 55.5753C90.8915 55.4373 91.0785 55.3596 91.2735 55.3594H93.6268C93.8218 55.3596 94.0087 55.4373 94.1466 55.5753C94.2845 55.7134 94.362 55.9006 94.3622 56.0959V58.1582C94.3624 58.2754 94.4089 58.3877 94.4916 58.4705C94.5744 58.5534 94.6865 58.6 94.8035 58.6001H97.004C98.1364 58.6014 99.2221 59.0525 100.023 59.8544C100.824 60.6564 101.274 61.7436 101.275 62.8778V67.2912C101.275 67.6427 101.135 67.9797 100.887 68.2282C100.639 68.4768 100.302 68.6166 99.9515 68.6169Z" fill="#CCCCCC"/>
<path d="M92.6806 42.1137C92.9965 43.7926 92.6054 45.2758 91.8071 45.4264C91.0088 45.5771 90.1056 44.3382 89.7897 42.6592C89.4739 40.9803 90.4453 38.1885 90.4453 38.1885C90.4453 38.1885 92.3647 40.4348 92.6806 42.1137Z" fill="#6C63FF"/>
<path d="M98.7395 49.9247C97.7392 51.3087 96.3949 52.0438 95.7369 51.5668C95.0789 51.0897 95.3563 49.5811 96.3566 48.1972C97.3569 46.8133 100.049 45.6006 100.049 45.6006C100.049 45.6006 99.7398 48.5408 98.7395 49.9247Z" fill="#6C63FF"/>
<path d="M63.4741 114.135H51.4131V118.554H63.4741V114.135Z" fill="#6C63FF"/>
<path d="M63.4741 128.571H51.4131V132.99H63.4741V128.571Z" fill="#6C63FF"/>
<path d="M137.017 208.705H47.0009C45.675 208.704 44.4039 208.176 43.4664 207.237C42.5288 206.298 42.0015 205.025 42 203.697V39.0084C42.0015 37.6806 42.5288 36.4075 43.4664 35.4686C44.4039 34.5296 45.675 34.0015 47.0009 34H137.017C138.343 34.0015 139.614 34.5296 140.552 35.4686C141.489 36.4075 142.017 37.6806 142.018 39.0084V203.697C142.017 205.025 141.489 206.298 140.552 207.237C139.614 208.176 138.343 208.704 137.017 208.705ZM47.0009 34.5892C45.831 34.5906 44.7094 35.0566 43.8822 35.885C43.055 36.7135 42.5897 37.8368 42.5883 39.0084V203.697C42.5897 204.869 43.055 205.992 43.8822 206.82C44.7094 207.649 45.831 208.115 47.0009 208.116H137.017C138.187 208.115 139.309 207.649 140.136 206.82C140.963 205.992 141.429 204.869 141.43 203.697V39.0084C141.429 37.8368 140.963 36.7135 140.136 35.885C139.309 35.0566 138.187 34.5906 137.017 34.5892H47.0009Z" fill="#A19AB2"/>
<path d="M141.725 68.0137H42.2949V68.6029H141.725V68.0137Z" fill="#A19AB2"/>
<path d="M141.725 103.377H42.2949V103.966H141.725V103.377Z" fill="#A19AB2"/>
<path d="M141.725 138.74H42.2949V139.329H141.725V138.74Z" fill="#A19AB2"/>
<path d="M141.725 174.102H42.2949V174.691H141.725V174.102Z" fill="#A19AB2"/>
<path d="M62.5918 139.471H52.59C52.2 139.471 51.8262 139.316 51.5504 139.039C51.2747 138.763 51.1196 138.389 51.1191 137.998V109.421C51.1196 109.03 51.2747 108.656 51.5504 108.38C51.8262 108.104 52.2 107.948 52.59 107.948H62.5918C62.9818 107.948 63.3556 108.104 63.6314 108.38C63.9071 108.656 64.0622 109.03 64.0627 109.421V137.998C64.0622 138.389 63.9071 138.763 63.6314 139.039C63.3556 139.316 62.9818 139.471 62.5918 139.471ZM52.59 108.537C52.356 108.537 52.1317 108.63 51.9663 108.796C51.8008 108.962 51.7077 109.186 51.7075 109.421V137.998C51.7077 138.233 51.8008 138.457 51.9663 138.623C52.1317 138.789 52.356 138.882 52.59 138.882H62.5918C62.8258 138.882 63.0501 138.789 63.2156 138.623C63.381 138.457 63.4741 138.233 63.4743 137.998V109.421C63.4741 109.186 63.381 108.962 63.2156 108.796C63.0501 108.63 62.8258 108.537 62.5918 108.537H52.59Z" fill="#3F3D56"/>
<path d="M82.0063 114.135H69.9453V118.554H82.0063V114.135Z" fill="#6C63FF"/>
<path d="M82.0063 128.571H69.9453V132.99H82.0063V128.571Z" fill="#6C63FF"/>
<path d="M81.125 139.471H71.1232C70.7332 139.471 70.3594 139.316 70.0836 139.039C69.8079 138.763 69.6528 138.389 69.6523 137.998V109.421C69.6528 109.03 69.8079 108.656 70.0836 108.38C70.3594 108.104 70.7332 107.948 71.1232 107.948H81.125C81.515 107.948 81.8888 108.104 82.1646 108.38C82.4403 108.656 82.5954 109.03 82.5959 109.421V137.998C82.5954 138.389 82.4403 138.763 82.1646 139.039C81.8888 139.316 81.515 139.471 81.125 139.471ZM71.1232 108.537C70.8892 108.537 70.6649 108.63 70.4995 108.796C70.334 108.962 70.2409 109.186 70.2407 109.421V137.998C70.2409 138.233 70.334 138.457 70.4995 138.623C70.6649 138.789 70.8892 138.882 71.1232 138.882H81.125C81.359 138.882 81.5833 138.789 81.7488 138.623C81.9142 138.457 82.0073 138.233 82.0075 137.998V109.421C82.0073 109.186 81.9142 108.962 81.7488 108.796C81.5833 108.63 81.359 108.537 81.125 108.537H71.1232Z" fill="#3F3D56"/>
<path d="M111.424 78.4863H99.3633V82.9055H111.424V78.4863Z" fill="#6C63FF"/>
<path d="M111.424 92.9224H99.3633V97.3416H111.424V92.9224Z" fill="#6C63FF"/>
<path d="M110.542 103.823H100.54C100.15 103.823 99.7764 103.668 99.5006 103.391C99.2249 103.115 99.0698 102.741 99.0693 102.35V73.7729C99.0698 73.3823 99.2249 73.0079 99.5006 72.7318C99.7764 72.4556 100.15 72.3003 100.54 72.2998H110.542C110.932 72.3003 111.306 72.4556 111.582 72.7318C111.857 73.0079 112.012 73.3823 112.013 73.7729V102.35C112.012 102.741 111.857 103.115 111.582 103.391C111.306 103.668 110.932 103.823 110.542 103.823ZM100.54 72.889C100.306 72.8893 100.082 72.9825 99.9165 73.1482C99.751 73.3139 99.6579 73.5385 99.6577 73.7729V102.35C99.6579 102.585 99.751 102.809 99.9165 102.975C100.082 103.141 100.306 103.234 100.54 103.234H110.542C110.776 103.234 111 103.141 111.166 102.975C111.331 102.809 111.424 102.585 111.425 102.35V73.7729C111.424 73.5385 111.331 73.3139 111.166 73.1482C111 72.9825 110.776 72.8893 110.542 72.889H100.54Z" fill="#3F3D56"/>
<path d="M129.958 78.4863H117.896V82.9055H129.958V78.4863Z" fill="#6C63FF"/>
<path d="M129.958 92.9224H117.896V97.3416H129.958V92.9224Z" fill="#6C63FF"/>
<path d="M129.074 103.823H119.072C118.682 103.823 118.309 103.668 118.033 103.391C117.757 103.115 117.602 102.741 117.602 102.35V73.7729C117.602 73.3823 117.757 73.0079 118.033 72.7318C118.309 72.4556 118.682 72.3003 119.072 72.2998H129.074C129.464 72.3003 129.838 72.4556 130.114 72.7318C130.39 73.0079 130.545 73.3823 130.545 73.7729V102.35C130.545 102.741 130.39 103.115 130.114 103.391C129.838 103.668 129.464 103.823 129.074 103.823ZM119.072 72.889C118.838 72.8893 118.614 72.9825 118.449 73.1482C118.283 73.3139 118.19 73.5385 118.19 73.7729V102.35C118.19 102.585 118.283 102.809 118.449 102.975C118.614 103.141 118.838 103.234 119.072 103.234H129.074C129.308 103.234 129.533 103.141 129.698 102.975C129.863 102.809 129.956 102.585 129.957 102.35V73.7729C129.956 73.5385 129.863 73.3139 129.698 73.1482C129.533 72.9825 129.308 72.8893 129.074 72.889H119.072Z" fill="#3F3D56"/>
<path d="M96.801 111.495L85.5107 115.744L87.0629 119.881L98.3531 115.632L96.801 111.495Z" fill="#6C63FF"/>
<path d="M101.871 125.009L90.5811 129.258L92.1332 133.395L103.423 129.146L101.871 125.009Z" fill="#6C63FF"/>
<path d="M94.9931 139.142C94.694 139.142 94.4021 139.05 94.1563 138.879C93.9105 138.709 93.7224 138.467 93.617 138.187L83.5798 111.436C83.4431 111.07 83.4568 110.665 83.6179 110.309C83.779 109.953 84.0744 109.676 84.4392 109.539L93.8019 106.015C93.9827 105.947 94.1752 105.915 94.3682 105.922C94.5613 105.928 94.7512 105.973 94.9271 106.053C95.103 106.132 95.2615 106.246 95.3934 106.388C95.5254 106.529 95.6282 106.695 95.6962 106.876L105.733 133.627C105.87 133.993 105.856 134.398 105.695 134.753C105.534 135.109 105.239 135.386 104.874 135.524L95.5112 139.047C95.3456 139.11 95.1701 139.142 94.9931 139.142ZM94.3198 106.51C94.2136 106.51 94.1083 106.529 94.0089 106.567L84.6462 110.09C84.4273 110.173 84.2501 110.339 84.1534 110.552C84.0567 110.766 84.0485 111.009 84.1305 111.228L94.1677 137.979C94.2085 138.088 94.2702 138.188 94.3494 138.272C94.4286 138.357 94.5237 138.425 94.6292 138.473C94.7347 138.521 94.8487 138.548 94.9645 138.552C95.0803 138.556 95.1958 138.537 95.3043 138.496L104.667 134.972C104.886 134.89 105.063 134.723 105.16 134.51C105.256 134.297 105.265 134.054 105.183 133.834L95.1454 107.083C95.0822 106.915 94.9693 106.77 94.8218 106.668C94.6744 106.565 94.4993 106.51 94.3198 106.51Z" fill="#3F3D56"/>
<path d="M56.2053 76.4367L44.915 80.6855L46.4672 84.8223L57.7574 80.5734L56.2053 76.4367Z" fill="#6C63FF"/>
<path d="M61.2756 89.9498L49.9854 94.1987L51.5375 98.3355L62.8277 94.0866L61.2756 89.9498Z" fill="#6C63FF"/>
<path d="M54.3974 104.083C54.0982 104.083 53.8064 103.991 53.5606 103.82C53.3148 103.649 53.1267 103.408 53.0213 103.128L42.9841 76.3764C42.8474 76.0107 42.8611 75.6056 43.0222 75.25C43.1833 74.8944 43.4787 74.6173 43.8435 74.4794L53.2062 70.956C53.387 70.8879 53.5795 70.8562 53.7725 70.8626C53.9656 70.869 54.1555 70.9135 54.3314 70.9934C54.5073 71.0734 54.6657 71.1872 54.7977 71.3285C54.9297 71.4698 55.0325 71.6357 55.1005 71.8168L65.1376 98.5679C65.2743 98.9336 65.2606 99.3387 65.0995 99.6944C64.9384 100.05 64.6431 100.327 64.2782 100.465L54.9155 103.988C54.7499 104.051 54.5744 104.083 54.3974 104.083ZM53.7241 71.4506C53.6179 71.4507 53.5126 71.47 53.4132 71.5076L44.0505 75.031C43.8316 75.1137 43.6544 75.28 43.5577 75.4934C43.461 75.7068 43.4528 75.9498 43.5348 76.1693L53.572 102.92C53.6128 103.029 53.6745 103.129 53.7537 103.213C53.8329 103.298 53.9279 103.366 54.0335 103.414C54.139 103.462 54.253 103.489 54.3688 103.493C54.4846 103.497 54.6001 103.478 54.7086 103.437L64.0712 99.9134C64.2901 99.8307 64.4674 99.6644 64.564 99.451C64.6607 99.2376 64.6689 98.9945 64.5869 98.7751L54.5497 72.024C54.4865 71.8558 54.3736 71.7109 54.2261 71.6084C54.0787 71.506 53.9036 71.451 53.7241 71.4506Z" fill="#3F3D56"/>
<path d="M226.445 107.653C231.482 107.653 235.565 103.564 235.565 98.5202C235.565 93.4762 231.482 89.3872 226.445 89.3872C221.409 89.3872 217.326 93.4762 217.326 98.5202C217.326 103.564 221.409 107.653 226.445 107.653Z" fill="#2F2E41"/>
<path d="M185.932 140.2C186.362 140.367 186.824 140.437 187.285 140.406C187.746 140.375 188.195 140.243 188.599 140.02C189.004 139.796 189.355 139.487 189.627 139.113C189.899 138.739 190.086 138.31 190.175 137.856L215.249 122.012L210.685 116.866L187.462 134.068C186.691 133.97 185.91 134.158 185.268 134.598C184.625 135.037 184.166 135.697 183.978 136.453C183.789 137.209 183.884 138.008 184.244 138.698C184.604 139.389 185.204 139.923 185.932 140.2Z" fill="#FFB8B8"/>
<path d="M210.015 126.224C209.793 126.224 209.575 126.169 209.38 126.062C209.185 125.956 209.02 125.803 208.899 125.616L205.996 121.097C205.812 120.812 205.745 120.467 205.808 120.134C205.871 119.8 206.059 119.504 206.333 119.305L216.05 112.272C216.521 111.93 217.056 111.687 217.623 111.557C218.19 111.426 218.778 111.411 219.351 111.511C219.924 111.612 220.471 111.827 220.959 112.143C221.448 112.459 221.868 112.87 222.195 113.352C222.523 113.834 222.75 114.376 222.864 114.948C222.978 115.519 222.977 116.107 222.86 116.678C222.743 117.249 222.513 117.79 222.184 118.271C221.854 118.751 221.432 119.16 220.942 119.474L210.726 126.016C210.514 126.152 210.267 126.224 210.015 126.224Z" fill="#2F2E41"/>
<path d="M214.352 205.126L210.746 205.126L209.03 191.194L214.353 191.194L214.352 205.126Z" fill="#FFB8B8"/>
<path d="M208.171 204.094H215.127V208.48H203.792C203.792 207.904 203.905 207.333 204.125 206.801C204.345 206.269 204.668 205.786 205.075 205.378C205.481 204.971 205.964 204.648 206.495 204.428C207.027 204.207 207.596 204.094 208.171 204.094Z" fill="#2F2E41"/>
<path d="M231.189 202.425L227.717 203.402L222.305 190.453L227.429 189.012L231.189 202.425Z" fill="#FFB8B8"/>
<path d="M224.959 203.105L231.656 201.223L232.84 205.445L221.927 208.513C221.771 207.959 221.726 207.379 221.795 206.807C221.863 206.235 222.043 205.682 222.325 205.18C222.606 204.678 222.984 204.236 223.436 203.88C223.888 203.524 224.406 203.261 224.959 203.105Z" fill="#2F2E41"/>
<path d="M240.908 181.045L226.906 164.496L235.402 154.172C235.527 154.021 235.684 153.899 235.861 153.815C236.038 153.732 236.232 153.689 236.428 153.689C236.624 153.69 236.817 153.734 236.994 153.819C237.17 153.903 237.326 154.026 237.45 154.178L250.306 169.979L240.908 181.045Z" fill="#6C63FF"/>
<path d="M227.471 164.619C227.677 164.247 227.933 163.905 228.232 163.602L236.341 155.368C236.659 155.044 237.087 154.852 237.54 154.829C238.467 154.785 239.986 154.879 240.41 155.897L229.461 164.869L227.471 164.619Z" fill="#F2F2F2"/>
<path d="M241.393 184.547C240.769 184.528 240.162 184.336 239.64 183.991L239.602 183.951L226.778 164.31L228.906 164.104L240.31 155.195C240.454 155.082 240.62 155.001 240.797 154.956C240.974 154.911 241.158 154.902 241.338 154.932C241.518 154.961 241.691 155.028 241.844 155.127C241.997 155.227 242.128 155.357 242.229 155.509L254.695 174.405C254.886 174.697 254.955 175.052 254.887 175.395C254.819 175.737 254.619 176.039 254.331 176.235L242.268 184.381C241.989 184.492 241.692 184.548 241.393 184.547Z" fill="#6C63FF"/>
<path d="M236.858 171.111C236.737 171.111 236.618 171.082 236.512 171.025C236.405 170.968 236.314 170.886 236.247 170.786L234.773 168.595C234.665 168.433 234.625 168.234 234.662 168.042C234.699 167.85 234.811 167.681 234.973 167.572L242.53 162.477C242.692 162.368 242.891 162.328 243.082 162.365C243.273 162.403 243.442 162.514 243.551 162.676L245.024 164.868C245.133 165.03 245.173 165.229 245.136 165.42C245.098 165.612 244.987 165.781 244.825 165.89L237.267 170.986C237.146 171.067 237.004 171.111 236.858 171.111Z" fill="#3F3D56"/>
<path d="M208.461 203.019C208.059 203.017 207.671 202.865 207.375 202.593C207.079 202.32 206.896 201.946 206.861 201.545C206.219 194.243 203 157.441 202.646 150.009C202.254 141.751 209.116 128.687 209.185 128.557L209.233 128.467L212.624 128.891V129.286L215.853 129.667L222.1 130.272L223.889 152.167L224.68 167.016L232.11 197.345C232.195 197.681 232.143 198.036 231.968 198.335C231.793 198.633 231.507 198.851 231.173 198.94L224.706 200.706C224.37 200.797 224.012 200.751 223.709 200.58C223.405 200.409 223.181 200.125 223.085 199.79L216.996 178.37C216.967 178.266 216.9 178.177 216.81 178.119C216.719 178.061 216.61 178.038 216.504 178.054C216.398 178.071 216.301 178.126 216.232 178.208C216.163 178.291 216.127 178.397 216.131 178.504L216.775 199.391C216.778 199.606 216.737 199.818 216.656 200.017C216.574 200.215 216.452 200.394 216.299 200.544C214.817 201.938 210.9 202.682 208.697 203.002C208.619 203.013 208.54 203.019 208.461 203.019Z" fill="#2F2E41"/>
<path d="M227.893 111.01C226.867 109.938 220.105 111.411 218.604 112.989L208.327 129.813L225.324 132.98L229.079 111.603L227.893 111.01Z" fill="#6C63FF"/>
<path d="M223.438 153.754C223.072 153.754 222.708 153.694 222.362 153.574C221.375 153.235 220.164 152.88 218.765 152.52C212.636 150.942 210.472 145.888 212.334 137.501L212.381 137.288C214.129 129.331 217.423 121.797 222.076 115.114L222.796 114.077C223.666 112.826 224.884 111.859 226.299 111.296C227.713 110.732 229.262 110.598 230.752 110.909C233.51 111.478 234.991 112.304 235.153 113.362C235.472 115.439 229.313 140.546 226.65 151.244C226.471 151.962 226.058 152.599 225.476 153.053C224.894 153.508 224.176 153.755 223.438 153.754Z" fill="#2F2E41"/>
<path d="M202.325 150.531C202.165 150.531 202.005 150.506 201.853 150.457L199.866 149.821C199.661 149.755 199.472 149.647 199.31 149.503C199.149 149.36 199.019 149.185 198.93 148.988C198.84 148.792 198.792 148.579 198.789 148.363C198.786 148.147 198.828 147.933 198.913 147.734L209.454 122.956C211.473 118.23 215.004 114.309 219.492 111.812C219.557 111.776 219.629 111.754 219.703 111.747C219.776 111.74 219.851 111.748 219.922 111.772C219.987 111.792 220.046 111.826 220.097 111.872C220.148 111.917 220.189 111.972 220.217 112.034C221.457 114.765 214.71 127.691 209.288 138.077C206.512 143.395 204.114 147.988 203.841 149.297C203.769 149.646 203.578 149.959 203.302 150.184C203.026 150.408 202.681 150.531 202.325 150.531Z" fill="#2F2E41"/>
<path d="M234.935 156.177C235.305 155.9 235.611 155.545 235.829 155.138C236.048 154.73 236.174 154.279 236.2 153.817C236.226 153.356 236.15 152.894 235.979 152.464C235.807 152.034 235.543 151.648 235.206 151.331L235.122 121.639L228.345 122.778L230.562 151.621C230.068 152.224 229.813 152.986 229.843 153.765C229.874 154.543 230.189 155.283 230.728 155.845C231.267 156.406 231.993 156.75 232.768 156.811C233.544 156.873 234.315 156.647 234.935 156.177Z" fill="#FFB8B8"/>
<path d="M229.417 129.005C229.081 129.005 228.758 128.877 228.512 128.647C228.267 128.417 228.118 128.103 228.096 127.767L227.308 115.786C227.233 114.634 227.619 113.498 228.379 112.63C229.139 111.761 230.212 111.229 231.363 111.152C231.954 111.113 232.546 111.195 233.104 111.394C233.662 111.592 234.174 111.903 234.608 112.306C235.042 112.709 235.39 113.197 235.629 113.74C235.868 114.282 235.994 114.868 235.999 115.461L236.106 127.605C236.109 127.956 235.973 128.293 235.728 128.544C235.483 128.794 235.149 128.938 234.798 128.942L229.433 129.005L229.417 129.005Z" fill="#2F2E41"/>
<path d="M224.567 108.117C228.557 108.117 231.792 104.878 231.792 100.881C231.792 96.8852 228.557 93.6455 224.567 93.6455C220.577 93.6455 217.342 96.8852 217.342 100.881C217.342 104.878 220.577 108.117 224.567 108.117Z" fill="#FFB8B8"/>
<path d="M230.575 105.945C231.114 104.227 231.608 102.202 230.542 100.753C229.773 99.7088 228.394 99.3046 227.1 99.2467C225.806 99.1888 224.508 99.4085 223.217 99.3057C221.926 99.2029 220.561 98.6925 219.905 97.574C219.055 96.1235 219.775 94.1258 221.143 93.149C222.51 92.1722 224.316 92.0358 225.98 92.2633C228.086 92.5137 230.066 93.4005 231.655 94.8058C233.202 96.2355 234.21 98.2964 234.166 100.404C234.121 102.512 232.94 104.61 231.059 105.557" fill="#2F2E41"/>
<path d="M228.773 90.1335C227.043 89.6 226.245 87.3098 227.019 85.6711C227.792 84.0324 229.769 83.1743 231.565 83.4025C233.36 83.6308 234.942 84.7844 236.033 86.2304C237.125 87.6764 237.783 89.4002 238.331 91.1274C238.88 92.8547 239.336 94.6194 240.086 96.2693C241.275 98.8043 243.109 100.981 245.404 102.581C247.7 104.182 250.375 105.149 253.162 105.385C254.376 105.473 255.637 105.41 256.744 104.902C257.851 104.393 258.779 103.368 258.903 102.155C259.533 106.465 257.029 111.045 253.065 112.836C249.1 114.627 244.015 113.475 241.206 110.149C238.461 106.899 238.036 102.311 238.102 98.0549C238.12 96.8878 238.163 95.6986 237.841 94.5767C237.519 93.4549 236.757 92.3882 235.647 92.0319C234.752 91.7444 233.782 91.9516 232.864 92.1554C231.946 92.3592 230.971 92.5554 230.082 92.2482C229.193 91.9409 228.477 90.9285 228.835 90.0577" fill="#2F2E41"/>
<path d="M257.358 209H179.697C179.618 209 179.544 208.969 179.488 208.914C179.433 208.858 179.402 208.783 179.402 208.705C179.402 208.627 179.433 208.552 179.488 208.497C179.544 208.442 179.618 208.411 179.697 208.411H257.358C257.436 208.411 257.511 208.442 257.566 208.497C257.621 208.552 257.652 208.627 257.652 208.705C257.652 208.783 257.621 208.858 257.566 208.914C257.511 208.969 257.436 209 257.358 209Z" fill="#CCCCCC"/>
</g>
<defs>
<clipPath id="clip0_2145_1086">
<rect width="217" height="175" fill="white" transform="translate(42 34)"/>
</clipPath>
</defs>
</svg>
