<svg width="300" height="243" viewBox="0 0 300 243" fill="none" xmlns="http://www.w3.org/2000/svg">
<path d="M246.639 36.3414H183.302C180.246 36.3413 177.28 37.381 174.893 39.2898C172.506 41.1985 170.839 43.8626 170.167 46.8442L138.165 188.795C137.816 190.343 137.81 191.949 138.147 193.5C138.484 195.051 139.156 196.509 140.117 197.773C141.077 199.037 142.303 200.075 143.707 200.815C145.111 201.555 146.66 201.979 148.245 202.057L213.356 205.265C216.842 205.436 220.272 204.334 223.005 202.163C225.739 199.991 227.588 196.9 228.21 193.465L246.365 93.1045L247.715 93.4904L251.19 74.4682L249.8 74.1207L254.867 46.1064C255.084 44.9064 255.034 43.6734 254.72 42.4951C254.406 41.3168 253.836 40.2223 253.05 39.2896C252.265 38.3569 251.283 37.6091 250.175 37.0993C249.067 36.5896 247.861 36.3305 246.641 36.3406L246.639 36.3414Z" fill="#3F3D56"/>
<path d="M191.639 39.4014H184.247C182.124 39.4014 180.064 40.1275 178.411 41.4592C176.757 42.791 175.609 44.6482 175.156 46.7225L144.437 187.515C144.26 188.326 144.26 189.165 144.438 189.975C144.615 190.786 144.965 191.549 145.464 192.212C145.963 192.874 146.599 193.422 147.329 193.816C148.059 194.211 148.866 194.443 149.694 194.497L214.593 198.751C216.424 198.871 218.235 198.312 219.68 197.182C221.126 196.052 222.105 194.429 222.43 192.623L248.642 47.1008C248.812 46.1589 248.773 45.1913 248.528 44.2662C248.282 43.3411 247.837 42.4811 247.223 41.7468C246.61 41.0126 245.842 40.422 244.975 40.0167C244.108 39.6114 243.163 39.4014 242.206 39.4014H235.193C234.514 39.4013 233.854 39.6251 233.315 40.038C232.776 40.4509 232.389 41.0299 232.212 41.6854C232.056 42.2643 231.714 42.7756 231.238 43.1402C230.762 43.5047 230.179 43.7022 229.58 43.702H196.285C195.111 43.702 193.981 43.259 193.119 42.4617C192.258 41.6644 191.73 40.5715 191.639 39.4014Z" fill="white"/>
<path d="M227.517 137.827C227.643 137.832 227.766 137.79 227.865 137.711C227.963 137.632 228.03 137.52 228.053 137.396L242.404 58.1862C242.418 58.1109 242.415 58.0336 242.397 57.9594C242.378 57.8853 242.343 57.8161 242.295 57.7566C242.247 57.6976 242.187 57.6498 242.119 57.6166C242.05 57.5835 241.976 57.5657 241.9 57.5647L176.604 56.7935H176.598C176.479 56.7945 176.364 56.8357 176.272 56.9104C176.18 56.9851 176.116 57.0888 176.091 57.2046L159.172 133.844C159.155 133.918 159.155 133.996 159.171 134.071C159.187 134.146 159.219 134.216 159.265 134.277C159.311 134.338 159.369 134.388 159.436 134.424C159.503 134.46 159.577 134.48 159.653 134.484L227.517 137.827Z" fill="#E6E6E6"/>
<path d="M170.852 142.948C170.793 142.948 170.735 142.968 170.689 143.005C170.642 143.042 170.609 143.094 170.596 143.152L169.984 145.772C169.976 145.809 169.975 145.848 169.983 145.885C169.991 145.922 170.006 145.958 170.029 145.988C170.051 146.019 170.08 146.044 170.113 146.063C170.147 146.081 170.183 146.092 170.221 146.095L204.765 148.55C204.829 148.554 204.892 148.535 204.943 148.496C204.994 148.457 205.029 148.401 205.042 148.338L205.63 145.305C205.637 145.269 205.636 145.231 205.628 145.194C205.619 145.158 205.603 145.124 205.58 145.094C205.557 145.065 205.528 145.04 205.494 145.023C205.461 145.005 205.425 144.995 205.387 144.993L170.868 142.949L170.852 142.948Z" fill="#E6E6E6"/>
<path d="M212.821 158.284C212.883 158.289 212.945 158.272 212.996 158.236C213.047 158.199 213.083 158.146 213.097 158.085L213.846 155.046C213.855 155.009 213.856 154.97 213.849 154.933C213.841 154.895 213.826 154.86 213.803 154.829C213.781 154.798 213.752 154.772 213.718 154.753C213.685 154.735 213.647 154.724 213.609 154.721L169.495 151.636C169.435 151.631 169.375 151.647 169.326 151.681C169.277 151.715 169.241 151.766 169.224 151.823L168.446 154.449C168.435 154.487 168.433 154.526 168.439 154.565C168.445 154.603 168.46 154.64 168.482 154.672C168.504 154.705 168.533 154.732 168.567 154.751C168.601 154.771 168.638 154.783 168.677 154.786L212.821 158.284Z" fill="#E6E6E6"/>
<path d="M210.452 168.024C210.514 168.029 210.576 168.012 210.627 167.975C210.677 167.939 210.713 167.885 210.728 167.825L211.477 164.786C211.486 164.749 211.487 164.71 211.48 164.673C211.472 164.635 211.457 164.599 211.434 164.568C211.412 164.537 211.383 164.512 211.349 164.493C211.316 164.474 211.278 164.463 211.24 164.461L167.126 161.375C167.066 161.371 167.006 161.387 166.957 161.421C166.908 161.455 166.872 161.505 166.855 161.563L166.077 164.189C166.066 164.226 166.064 164.266 166.07 164.304C166.076 164.343 166.09 164.38 166.113 164.412C166.135 164.444 166.164 164.471 166.198 164.491C166.231 164.511 166.269 164.522 166.308 164.526L210.452 168.024Z" fill="#E6E6E6"/>
<path d="M133.967 202.312C133.967 204.515 113.802 204.749 88.9838 206.3C64.1877 207.85 44.001 204.515 44.001 202.312C44.001 200.109 64.2819 195.676 88.9838 198.323C113.802 200.982 133.967 200.109 133.967 202.312Z" fill="#E6E6E6"/>
<path d="M190.134 184.674C190.197 184.68 190.26 184.663 190.312 184.627C190.363 184.59 190.4 184.536 190.414 184.475L191.997 178.144C192.006 178.107 192.008 178.069 192 178.031C191.993 177.994 191.978 177.958 191.956 177.927C191.934 177.896 191.905 177.87 191.872 177.851C191.839 177.832 191.802 177.821 191.764 177.818L164.673 175.539C164.61 175.535 164.547 175.553 164.496 175.591C164.445 175.628 164.409 175.683 164.394 175.744L163.044 181.82C163.036 181.857 163.036 181.895 163.044 181.931C163.051 181.968 163.067 182.002 163.089 182.032C163.11 182.063 163.139 182.088 163.171 182.106C163.204 182.125 163.24 182.136 163.277 182.14L190.134 184.674Z" fill="#6C63FF"/>
<path d="M80.7488 158.876C81.09 158.642 81.3757 158.336 81.5858 157.98C81.796 157.624 81.9255 157.226 81.9652 156.814C82.0049 156.403 81.9538 155.988 81.8156 155.598C81.6774 155.208 81.4554 154.853 81.1653 154.559L82.2621 130.074L76.6777 130.7L77.0023 154.65C76.5392 155.17 76.283 155.842 76.2822 156.538C76.2815 157.234 76.5363 157.907 76.9983 158.428C77.4603 158.949 78.0974 159.282 78.7887 159.364C79.4801 159.447 80.1776 159.272 80.7491 158.875L80.7488 158.876Z" fill="#A0616A"/>
<path d="M90.9365 200.323L94.115 200.882L97.2564 188.888L93.0918 188.063L90.9365 200.323Z" fill="#A0616A"/>
<path d="M99.7276 204.911L89.7383 203.155L90.4168 199.295L96.5466 200.373C97.5702 200.553 98.4804 201.132 99.0769 201.983C99.6734 202.834 99.9075 203.888 99.7275 204.911L99.7276 204.911Z" fill="#2F2E41"/>
<path d="M82.2134 201.914H85.4406L86.9757 189.467H82.2129L82.2134 201.914Z" fill="#A0616A"/>
<path d="M91.6631 204.912L81.5206 204.912L81.5204 200.993L87.7442 200.993C88.7835 200.993 89.7802 201.406 90.5152 202.141C91.2501 202.876 91.663 203.872 91.6631 204.912Z" fill="#2F2E41"/>
<path d="M95.6774 197.453C95.6271 197.453 95.5768 197.45 95.5268 197.444L91.7285 197.131C91.5555 197.111 91.3885 197.056 91.2376 196.969C91.0867 196.882 90.955 196.765 90.8506 196.626C90.7461 196.487 90.6711 196.328 90.63 196.158C90.5889 195.989 90.5826 195.813 90.6116 195.642L94.3823 177.036L92.0133 164.54C91.994 164.438 91.9386 164.347 91.8573 164.283C91.7761 164.219 91.6745 164.187 91.5713 164.192C91.468 164.197 91.3701 164.24 91.2956 164.311C91.2211 164.383 91.1751 164.479 91.1659 164.582L87.6753 196.334C87.6427 196.669 87.4815 196.978 87.2256 197.196C86.9697 197.414 86.6393 197.524 86.3038 197.502L82.7253 197.369C82.4117 197.347 82.1171 197.211 81.8971 196.986C81.6771 196.762 81.547 196.464 81.5312 196.15L81.8171 157.78L100.37 155.461L101.666 175.477L101.661 175.498L96.9248 196.471C96.8567 196.751 96.6968 196.999 96.4706 197.177C96.2445 197.355 95.9652 197.452 95.6774 197.453Z" fill="#2F2E41"/>
<path d="M87.9349 114.209C91.5055 114.209 94.4 111.314 94.4 107.743C94.4 104.173 91.5055 101.278 87.9349 101.278C84.3643 101.278 81.4697 104.173 81.4697 107.743C81.4697 111.314 84.3643 114.209 87.9349 114.209Z" fill="#A0616A"/>
<path d="M94.0266 160.7C93.0155 160.706 92.0237 160.422 91.1688 159.882C88.0363 157.925 84.4799 158.703 82.6383 159.341C82.4555 159.405 82.2607 159.427 82.0683 159.405C81.8759 159.383 81.6909 159.318 81.5272 159.214C81.3654 159.113 81.2287 158.976 81.1274 158.814C81.026 158.652 80.9626 158.469 80.9418 158.279L77.5933 128.37C77.0321 123.358 80.0508 118.647 84.771 117.167C84.9484 117.111 85.1287 117.059 85.3119 117.009C86.7808 116.611 88.3191 116.539 89.8186 116.799C91.3181 117.06 92.7423 117.645 93.9911 118.515C95.2631 119.395 96.327 120.542 97.1077 121.877C97.8884 123.212 98.3671 124.702 98.5099 126.242L101.329 156.352C101.349 156.547 101.322 156.743 101.253 156.926C101.183 157.11 101.071 157.274 100.927 157.407C99.9387 158.32 97.0701 160.7 94.0266 160.7Z" fill="#6C63FF"/>
<path d="M83.8287 134.784L76.274 133.953C76.059 133.929 75.8517 133.86 75.6661 133.749C75.4805 133.638 75.321 133.488 75.1984 133.31C75.0759 133.131 74.9932 132.929 74.956 132.716C74.9188 132.503 74.928 132.284 74.9829 132.075L76.906 124.745C76.9627 124.196 77.1277 123.663 77.3914 123.178C77.6552 122.693 78.0125 122.264 78.4427 121.918C78.8729 121.572 79.3675 121.314 79.8979 121.16C80.4283 121.006 80.9839 120.959 81.5328 121.021C82.0816 121.082 82.6127 121.253 83.0953 121.521C83.578 121.789 84.0027 122.151 84.3449 122.584C84.687 123.018 84.9399 123.515 85.0888 124.047C85.2377 124.579 85.2797 125.135 85.2125 125.683L85.4981 133.231C85.5062 133.447 85.4677 133.663 85.3852 133.863C85.3026 134.063 85.1779 134.242 85.0195 134.39C84.8612 134.537 84.673 134.649 84.4677 134.717C84.2623 134.785 84.0447 134.808 83.8297 134.784L83.8287 134.784Z" fill="#6C63FF"/>
<path d="M101.299 157.827C101.61 157.554 101.856 157.216 102.022 156.837C102.188 156.459 102.268 156.048 102.258 155.635C102.248 155.222 102.147 154.816 101.963 154.445C101.779 154.075 101.516 153.75 101.192 153.492L99.3307 129.054L93.8584 130.286L97.0698 154.085C96.6727 154.657 96.4993 155.355 96.5824 156.046C96.6656 156.737 96.9995 157.374 97.5209 157.836C98.0423 158.297 98.7149 158.551 99.4112 158.549C100.107 158.548 100.779 158.291 101.298 157.827H101.299Z" fill="#A0616A"/>
<path d="M91.7599 133.247C91.6015 133.1 91.4768 132.92 91.3942 132.721C91.3116 132.521 91.2731 132.305 91.2814 132.089L91.567 124.541C91.5054 123.996 91.5518 123.444 91.7037 122.916C91.8555 122.389 92.1097 121.896 92.4518 121.467C92.7939 121.038 93.2172 120.68 93.6976 120.415C94.1779 120.149 94.7058 119.981 95.2512 119.919C95.7966 119.857 96.3488 119.904 96.8763 120.056C97.4038 120.207 97.8961 120.462 98.3254 120.804C98.7546 121.146 99.1122 121.569 99.3778 122.05C99.6434 122.53 99.8118 123.058 99.8734 123.603L101.797 130.933C101.851 131.142 101.861 131.361 101.823 131.574C101.786 131.787 101.704 131.989 101.581 132.168C101.458 132.346 101.299 132.496 101.113 132.607C100.928 132.718 100.72 132.787 100.505 132.811L92.9508 133.642C92.7357 133.665 92.5181 133.642 92.3127 133.574C92.1074 133.506 91.9192 133.394 91.761 133.247L91.7599 133.247Z" fill="#6C63FF"/>
<path d="M87.5505 114.452C87.4353 114.452 87.3204 114.438 87.2083 114.412L87.1754 114.404C81.4912 113.535 80.2348 110.242 79.9592 108.867C79.6739 107.443 79.9987 106.069 80.7331 105.536C80.3328 104.272 80.397 103.151 80.9245 102.203C81.8458 100.55 83.8413 99.9915 84.1096 99.922C85.7042 98.7456 87.6121 99.5309 87.9593 99.6901C91.0441 98.549 92.2236 99.4987 92.4363 99.7109C93.8151 99.9586 94.6555 100.491 94.9346 101.294C95.4587 102.803 93.8014 104.68 93.7306 104.759L93.6937 104.8L91.2246 104.918C90.9903 104.929 90.761 104.989 90.5515 105.095C90.342 105.2 90.1571 105.348 90.0086 105.53C89.8602 105.712 89.7516 105.922 89.6898 106.149C89.6281 106.375 89.6146 106.612 89.6503 106.844C89.7171 107.143 89.8014 107.438 89.903 107.727C90.3241 109.044 90.64 110.17 90.233 110.598C90.1407 110.681 90.027 110.736 89.9048 110.757C89.7826 110.779 89.6569 110.765 89.5421 110.718C89.1559 110.615 88.894 110.636 88.7634 110.783C88.5608 111.009 88.6226 111.581 88.9377 112.395C89.0366 112.652 89.0632 112.931 89.0146 113.203C88.9661 113.474 88.8443 113.727 88.6624 113.934C88.5254 114.095 88.355 114.225 88.163 114.315C87.9709 114.404 87.7618 114.451 87.55 114.452H87.5505Z" fill="#2F2E41"/>
</svg>
