<svg width="300" height="243" viewBox="0 0 300 243" fill="none" xmlns="http://www.w3.org/2000/svg">
<g clip-path="url(#clip0_2146_1340)">
<path d="M72.2825 144.019C79.9467 144.019 86.1597 137.846 86.1597 130.232C86.1597 122.617 79.9467 116.444 72.2825 116.444C64.6183 116.444 58.4053 122.617 58.4053 130.232C58.4053 137.846 64.6183 144.019 72.2825 144.019Z" fill="#FF6584"/>
<path d="M100.702 208.108H100.688C100.199 208.108 99.7307 207.915 99.3852 207.572C99.0396 207.228 98.8453 206.763 98.8447 206.277V98.7794C98.8453 98.2939 99.0396 97.8285 99.3852 97.4852C99.7307 97.1419 100.199 96.9488 100.688 96.9482H191.757C192.246 96.9488 192.714 97.1419 193.06 97.4852C193.405 97.8285 193.6 98.2939 193.6 98.7794V182.365C193.6 182.848 193.407 183.311 193.065 183.654C192.722 183.997 192.258 184.192 191.771 184.196L100.702 208.108Z" fill="#F2F2F2"/>
<path d="M168.014 81.7611H125.731V57.4178C125.732 56.9038 125.938 56.411 126.304 56.0475C126.67 55.6841 127.166 55.4796 127.683 55.479H166.062C166.58 55.4796 167.076 55.6841 167.441 56.0475C167.807 56.411 168.013 56.9038 168.014 57.4178V81.7611ZM126.165 81.3302H167.58V57.4178C167.58 57.018 167.419 56.6347 167.135 56.352C166.85 56.0693 166.465 55.9103 166.062 55.9099H127.683C127.281 55.9103 126.895 56.0693 126.61 56.352C126.326 56.6347 126.166 57.018 126.165 57.4178V81.3302Z" fill="#3F3D56"/>
<path d="M137.766 64.7422H155.98C156.44 64.7422 156.881 64.9238 157.206 65.247C157.532 65.5702 157.714 66.0085 157.714 66.4656V92.3168H136.031V66.4656C136.031 66.0085 136.214 65.5702 136.539 65.247C136.865 64.9238 137.306 64.7422 137.766 64.7422Z" fill="#E6E6E6"/>
<path d="M141.343 55.9096H132.453V47.0771C132.453 46.7916 132.568 46.5178 132.771 46.3158C132.974 46.1139 133.25 46.0003 133.537 46H140.259C140.547 46.0003 140.822 46.1139 141.025 46.3158C141.229 46.5178 141.343 46.7916 141.343 47.0771V55.9096ZM132.887 55.4788H140.91V47.0771C140.909 46.9058 140.841 46.7415 140.719 46.6204C140.597 46.4992 140.432 46.431 140.259 46.4309H133.537C133.365 46.431 133.199 46.4992 133.078 46.6204C132.956 46.7415 132.887 46.9058 132.887 47.0771V55.4788Z" fill="#3F3D56"/>
<path d="M214.396 185.778C214.31 185.778 214.225 185.778 214.139 185.775C208.775 185.717 203.617 183.713 199.634 180.143C199.487 180.01 199.341 179.875 199.196 179.738L199.129 179.674V138.387L199.15 138.344C199.293 138.041 199.439 137.743 199.584 137.445C204.094 128.348 209.355 123.338 214.396 123.338C221.666 123.338 227.305 133.247 230.019 139.153C233.793 147.366 236.428 157.543 236.428 163.901C236.427 169.661 234.139 175.189 230.061 179.284C225.984 183.379 220.445 185.712 214.648 185.776C214.567 185.778 214.48 185.778 214.396 185.778ZM199.563 179.49C199.683 179.602 199.804 179.714 199.925 179.823C203.83 183.324 208.888 185.287 214.147 185.345C214.235 185.347 214.318 185.344 214.402 185.347C214.48 185.347 214.561 185.347 214.64 185.345C226.416 185.215 235.995 175.595 235.995 163.901C235.995 157.598 233.375 147.494 229.624 139.332C226.954 133.52 221.424 123.769 214.396 123.769C209.529 123.769 204.407 128.693 199.974 137.634C199.837 137.916 199.699 138.198 199.563 138.484L199.563 179.49Z" fill="#3F3D56"/>
<path d="M214.395 211.898C214.329 211.898 214.265 211.872 214.219 211.825C214.172 211.779 214.146 211.716 214.146 211.65V161.053C214.145 161.02 214.152 160.988 214.164 160.958C214.177 160.927 214.195 160.9 214.218 160.877C214.241 160.854 214.269 160.835 214.299 160.823C214.33 160.81 214.362 160.804 214.395 160.804C214.428 160.804 214.46 160.81 214.491 160.823C214.521 160.835 214.549 160.854 214.572 160.877C214.595 160.9 214.613 160.927 214.626 160.958C214.638 160.988 214.645 161.02 214.644 161.053V211.65C214.644 211.716 214.618 211.779 214.571 211.825C214.525 211.872 214.461 211.898 214.395 211.898Z" fill="#CCCCCC"/>
<path d="M84.9467 211.898C84.8806 211.898 84.8171 211.872 84.7703 211.825C84.7236 211.779 84.6973 211.716 84.6973 211.65V161.053C84.6971 161.02 84.7034 160.988 84.7158 160.958C84.7283 160.927 84.7466 160.9 84.7698 160.877C84.793 160.854 84.8206 160.835 84.8509 160.823C84.8813 160.81 84.9138 160.804 84.9467 160.804C84.9796 160.804 85.0122 160.81 85.0425 160.823C85.0729 160.835 85.1005 160.854 85.1237 160.877C85.1468 160.9 85.1652 160.927 85.1776 160.958C85.1901 160.988 85.1964 161.02 85.1962 161.053V211.65C85.1962 211.716 85.1699 211.779 85.1231 211.825C85.0763 211.872 85.0129 211.898 84.9467 211.898Z" fill="#CCCCCC"/>
<path d="M214.396 170.506C214.36 170.506 214.324 170.499 214.292 170.484C214.259 170.469 214.23 170.448 214.207 170.421L201.66 156.045C201.617 155.995 201.596 155.931 201.6 155.865C201.605 155.8 201.636 155.739 201.686 155.696C201.736 155.653 201.801 155.631 201.867 155.636C201.932 155.64 201.994 155.671 202.037 155.72L214.584 170.096C214.615 170.132 214.636 170.176 214.642 170.223C214.649 170.27 214.642 170.318 214.622 170.361C214.603 170.404 214.571 170.441 214.53 170.467C214.49 170.492 214.443 170.506 214.396 170.506Z" fill="#CCCCCC"/>
<path d="M214.395 178.803C214.346 178.802 214.297 178.788 214.256 178.761C214.215 178.733 214.183 178.695 214.164 178.649C214.146 178.604 214.141 178.554 214.15 178.506C214.16 178.458 214.184 178.414 214.219 178.379L221.348 171.296C221.395 171.25 221.458 171.224 221.524 171.224C221.59 171.224 221.653 171.25 221.7 171.297C221.747 171.343 221.773 171.406 221.773 171.472C221.773 171.537 221.747 171.6 221.701 171.647L214.571 178.73C214.548 178.753 214.521 178.771 214.49 178.784C214.46 178.796 214.428 178.803 214.395 178.803Z" fill="#CCCCCC"/>
<path d="M237.477 212H218.828V211.784C218.828 210.568 219.068 209.362 219.537 208.238C220.005 207.114 220.692 206.092 221.558 205.231C222.423 204.37 223.452 203.688 224.583 203.222C225.715 202.756 226.928 202.516 228.152 202.516C229.377 202.516 230.59 202.756 231.722 203.222C232.853 203.688 233.881 204.37 234.747 205.231C235.613 206.092 236.3 207.114 236.768 208.238C237.237 209.362 237.477 210.568 237.477 211.784L237.477 212ZM219.264 211.569H237.041C236.984 209.264 236.023 207.073 234.362 205.463C232.701 203.853 230.473 202.951 228.152 202.951C225.832 202.951 223.604 203.853 221.943 205.463C220.282 207.073 219.321 209.264 219.264 211.569Z" fill="#3F3D56"/>
<path d="M228.152 206.527C228.086 206.527 228.024 206.553 227.977 206.598C227.931 206.644 227.905 206.707 227.905 206.771V209.369L225.358 207.197C225.334 207.176 225.305 207.16 225.274 207.15C225.244 207.14 225.211 207.136 225.179 207.139C225.147 207.141 225.115 207.15 225.086 207.164C225.057 207.179 225.032 207.199 225.011 207.223C224.989 207.247 224.973 207.276 224.963 207.306C224.953 207.337 224.949 207.369 224.952 207.401C224.954 207.433 224.963 207.465 224.978 207.493C224.993 207.522 225.013 207.547 225.037 207.568L227.905 210.014V211.54C227.905 211.572 227.912 211.604 227.924 211.634C227.936 211.664 227.954 211.691 227.977 211.714C228 211.736 228.027 211.754 228.057 211.767C228.087 211.779 228.119 211.785 228.152 211.785C228.184 211.785 228.216 211.779 228.246 211.767C228.276 211.754 228.303 211.736 228.326 211.714C228.349 211.691 228.367 211.664 228.379 211.634C228.392 211.604 228.398 211.572 228.398 211.54V206.771C228.398 206.707 228.372 206.644 228.326 206.598C228.279 206.553 228.217 206.527 228.152 206.527Z" fill="#3F3D56"/>
<path d="M81.1408 212H62.4922V211.784C62.4916 210.568 62.7323 209.362 63.2007 208.238C63.669 207.114 64.3557 206.092 65.2216 205.231C66.0875 204.37 67.1156 203.688 68.2472 203.222C69.3788 202.756 70.5916 202.516 71.8165 202.516C73.0414 202.516 74.2542 202.756 75.3858 203.222C76.5174 203.688 77.5455 204.37 78.4114 205.231C79.2773 206.092 79.964 207.114 80.4323 208.238C80.9007 209.362 81.1414 210.568 81.1408 211.784L81.1408 212ZM62.9285 211.569H80.7046C80.648 209.264 79.6867 207.073 78.0261 205.463C76.3654 203.853 74.1369 202.951 71.8165 202.951C69.4961 202.951 67.2676 203.853 65.607 205.463C63.9463 207.073 62.985 209.264 62.9285 211.569Z" fill="#3F3D56"/>
<path d="M71.8166 206.527C71.7513 206.527 71.6887 206.553 71.6425 206.598C71.5964 206.644 71.5704 206.707 71.5704 206.771V209.369L69.0232 207.197C68.9987 207.176 68.9702 207.16 68.9395 207.15C68.9087 207.14 68.8763 207.136 68.844 207.139C68.8117 207.141 68.7802 207.15 68.7513 207.164C68.7224 207.179 68.6967 207.199 68.6756 207.223C68.6545 207.247 68.6385 207.276 68.6284 207.306C68.6183 207.337 68.6144 207.369 68.6169 207.401C68.6194 207.433 68.6283 207.465 68.643 207.493C68.6576 207.522 68.6779 207.547 68.7025 207.568L71.5704 210.014V211.54C71.5703 211.572 71.5766 211.604 71.5889 211.634C71.6013 211.664 71.6194 211.691 71.6423 211.714C71.6651 211.736 71.6923 211.754 71.7222 211.767C71.7521 211.779 71.7842 211.785 71.8166 211.785C71.849 211.785 71.881 211.779 71.9109 211.767C71.9409 211.754 71.968 211.736 71.9909 211.714C72.0138 211.691 72.0319 211.664 72.0442 211.634C72.0565 211.604 72.0628 211.572 72.0627 211.54V206.771C72.0627 206.707 72.0368 206.644 71.9906 206.598C71.9445 206.553 71.8819 206.527 71.8166 206.527Z" fill="#3F3D56"/>
<path d="M85.1643 185.778C85.0779 185.778 84.9938 185.778 84.9074 185.775C79.1104 185.71 73.573 183.377 69.4962 179.282C65.4194 175.188 63.1319 169.661 63.1299 163.901C63.1299 157.542 65.7657 147.366 69.5398 139.153C72.2539 133.247 77.8928 123.338 85.1643 123.338C88.1595 123.338 91.1754 125.034 94.1285 128.38C94.275 128.544 94.4217 128.714 94.5664 128.888L94.616 128.948V183.664L94.4937 183.722C94.3478 183.793 94.1997 183.859 94.0517 183.922C91.3305 185.119 88.3916 185.749 85.416 185.776C85.335 185.778 85.2485 185.778 85.1643 185.778ZM85.1643 123.769C78.1353 123.769 72.6051 133.52 69.9342 139.332C66.1833 147.494 63.5635 157.598 63.5635 163.901C63.5635 175.593 73.1419 185.213 84.9152 185.345C85.0029 185.347 85.0848 185.348 85.1701 185.347C85.2488 185.347 85.3295 185.347 85.4081 185.345C88.3266 185.319 91.2089 184.701 93.8778 183.528C93.9802 183.484 94.0817 183.439 94.1823 183.392V129.103C94.0568 128.954 93.9298 128.807 93.8029 128.664C90.9354 125.416 88.0291 123.769 85.1643 123.769Z" fill="#3F3D56"/>
<path d="M85.1641 170.506C85.1284 170.506 85.093 170.499 85.0605 170.484C85.0279 170.469 84.9989 170.448 84.9755 170.421L72.4288 156.045C72.3856 155.995 72.3641 155.931 72.3688 155.865C72.3736 155.8 72.4043 155.739 72.4542 155.696C72.5041 155.653 72.5692 155.631 72.6351 155.636C72.701 155.64 72.7624 155.671 72.8058 155.72L85.3525 170.096C85.3838 170.132 85.4041 170.176 85.4109 170.223C85.4177 170.27 85.4108 170.318 85.391 170.361C85.3711 170.404 85.3392 170.441 85.299 170.467C85.2588 170.492 85.212 170.506 85.1641 170.506Z" fill="#CCCCCC"/>
<path d="M85.1635 178.803C85.1142 178.802 85.0659 178.788 85.0249 178.761C84.9839 178.733 84.9519 178.695 84.933 178.649C84.9142 178.604 84.9092 178.554 84.9189 178.506C84.9285 178.458 84.9522 178.414 84.9871 178.379L92.1164 171.296C92.1632 171.25 92.2266 171.224 92.2926 171.224C92.3586 171.224 92.422 171.25 92.4686 171.297C92.5153 171.343 92.5416 171.406 92.5417 171.472C92.5418 171.537 92.5157 171.6 92.4691 171.647L85.3399 178.73C85.3168 178.753 85.2893 178.771 85.259 178.784C85.2287 178.796 85.1963 178.803 85.1635 178.803Z" fill="#CCCCCC"/>
<path d="M104.755 83.4843L104.916 83.7989C104.987 83.9346 105.024 84.0853 105.024 84.2383V92.7477H112.613V84.2383C112.613 84.0853 112.651 83.9346 112.722 83.7989L112.882 83.4843H104.755ZM112.18 84.2383V92.3168H105.458V84.2383C105.458 84.1295 105.445 84.021 105.419 83.9152H112.219C112.193 84.021 112.18 84.1295 112.18 84.2383ZM114.296 83.4843L114.456 83.7989C114.528 83.9346 114.565 84.0853 114.565 84.2383V92.7477H122.154V84.2383C122.154 84.0853 122.191 83.9346 122.262 83.7989L122.423 83.4843H114.296ZM121.72 84.2383V92.3168H114.998V84.2383C114.999 84.1295 114.985 84.021 114.959 83.9152H121.759C121.733 84.021 121.72 84.1295 121.72 84.2383ZM123.836 83.4843L123.997 83.7989C124.068 83.9346 124.105 84.0853 124.105 84.2383V92.7477H131.695V84.2383C131.695 84.0853 131.732 83.9346 131.803 83.7989L131.963 83.4843H123.836ZM131.261 84.2383V92.3168H124.539V84.2383C124.539 84.1295 124.526 84.021 124.5 83.9152H131.3C131.274 84.021 131.261 84.1295 131.261 84.2383ZM133.377 83.4843L133.538 83.7989C133.609 83.9346 133.646 84.0853 133.646 84.2383V92.7477H141.235V84.2383C141.235 84.0853 141.272 83.9346 141.344 83.7989L141.504 83.4843H133.377ZM140.801 84.2383V92.3168H134.08V84.2383C134.08 84.1295 134.067 84.021 134.041 83.9152H140.841C140.814 84.021 140.801 84.1295 140.801 84.2383ZM142.918 83.4843L143.078 83.7989C143.149 83.9346 143.186 84.0853 143.187 84.2383V92.7477H150.776V84.2383C150.776 84.0853 150.813 83.9346 150.884 83.7989L151.045 83.4843H142.918ZM150.342 84.2383V92.3168H143.62V84.2383C143.62 84.1295 143.607 84.021 143.581 83.9152H150.381C150.355 84.021 150.342 84.1295 150.342 84.2383ZM152.458 83.4843L152.619 83.7989C152.69 83.9346 152.727 84.0853 152.727 84.2383V92.7477H160.316V84.2383C160.316 84.0853 160.354 83.9346 160.425 83.7989L160.585 83.4843H152.458ZM159.883 84.2383V92.3168H153.161V84.2383C153.161 84.1295 153.148 84.021 153.122 83.9152H159.922C159.896 84.021 159.883 84.1295 159.883 84.2383ZM161.999 83.4843L162.159 83.7989C162.23 83.9346 162.268 84.0853 162.268 84.2383V92.7477H169.857V84.2383C169.857 84.0853 169.894 83.9346 169.965 83.7989L170.126 83.4843H161.999ZM169.423 84.2383V92.3168H162.701V84.2383C162.702 84.1295 162.688 84.021 162.662 83.9152H169.462C169.436 84.021 169.423 84.1295 169.423 84.2383ZM171.539 83.4843L171.7 83.7989C171.771 83.9346 171.808 84.0853 171.808 84.2383V92.7477H179.397V84.2383C179.398 84.0853 179.435 83.9346 179.506 83.7989L179.666 83.4843H171.539ZM178.964 84.2383V92.3168H172.242V84.2383C172.242 84.1295 172.229 84.021 172.203 83.9152H179.003C178.977 84.021 178.964 84.1295 178.964 84.2383ZM181.08 83.4843L181.241 83.7989C181.312 83.9346 181.349 84.0853 181.349 84.2383V92.7477H188.938V84.2383C188.938 84.0853 188.975 83.9346 189.046 83.7989L189.207 83.4843H181.08ZM188.504 84.2383V92.3168H181.783V84.2383C181.783 84.1295 181.77 84.021 181.744 83.9152H188.543C188.517 84.021 188.504 84.1295 188.504 84.2383ZM181.08 83.4843L181.241 83.7989C181.312 83.9346 181.349 84.0853 181.349 84.2383V92.7477H188.938V84.2383C188.938 84.0853 188.975 83.9346 189.046 83.7989L189.207 83.4843H181.08ZM188.504 84.2383V92.3168H181.783V84.2383C181.783 84.1295 181.77 84.021 181.744 83.9152H188.543C188.517 84.021 188.504 84.1295 188.504 84.2383ZM171.539 83.4843L171.7 83.7989C171.771 83.9346 171.808 84.0853 171.808 84.2383V92.7477H179.397V84.2383C179.398 84.0853 179.435 83.9346 179.506 83.7989L179.666 83.4843H171.539ZM178.964 84.2383V92.3168H172.242V84.2383C172.242 84.1295 172.229 84.021 172.203 83.9152H179.003C178.977 84.021 178.964 84.1295 178.964 84.2383ZM161.999 83.4843L162.159 83.7989C162.23 83.9346 162.268 84.0853 162.268 84.2383V92.7477H169.857V84.2383C169.857 84.0853 169.894 83.9346 169.965 83.7989L170.126 83.4843H161.999ZM169.423 84.2383V92.3168H162.701V84.2383C162.702 84.1295 162.688 84.021 162.662 83.9152H169.462C169.436 84.021 169.423 84.1295 169.423 84.2383ZM152.458 83.4843L152.619 83.7989C152.69 83.9346 152.727 84.0853 152.727 84.2383V92.7477H160.316V84.2383C160.316 84.0853 160.354 83.9346 160.425 83.7989L160.585 83.4843H152.458ZM159.883 84.2383V92.3168H153.161V84.2383C153.161 84.1295 153.148 84.021 153.122 83.9152H159.922C159.896 84.021 159.883 84.1295 159.883 84.2383ZM142.918 83.4843L143.078 83.7989C143.149 83.9346 143.186 84.0853 143.187 84.2383V92.7477H150.776V84.2383C150.776 84.0853 150.813 83.9346 150.884 83.7989L151.045 83.4843H142.918ZM150.342 84.2383V92.3168H143.62V84.2383C143.62 84.1295 143.607 84.021 143.581 83.9152H150.381C150.355 84.021 150.342 84.1295 150.342 84.2383ZM133.377 83.4843L133.538 83.7989C133.609 83.9346 133.646 84.0853 133.646 84.2383V92.7477H141.235V84.2383C141.235 84.0853 141.272 83.9346 141.344 83.7989L141.504 83.4843H133.377ZM140.801 84.2383V92.3168H134.08V84.2383C134.08 84.1295 134.067 84.021 134.041 83.9152H140.841C140.814 84.021 140.801 84.1295 140.801 84.2383ZM123.836 83.4843L123.997 83.7989C124.068 83.9346 124.105 84.0853 124.105 84.2383V92.7477H131.695V84.2383C131.695 84.0853 131.732 83.9346 131.803 83.7989L131.963 83.4843H123.836ZM131.261 84.2383V92.3168H124.539V84.2383C124.539 84.1295 124.526 84.021 124.5 83.9152H131.3C131.274 84.021 131.261 84.1295 131.261 84.2383ZM114.296 83.4843L114.456 83.7989C114.528 83.9346 114.565 84.0853 114.565 84.2383V92.7477H122.154V84.2383C122.154 84.0853 122.191 83.9346 122.262 83.7989L122.423 83.4843H114.296ZM121.72 84.2383V92.3168H114.998V84.2383C114.999 84.1295 114.985 84.021 114.959 83.9152H121.759C121.733 84.021 121.72 84.1295 121.72 84.2383ZM104.755 83.4843L104.916 83.7989C104.987 83.9346 105.024 84.0853 105.024 84.2383V92.7477H112.613V84.2383C112.613 84.0853 112.651 83.9346 112.722 83.7989L112.882 83.4843H104.755ZM112.18 84.2383V92.3168H105.458V84.2383C105.458 84.1295 105.445 84.021 105.419 83.9152H112.219C112.193 84.021 112.18 84.1295 112.18 84.2383ZM181.08 83.4843L181.241 83.7989C181.312 83.9346 181.349 84.0853 181.349 84.2383V92.7477H188.938V84.2383C188.938 84.0853 188.975 83.9346 189.046 83.7989L189.207 83.4843H181.08ZM188.504 84.2383V92.3168H181.783V84.2383C181.783 84.1295 181.77 84.021 181.744 83.9152H188.543C188.517 84.021 188.504 84.1295 188.504 84.2383ZM171.539 83.4843L171.7 83.7989C171.771 83.9346 171.808 84.0853 171.808 84.2383V92.7477H179.397V84.2383C179.398 84.0853 179.435 83.9346 179.506 83.7989L179.666 83.4843H171.539ZM178.964 84.2383V92.3168H172.242V84.2383C172.242 84.1295 172.229 84.021 172.203 83.9152H179.003C178.977 84.021 178.964 84.1295 178.964 84.2383ZM161.999 83.4843L162.159 83.7989C162.23 83.9346 162.268 84.0853 162.268 84.2383V92.7477H169.857V84.2383C169.857 84.0853 169.894 83.9346 169.965 83.7989L170.126 83.4843H161.999ZM169.423 84.2383V92.3168H162.701V84.2383C162.702 84.1295 162.688 84.021 162.662 83.9152H169.462C169.436 84.021 169.423 84.1295 169.423 84.2383ZM152.458 83.4843L152.619 83.7989C152.69 83.9346 152.727 84.0853 152.727 84.2383V92.7477H160.316V84.2383C160.316 84.0853 160.354 83.9346 160.425 83.7989L160.585 83.4843H152.458ZM159.883 84.2383V92.3168H153.161V84.2383C153.161 84.1295 153.148 84.021 153.122 83.9152H159.922C159.896 84.021 159.883 84.1295 159.883 84.2383ZM142.918 83.4843L143.078 83.7989C143.149 83.9346 143.186 84.0853 143.187 84.2383V92.7477H150.776V84.2383C150.776 84.0853 150.813 83.9346 150.884 83.7989L151.045 83.4843H142.918ZM150.342 84.2383V92.3168H143.62V84.2383C143.62 84.1295 143.607 84.021 143.581 83.9152H150.381C150.355 84.021 150.342 84.1295 150.342 84.2383ZM133.377 83.4843L133.538 83.7989C133.609 83.9346 133.646 84.0853 133.646 84.2383V92.7477H141.235V84.2383C141.235 84.0853 141.272 83.9346 141.344 83.7989L141.504 83.4843H133.377ZM140.801 84.2383V92.3168H134.08V84.2383C134.08 84.1295 134.067 84.021 134.041 83.9152H140.841C140.814 84.021 140.801 84.1295 140.801 84.2383ZM123.836 83.4843L123.997 83.7989C124.068 83.9346 124.105 84.0853 124.105 84.2383V92.7477H131.695V84.2383C131.695 84.0853 131.732 83.9346 131.803 83.7989L131.963 83.4843H123.836ZM131.261 84.2383V92.3168H124.539V84.2383C124.539 84.1295 124.526 84.021 124.5 83.9152H131.3C131.274 84.021 131.261 84.1295 131.261 84.2383ZM114.296 83.4843L114.456 83.7989C114.528 83.9346 114.565 84.0853 114.565 84.2383V92.7477H122.154V84.2383C122.154 84.0853 122.191 83.9346 122.262 83.7989L122.423 83.4843H114.296ZM121.72 84.2383V92.3168H114.998V84.2383C114.999 84.1295 114.985 84.021 114.959 83.9152H121.759C121.733 84.021 121.72 84.1295 121.72 84.2383ZM104.755 83.4843L104.916 83.7989C104.987 83.9346 105.024 84.0853 105.024 84.2383V92.7477H112.613V84.2383C112.613 84.0853 112.651 83.9346 112.722 83.7989L112.882 83.4843H104.755ZM112.18 84.2383V92.3168H105.458V84.2383C105.458 84.1295 105.445 84.021 105.419 83.9152H112.219C112.193 84.021 112.18 84.1295 112.18 84.2383ZM181.08 83.4843L181.241 83.7989C181.312 83.9346 181.349 84.0853 181.349 84.2383V92.7477H188.938V84.2383C188.938 84.0853 188.975 83.9346 189.046 83.7989L189.207 83.4843H181.08ZM188.504 84.2383V92.3168H181.783V84.2383C181.783 84.1295 181.77 84.021 181.744 83.9152H188.543C188.517 84.021 188.504 84.1295 188.504 84.2383ZM171.539 83.4843L171.7 83.7989C171.771 83.9346 171.808 84.0853 171.808 84.2383V92.7477H179.397V84.2383C179.398 84.0853 179.435 83.9346 179.506 83.7989L179.666 83.4843H171.539ZM178.964 84.2383V92.3168H172.242V84.2383C172.242 84.1295 172.229 84.021 172.203 83.9152H179.003C178.977 84.021 178.964 84.1295 178.964 84.2383ZM161.999 83.4843L162.159 83.7989C162.23 83.9346 162.268 84.0853 162.268 84.2383V92.7477H169.857V84.2383C169.857 84.0853 169.894 83.9346 169.965 83.7989L170.126 83.4843H161.999ZM169.423 84.2383V92.3168H162.701V84.2383C162.702 84.1295 162.688 84.021 162.662 83.9152H169.462C169.436 84.021 169.423 84.1295 169.423 84.2383ZM152.458 83.4843L152.619 83.7989C152.69 83.9346 152.727 84.0853 152.727 84.2383V92.7477H160.316V84.2383C160.316 84.0853 160.354 83.9346 160.425 83.7989L160.585 83.4843H152.458ZM159.883 84.2383V92.3168H153.161V84.2383C153.161 84.1295 153.148 84.021 153.122 83.9152H159.922C159.896 84.021 159.883 84.1295 159.883 84.2383ZM142.918 83.4843L143.078 83.7989C143.149 83.9346 143.186 84.0853 143.187 84.2383V92.7477H150.776V84.2383C150.776 84.0853 150.813 83.9346 150.884 83.7989L151.045 83.4843H142.918ZM150.342 84.2383V92.3168H143.62V84.2383C143.62 84.1295 143.607 84.021 143.581 83.9152H150.381C150.355 84.021 150.342 84.1295 150.342 84.2383ZM133.377 83.4843L133.538 83.7989C133.609 83.9346 133.646 84.0853 133.646 84.2383V92.7477H141.235V84.2383C141.235 84.0853 141.272 83.9346 141.344 83.7989L141.504 83.4843H133.377ZM140.801 84.2383V92.3168H134.08V84.2383C134.08 84.1295 134.067 84.021 134.041 83.9152H140.841C140.814 84.021 140.801 84.1295 140.801 84.2383ZM123.836 83.4843L123.997 83.7989C124.068 83.9346 124.105 84.0853 124.105 84.2383V92.7477H131.695V84.2383C131.695 84.0853 131.732 83.9346 131.803 83.7989L131.963 83.4843H123.836ZM131.261 84.2383V92.3168H124.539V84.2383C124.539 84.1295 124.526 84.021 124.5 83.9152H131.3C131.274 84.021 131.261 84.1295 131.261 84.2383ZM114.296 83.4843L114.456 83.7989C114.528 83.9346 114.565 84.0853 114.565 84.2383V92.7477H122.154V84.2383C122.154 84.0853 122.191 83.9346 122.262 83.7989L122.423 83.4843H114.296ZM121.72 84.2383V92.3168H114.998V84.2383C114.999 84.1295 114.985 84.021 114.959 83.9152H121.759C121.733 84.021 121.72 84.1295 121.72 84.2383ZM104.755 83.4843L104.916 83.7989C104.987 83.9346 105.024 84.0853 105.024 84.2383V92.7477H112.613V84.2383C112.613 84.0853 112.651 83.9346 112.722 83.7989L112.882 83.4843H104.755ZM112.18 84.2383V92.3168H105.458V84.2383C105.458 84.1295 105.445 84.021 105.419 83.9152H112.219C112.193 84.021 112.18 84.1295 112.18 84.2383ZM181.08 83.4843L181.241 83.7989C181.312 83.9346 181.349 84.0853 181.349 84.2383V92.7477H188.938V84.2383C188.938 84.0853 188.975 83.9346 189.046 83.7989L189.207 83.4843H181.08ZM188.504 84.2383V92.3168H181.783V84.2383C181.783 84.1295 181.77 84.021 181.744 83.9152H188.543C188.517 84.021 188.504 84.1295 188.504 84.2383ZM171.539 83.4843L171.7 83.7989C171.771 83.9346 171.808 84.0853 171.808 84.2383V92.7477H179.397V84.2383C179.398 84.0853 179.435 83.9346 179.506 83.7989L179.666 83.4843H171.539ZM178.964 84.2383V92.3168H172.242V84.2383C172.242 84.1295 172.229 84.021 172.203 83.9152H179.003C178.977 84.021 178.964 84.1295 178.964 84.2383ZM161.999 83.4843L162.159 83.7989C162.23 83.9346 162.268 84.0853 162.268 84.2383V92.7477H169.857V84.2383C169.857 84.0853 169.894 83.9346 169.965 83.7989L170.126 83.4843H161.999ZM169.423 84.2383V92.3168H162.701V84.2383C162.702 84.1295 162.688 84.021 162.662 83.9152H169.462C169.436 84.021 169.423 84.1295 169.423 84.2383ZM152.458 83.4843L152.619 83.7989C152.69 83.9346 152.727 84.0853 152.727 84.2383V92.7477H160.316V84.2383C160.316 84.0853 160.354 83.9346 160.425 83.7989L160.585 83.4843H152.458ZM159.883 84.2383V92.3168H153.161V84.2383C153.161 84.1295 153.148 84.021 153.122 83.9152H159.922C159.896 84.021 159.883 84.1295 159.883 84.2383ZM142.918 83.4843L143.078 83.7989C143.149 83.9346 143.186 84.0853 143.187 84.2383V92.7477H150.776V84.2383C150.776 84.0853 150.813 83.9346 150.884 83.7989L151.045 83.4843H142.918ZM150.342 84.2383V92.3168H143.62V84.2383C143.62 84.1295 143.607 84.021 143.581 83.9152H150.381C150.355 84.021 150.342 84.1295 150.342 84.2383ZM133.377 83.4843L133.538 83.7989C133.609 83.9346 133.646 84.0853 133.646 84.2383V92.7477H141.235V84.2383C141.235 84.0853 141.272 83.9346 141.344 83.7989L141.504 83.4843H133.377ZM140.801 84.2383V92.3168H134.08V84.2383C134.08 84.1295 134.067 84.021 134.041 83.9152H140.841C140.814 84.021 140.801 84.1295 140.801 84.2383ZM123.836 83.4843L123.997 83.7989C124.068 83.9346 124.105 84.0853 124.105 84.2383V92.7477H131.695V84.2383C131.695 84.0853 131.732 83.9346 131.803 83.7989L131.963 83.4843H123.836ZM131.261 84.2383V92.3168H124.539V84.2383C124.539 84.1295 124.526 84.021 124.5 83.9152H131.3C131.274 84.021 131.261 84.1295 131.261 84.2383ZM114.296 83.4843L114.456 83.7989C114.528 83.9346 114.565 84.0853 114.565 84.2383V92.7477H122.154V84.2383C122.154 84.0853 122.191 83.9346 122.262 83.7989L122.423 83.4843H114.296ZM121.72 84.2383V92.3168H114.998V84.2383C114.999 84.1295 114.985 84.021 114.959 83.9152H121.759C121.733 84.021 121.72 84.1295 121.72 84.2383ZM104.755 83.4843L104.916 83.7989C104.987 83.9346 105.024 84.0853 105.024 84.2383V92.7477H112.613V84.2383C112.613 84.0853 112.651 83.9346 112.722 83.7989L112.882 83.4843H104.755ZM112.18 84.2383V92.3168H105.458V84.2383C105.458 84.1295 105.445 84.021 105.419 83.9152H112.219C112.193 84.021 112.18 84.1295 112.18 84.2383ZM181.08 83.4843L181.241 83.7989C181.312 83.9346 181.349 84.0853 181.349 84.2383V92.7477H188.938V84.2383C188.938 84.0853 188.975 83.9346 189.046 83.7989L189.207 83.4843H181.08ZM188.504 84.2383V92.3168H181.783V84.2383C181.783 84.1295 181.77 84.021 181.744 83.9152H188.543C188.517 84.021 188.504 84.1295 188.504 84.2383ZM171.7 83.7989C171.771 83.9346 171.808 84.0853 171.808 84.2383V92.7477H179.397V84.2383C179.398 84.0853 179.435 83.9346 179.506 83.7989L179.666 83.4843H171.539L171.7 83.7989ZM179.003 83.9152C178.977 84.021 178.964 84.1295 178.964 84.2383V92.3168H172.242V84.2383C172.242 84.1295 172.229 84.021 172.203 83.9152H179.003ZM162.159 83.7989C162.23 83.9346 162.268 84.0853 162.268 84.2383V92.7477H169.857V84.2383C169.857 84.0853 169.894 83.9346 169.965 83.7989L170.126 83.4843H161.999L162.159 83.7989ZM169.462 83.9152C169.436 84.021 169.423 84.1295 169.423 84.2383V92.3168H162.701V84.2383C162.702 84.1295 162.688 84.021 162.662 83.9152H169.462ZM152.619 83.7989C152.69 83.9346 152.727 84.0853 152.727 84.2383V92.7477H160.316V84.2383C160.316 84.0853 160.354 83.9346 160.425 83.7989L160.585 83.4843H152.458L152.619 83.7989ZM159.922 83.9152C159.896 84.021 159.883 84.1295 159.883 84.2383V92.3168H153.161V84.2383C153.161 84.1295 153.148 84.021 153.122 83.9152H159.922ZM143.078 83.7989C143.149 83.9346 143.186 84.0853 143.187 84.2383V92.7477H150.776V84.2383C150.776 84.0853 150.813 83.9346 150.884 83.7989L151.045 83.4843H142.918L143.078 83.7989ZM150.381 83.9152C150.355 84.021 150.342 84.1295 150.342 84.2383V92.3168H143.62V84.2383C143.62 84.1295 143.607 84.021 143.581 83.9152H150.381ZM133.538 83.7989C133.609 83.9346 133.646 84.0853 133.646 84.2383V92.7477H141.235V84.2383C141.235 84.0853 141.272 83.9346 141.344 83.7989L141.504 83.4843H133.377L133.538 83.7989ZM140.841 83.9152C140.814 84.021 140.801 84.1295 140.801 84.2383V92.3168H134.08V84.2383C134.08 84.1295 134.067 84.021 134.041 83.9152H140.841ZM123.997 83.7989C124.068 83.9346 124.105 84.0853 124.105 84.2383V92.7477H131.695V84.2383C131.695 84.0853 131.732 83.9346 131.803 83.7989L131.963 83.4843H123.836L123.997 83.7989ZM131.3 83.9152C131.274 84.021 131.261 84.1295 131.261 84.2383V92.3168H124.539V84.2383C124.539 84.1295 124.526 84.021 124.5 83.9152H131.3ZM114.456 83.7989C114.528 83.9346 114.565 84.0853 114.565 84.2383V92.7477H122.154V84.2383C122.154 84.0853 122.191 83.9346 122.262 83.7989L122.423 83.4843H114.296L114.456 83.7989ZM121.759 83.9152C121.733 84.021 121.72 84.1295 121.72 84.2383V92.3168H114.998V84.2383C114.999 84.1295 114.985 84.021 114.959 83.9152H121.759ZM104.916 83.7989C104.987 83.9346 105.024 84.0853 105.024 84.2383V92.7477H112.613V84.2383C112.613 84.0853 112.651 83.9346 112.722 83.7989L112.882 83.4843H104.755L104.916 83.7989ZM112.219 83.9152C112.193 84.021 112.18 84.1295 112.18 84.2383V92.3168H105.458V84.2383C105.458 84.1295 105.445 84.021 105.419 83.9152H112.219ZM181.241 83.7989C181.312 83.9346 181.349 84.0853 181.349 84.2383V92.7477H188.938V84.2383C188.938 84.0853 188.975 83.9346 189.046 83.7989L189.207 83.4843H181.08L181.241 83.7989ZM188.543 83.9152C188.517 84.021 188.504 84.1295 188.504 84.2383V92.3168H181.783V84.2383C181.783 84.1295 181.77 84.021 181.744 83.9152H188.543ZM171.7 83.7989C171.771 83.9346 171.808 84.0853 171.808 84.2383V92.7477H179.397V84.2383C179.398 84.0853 179.435 83.9346 179.506 83.7989L179.666 83.4843H171.539L171.7 83.7989ZM179.003 83.9152C178.977 84.021 178.964 84.1295 178.964 84.2383V92.3168H172.242V84.2383C172.242 84.1295 172.229 84.021 172.203 83.9152H179.003ZM162.159 83.7989C162.23 83.9346 162.268 84.0853 162.268 84.2383V92.7477H169.857V84.2383C169.857 84.0853 169.894 83.9346 169.965 83.7989L170.126 83.4843H161.999L162.159 83.7989ZM169.462 83.9152C169.436 84.021 169.423 84.1295 169.423 84.2383V92.3168H162.701V84.2383C162.702 84.1295 162.688 84.021 162.662 83.9152H169.462ZM152.619 83.7989C152.69 83.9346 152.727 84.0853 152.727 84.2383V92.7477H160.316V84.2383C160.316 84.0853 160.354 83.9346 160.425 83.7989L160.585 83.4843H152.458L152.619 83.7989ZM159.922 83.9152C159.896 84.021 159.883 84.1295 159.883 84.2383V92.3168H153.161V84.2383C153.161 84.1295 153.148 84.021 153.122 83.9152H159.922ZM143.078 83.7989C143.149 83.9346 143.186 84.0853 143.187 84.2383V92.7477H150.776V84.2383C150.776 84.0853 150.813 83.9346 150.884 83.7989L151.045 83.4843H142.918L143.078 83.7989ZM150.381 83.9152C150.355 84.021 150.342 84.1295 150.342 84.2383V92.3168H143.62V84.2383C143.62 84.1295 143.607 84.021 143.581 83.9152H150.381ZM133.538 83.7989C133.609 83.9346 133.646 84.0853 133.646 84.2383V92.7477H141.235V84.2383C141.235 84.0853 141.272 83.9346 141.344 83.7989L141.504 83.4843H133.377L133.538 83.7989ZM140.841 83.9152C140.814 84.021 140.801 84.1295 140.801 84.2383V92.3168H134.08V84.2383C134.08 84.1295 134.067 84.021 134.041 83.9152H140.841ZM123.997 83.7989C124.068 83.9346 124.105 84.0853 124.105 84.2383V92.7477H131.695V84.2383C131.695 84.0853 131.732 83.9346 131.803 83.7989L131.963 83.4843H123.836L123.997 83.7989ZM131.3 83.9152C131.274 84.021 131.261 84.1295 131.261 84.2383V92.3168H124.539V84.2383C124.539 84.1295 124.526 84.021 124.5 83.9152H131.3ZM114.456 83.7989C114.528 83.9346 114.565 84.0853 114.565 84.2383V92.7477H122.154V84.2383C122.154 84.0853 122.191 83.9346 122.262 83.7989L122.423 83.4843H114.296L114.456 83.7989ZM121.759 83.9152C121.733 84.021 121.72 84.1295 121.72 84.2383V92.3168H114.998V84.2383C114.999 84.1295 114.985 84.021 114.959 83.9152H121.759ZM104.916 83.7989C104.987 83.9346 105.024 84.0853 105.024 84.2383V92.7477H112.613V84.2383C112.613 84.0853 112.651 83.9346 112.722 83.7989L112.882 83.4843H104.755L104.916 83.7989ZM112.219 83.9152C112.193 84.021 112.18 84.1295 112.18 84.2383V92.3168H105.458V84.2383C105.458 84.1295 105.445 84.021 105.419 83.9152H112.219ZM197.611 94.0403H195.027C194.884 93.5447 194.583 93.1086 194.17 92.7977C193.756 92.4868 193.251 92.3181 192.733 92.3168H191.323V84.2383C191.324 84.0649 191.291 83.893 191.226 83.7321C191.471 83.5883 191.663 83.3683 191.77 83.1058C191.877 82.8434 191.894 82.5531 191.819 82.2799C191.744 82.0067 191.58 81.7656 191.354 81.594C191.127 81.4223 190.849 81.3296 190.564 81.3301H103.398C103.113 81.3296 102.835 81.4223 102.609 81.594C102.382 81.7656 102.218 82.0067 102.143 82.2799C102.068 82.5531 102.085 82.8434 102.192 83.1058C102.3 83.3683 102.491 83.5883 102.737 83.7321C102.672 83.893 102.638 84.0649 102.639 84.2383V92.3168H101.23C100.711 92.3181 100.207 92.4868 99.7928 92.7977C99.379 93.1086 99.0781 93.5447 98.9356 94.0403H96.1341C95.6168 94.041 95.1209 94.2456 94.7551 94.609C94.3893 94.9724 94.1834 95.4651 94.1826 95.9791V209.724C94.1837 210.238 94.3897 210.731 94.7554 211.094C95.1212 211.458 95.6169 211.662 96.1341 211.663H197.611C198.129 211.663 198.625 211.458 198.99 211.095C199.356 210.731 199.562 210.238 199.563 209.724V95.9791C199.562 95.4651 199.356 94.9724 198.99 94.609C198.625 94.2456 198.129 94.041 197.611 94.0403ZM199.129 209.724C199.129 210.032 199.034 210.333 198.857 210.585C198.679 210.838 198.429 211.031 198.138 211.138C197.97 211.201 197.791 211.233 197.611 211.232H96.1341C95.9541 211.233 95.7754 211.201 95.6072 211.138C95.3166 211.031 95.066 210.838 94.8889 210.585C94.7118 210.333 94.6166 210.032 94.6163 209.724V95.9791C94.6167 95.5793 94.7768 95.196 95.0613 94.9133C95.3459 94.6306 95.7317 94.4716 96.1341 94.4711H99.2825L99.3172 94.2988C99.4084 93.8614 99.6482 93.4686 99.9965 93.1861C100.345 92.9037 100.78 92.7489 101.23 92.7477H103.073V84.2383C103.073 84.063 103.121 83.891 103.212 83.7407L103.346 83.5188L103.101 83.4283C102.909 83.3594 102.749 83.2255 102.647 83.0503C102.545 82.8751 102.508 82.6698 102.544 82.4706C102.579 82.2713 102.684 82.0909 102.841 81.9611C102.997 81.8313 103.194 81.7604 103.398 81.7609H190.564C190.768 81.7604 190.965 81.8313 191.122 81.9611C191.278 82.0909 191.383 82.2713 191.418 82.4706C191.454 82.6698 191.417 82.8751 191.316 83.0503C191.214 83.2255 191.053 83.3594 190.861 83.4283L190.616 83.5188L190.751 83.7407C190.842 83.891 190.89 84.063 190.89 84.2383V92.7477H192.733C193.182 92.7489 193.618 92.9037 193.966 93.1861C194.314 93.4686 194.554 93.8614 194.645 94.2988L194.68 94.4711H197.611C198.014 94.4716 198.4 94.6306 198.684 94.9133C198.969 95.196 199.129 95.5793 199.129 95.9791L199.129 209.724ZM104.755 83.4843L104.916 83.7989C104.987 83.9346 105.024 84.0853 105.024 84.2383V92.7477H112.613V84.2383C112.613 84.0853 112.651 83.9346 112.722 83.7989L112.882 83.4843H104.755ZM112.18 84.2383V92.3168H105.458V84.2383C105.458 84.1295 105.445 84.021 105.419 83.9152H112.219C112.193 84.021 112.18 84.1295 112.18 84.2383ZM114.296 83.4843L114.456 83.7989C114.528 83.9346 114.565 84.0853 114.565 84.2383V92.7477H122.154V84.2383C122.154 84.0853 122.191 83.9346 122.262 83.7989L122.423 83.4843H114.296ZM121.72 84.2383V92.3168H114.998V84.2383C114.999 84.1295 114.985 84.021 114.959 83.9152H121.759C121.733 84.021 121.72 84.1295 121.72 84.2383ZM123.836 83.4843L123.997 83.7989C124.068 83.9346 124.105 84.0853 124.105 84.2383V92.7477H131.695V84.2383C131.695 84.0853 131.732 83.9346 131.803 83.7989L131.963 83.4843H123.836ZM131.261 84.2383V92.3168H124.539V84.2383C124.539 84.1295 124.526 84.021 124.5 83.9152H131.3C131.274 84.021 131.261 84.1295 131.261 84.2383ZM133.377 83.4843L133.538 83.7989C133.609 83.9346 133.646 84.0853 133.646 84.2383V92.7477H141.235V84.2383C141.235 84.0853 141.272 83.9346 141.344 83.7989L141.504 83.4843H133.377ZM140.801 84.2383V92.3168H134.08V84.2383C134.08 84.1295 134.067 84.021 134.041 83.9152H140.841C140.814 84.021 140.801 84.1295 140.801 84.2383ZM142.918 83.4843L143.078 83.7989C143.149 83.9346 143.186 84.0853 143.187 84.2383V92.7477H150.776V84.2383C150.776 84.0853 150.813 83.9346 150.884 83.7989L151.045 83.4843H142.918ZM150.342 84.2383V92.3168H143.62V84.2383C143.62 84.1295 143.607 84.021 143.581 83.9152H150.381C150.355 84.021 150.342 84.1295 150.342 84.2383ZM152.458 83.4843L152.619 83.7989C152.69 83.9346 152.727 84.0853 152.727 84.2383V92.7477H160.316V84.2383C160.316 84.0853 160.354 83.9346 160.425 83.7989L160.585 83.4843H152.458ZM159.883 84.2383V92.3168H153.161V84.2383C153.161 84.1295 153.148 84.021 153.122 83.9152H159.922C159.896 84.021 159.883 84.1295 159.883 84.2383ZM161.999 83.4843L162.159 83.7989C162.23 83.9346 162.268 84.0853 162.268 84.2383V92.7477H169.857V84.2383C169.857 84.0853 169.894 83.9346 169.965 83.7989L170.126 83.4843H161.999ZM169.423 84.2383V92.3168H162.701V84.2383C162.702 84.1295 162.688 84.021 162.662 83.9152H169.462C169.436 84.021 169.423 84.1295 169.423 84.2383ZM171.539 83.4843L171.7 83.7989C171.771 83.9346 171.808 84.0853 171.808 84.2383V92.7477H179.397V84.2383C179.398 84.0853 179.435 83.9346 179.506 83.7989L179.666 83.4843H171.539ZM178.964 84.2383V92.3168H172.242V84.2383C172.242 84.1295 172.229 84.021 172.203 83.9152H179.003C178.977 84.021 178.964 84.1295 178.964 84.2383ZM181.08 83.4843L181.241 83.7989C181.312 83.9346 181.349 84.0853 181.349 84.2383V92.7477H188.938V84.2383C188.938 84.0853 188.975 83.9346 189.046 83.7989L189.207 83.4843H181.08ZM188.504 84.2383V92.3168H181.783V84.2383C181.783 84.1295 181.77 84.021 181.744 83.9152H188.543C188.517 84.021 188.504 84.1295 188.504 84.2383ZM104.755 83.4843L104.916 83.7989C104.987 83.9346 105.024 84.0853 105.024 84.2383V92.7477H112.613V84.2383C112.613 84.0853 112.651 83.9346 112.722 83.7989L112.882 83.4843H104.755ZM112.18 84.2383V92.3168H105.458V84.2383C105.458 84.1295 105.445 84.021 105.419 83.9152H112.219C112.193 84.021 112.18 84.1295 112.18 84.2383ZM114.296 83.4843L114.456 83.7989C114.528 83.9346 114.565 84.0853 114.565 84.2383V92.7477H122.154V84.2383C122.154 84.0853 122.191 83.9346 122.262 83.7989L122.423 83.4843H114.296ZM121.72 84.2383V92.3168H114.998V84.2383C114.999 84.1295 114.985 84.021 114.959 83.9152H121.759C121.733 84.021 121.72 84.1295 121.72 84.2383ZM123.836 83.4843L123.997 83.7989C124.068 83.9346 124.105 84.0853 124.105 84.2383V92.7477H131.695V84.2383C131.695 84.0853 131.732 83.9346 131.803 83.7989L131.963 83.4843H123.836ZM131.261 84.2383V92.3168H124.539V84.2383C124.539 84.1295 124.526 84.021 124.5 83.9152H131.3C131.274 84.021 131.261 84.1295 131.261 84.2383ZM133.377 83.4843L133.538 83.7989C133.609 83.9346 133.646 84.0853 133.646 84.2383V92.7477H141.235V84.2383C141.235 84.0853 141.272 83.9346 141.344 83.7989L141.504 83.4843H133.377ZM140.801 84.2383V92.3168H134.08V84.2383C134.08 84.1295 134.067 84.021 134.041 83.9152H140.841C140.814 84.021 140.801 84.1295 140.801 84.2383ZM142.918 83.4843L143.078 83.7989C143.149 83.9346 143.186 84.0853 143.187 84.2383V92.7477H150.776V84.2383C150.776 84.0853 150.813 83.9346 150.884 83.7989L151.045 83.4843H142.918ZM150.342 84.2383V92.3168H143.62V84.2383C143.62 84.1295 143.607 84.021 143.581 83.9152H150.381C150.355 84.021 150.342 84.1295 150.342 84.2383ZM152.458 83.4843L152.619 83.7989C152.69 83.9346 152.727 84.0853 152.727 84.2383V92.7477H160.316V84.2383C160.316 84.0853 160.354 83.9346 160.425 83.7989L160.585 83.4843H152.458ZM159.883 84.2383V92.3168H153.161V84.2383C153.161 84.1295 153.148 84.021 153.122 83.9152H159.922C159.896 84.021 159.883 84.1295 159.883 84.2383ZM161.999 83.4843L162.159 83.7989C162.23 83.9346 162.268 84.0853 162.268 84.2383V92.7477H169.857V84.2383C169.857 84.0853 169.894 83.9346 169.965 83.7989L170.126 83.4843H161.999ZM169.423 84.2383V92.3168H162.701V84.2383C162.702 84.1295 162.688 84.021 162.662 83.9152H169.462C169.436 84.021 169.423 84.1295 169.423 84.2383ZM171.539 83.4843L171.7 83.7989C171.771 83.9346 171.808 84.0853 171.808 84.2383V92.7477H179.397V84.2383C179.398 84.0853 179.435 83.9346 179.506 83.7989L179.666 83.4843H171.539ZM178.964 84.2383V92.3168H172.242V84.2383C172.242 84.1295 172.229 84.021 172.203 83.9152H179.003C178.977 84.021 178.964 84.1295 178.964 84.2383ZM181.08 83.4843L181.241 83.7989C181.312 83.9346 181.349 84.0853 181.349 84.2383V92.7477H188.938V84.2383C188.938 84.0853 188.975 83.9346 189.046 83.7989L189.207 83.4843H181.08ZM188.504 84.2383V92.3168H181.783V84.2383C181.783 84.1295 181.77 84.021 181.744 83.9152H188.543C188.517 84.021 188.504 84.1295 188.504 84.2383ZM104.755 83.4843L104.916 83.7989C104.987 83.9346 105.024 84.0853 105.024 84.2383V92.7477H112.613V84.2383C112.613 84.0853 112.651 83.9346 112.722 83.7989L112.882 83.4843H104.755ZM112.18 84.2383V92.3168H105.458V84.2383C105.458 84.1295 105.445 84.021 105.419 83.9152H112.219C112.193 84.021 112.18 84.1295 112.18 84.2383ZM114.296 83.4843L114.456 83.7989C114.528 83.9346 114.565 84.0853 114.565 84.2383V92.7477H122.154V84.2383C122.154 84.0853 122.191 83.9346 122.262 83.7989L122.423 83.4843H114.296ZM121.72 84.2383V92.3168H114.998V84.2383C114.999 84.1295 114.985 84.021 114.959 83.9152H121.759C121.733 84.021 121.72 84.1295 121.72 84.2383ZM123.836 83.4843L123.997 83.7989C124.068 83.9346 124.105 84.0853 124.105 84.2383V92.7477H131.695V84.2383C131.695 84.0853 131.732 83.9346 131.803 83.7989L131.963 83.4843H123.836ZM131.261 84.2383V92.3168H124.539V84.2383C124.539 84.1295 124.526 84.021 124.5 83.9152H131.3C131.274 84.021 131.261 84.1295 131.261 84.2383ZM133.377 83.4843L133.538 83.7989C133.609 83.9346 133.646 84.0853 133.646 84.2383V92.7477H141.235V84.2383C141.235 84.0853 141.272 83.9346 141.344 83.7989L141.504 83.4843H133.377ZM140.801 84.2383V92.3168H134.08V84.2383C134.08 84.1295 134.067 84.021 134.041 83.9152H140.841C140.814 84.021 140.801 84.1295 140.801 84.2383ZM142.918 83.4843L143.078 83.7989C143.149 83.9346 143.186 84.0853 143.187 84.2383V92.7477H150.776V84.2383C150.776 84.0853 150.813 83.9346 150.884 83.7989L151.045 83.4843H142.918ZM150.342 84.2383V92.3168H143.62V84.2383C143.62 84.1295 143.607 84.021 143.581 83.9152H150.381C150.355 84.021 150.342 84.1295 150.342 84.2383ZM152.458 83.4843L152.619 83.7989C152.69 83.9346 152.727 84.0853 152.727 84.2383V92.7477H160.316V84.2383C160.316 84.0853 160.354 83.9346 160.425 83.7989L160.585 83.4843H152.458ZM159.883 84.2383V92.3168H153.161V84.2383C153.161 84.1295 153.148 84.021 153.122 83.9152H159.922C159.896 84.021 159.883 84.1295 159.883 84.2383ZM161.999 83.4843L162.159 83.7989C162.23 83.9346 162.268 84.0853 162.268 84.2383V92.7477H169.857V84.2383C169.857 84.0853 169.894 83.9346 169.965 83.7989L170.126 83.4843H161.999ZM169.423 84.2383V92.3168H162.701V84.2383C162.702 84.1295 162.688 84.021 162.662 83.9152H169.462C169.436 84.021 169.423 84.1295 169.423 84.2383ZM171.539 83.4843L171.7 83.7989C171.771 83.9346 171.808 84.0853 171.808 84.2383V92.7477H179.397V84.2383C179.398 84.0853 179.435 83.9346 179.506 83.7989L179.666 83.4843H171.539ZM178.964 84.2383V92.3168H172.242V84.2383C172.242 84.1295 172.229 84.021 172.203 83.9152H179.003C178.977 84.021 178.964 84.1295 178.964 84.2383ZM181.08 83.4843L181.241 83.7989C181.312 83.9346 181.349 84.0853 181.349 84.2383V92.7477H188.938V84.2383C188.938 84.0853 188.975 83.9346 189.046 83.7989L189.207 83.4843H181.08ZM188.504 84.2383V92.3168H181.783V84.2383C181.783 84.1295 181.77 84.021 181.744 83.9152H188.543C188.517 84.021 188.504 84.1295 188.504 84.2383ZM104.755 83.4843L104.916 83.7989C104.987 83.9346 105.024 84.0853 105.024 84.2383V92.7477H112.613V84.2383C112.613 84.0853 112.651 83.9346 112.722 83.7989L112.882 83.4843H104.755ZM112.18 84.2383V92.3168H105.458V84.2383C105.458 84.1295 105.445 84.021 105.419 83.9152H112.219C112.193 84.021 112.18 84.1295 112.18 84.2383ZM114.296 83.4843L114.456 83.7989C114.528 83.9346 114.565 84.0853 114.565 84.2383V92.7477H122.154V84.2383C122.154 84.0853 122.191 83.9346 122.262 83.7989L122.423 83.4843H114.296ZM121.72 84.2383V92.3168H114.998V84.2383C114.999 84.1295 114.985 84.021 114.959 83.9152H121.759C121.733 84.021 121.72 84.1295 121.72 84.2383ZM123.836 83.4843L123.997 83.7989C124.068 83.9346 124.105 84.0853 124.105 84.2383V92.7477H131.695V84.2383C131.695 84.0853 131.732 83.9346 131.803 83.7989L131.963 83.4843H123.836ZM131.261 84.2383V92.3168H124.539V84.2383C124.539 84.1295 124.526 84.021 124.5 83.9152H131.3C131.274 84.021 131.261 84.1295 131.261 84.2383ZM133.377 83.4843L133.538 83.7989C133.609 83.9346 133.646 84.0853 133.646 84.2383V92.7477H141.235V84.2383C141.235 84.0853 141.272 83.9346 141.344 83.7989L141.504 83.4843H133.377ZM140.801 84.2383V92.3168H134.08V84.2383C134.08 84.1295 134.067 84.021 134.041 83.9152H140.841C140.814 84.021 140.801 84.1295 140.801 84.2383ZM142.918 83.4843L143.078 83.7989C143.149 83.9346 143.186 84.0853 143.187 84.2383V92.7477H150.776V84.2383C150.776 84.0853 150.813 83.9346 150.884 83.7989L151.045 83.4843H142.918ZM150.342 84.2383V92.3168H143.62V84.2383C143.62 84.1295 143.607 84.021 143.581 83.9152H150.381C150.355 84.021 150.342 84.1295 150.342 84.2383ZM152.458 83.4843L152.619 83.7989C152.69 83.9346 152.727 84.0853 152.727 84.2383V92.7477H160.316V84.2383C160.316 84.0853 160.354 83.9346 160.425 83.7989L160.585 83.4843H152.458ZM159.883 84.2383V92.3168H153.161V84.2383C153.161 84.1295 153.148 84.021 153.122 83.9152H159.922C159.896 84.021 159.883 84.1295 159.883 84.2383ZM161.999 83.4843L162.159 83.7989C162.23 83.9346 162.268 84.0853 162.268 84.2383V92.7477H169.857V84.2383C169.857 84.0853 169.894 83.9346 169.965 83.7989L170.126 83.4843H161.999ZM169.423 84.2383V92.3168H162.701V84.2383C162.702 84.1295 162.688 84.021 162.662 83.9152H169.462C169.436 84.021 169.423 84.1295 169.423 84.2383ZM171.539 83.4843L171.7 83.7989C171.771 83.9346 171.808 84.0853 171.808 84.2383V92.7477H179.397V84.2383C179.398 84.0853 179.435 83.9346 179.506 83.7989L179.666 83.4843H171.539ZM178.964 84.2383V92.3168H172.242V84.2383C172.242 84.1295 172.229 84.021 172.203 83.9152H179.003C178.977 84.021 178.964 84.1295 178.964 84.2383ZM181.08 83.4843L181.241 83.7989C181.312 83.9346 181.349 84.0853 181.349 84.2383V92.7477H188.938V84.2383C188.938 84.0853 188.975 83.9346 189.046 83.7989L189.207 83.4843H181.08ZM188.504 84.2383V92.3168H181.783V84.2383C181.783 84.1295 181.77 84.021 181.744 83.9152H188.543C188.517 84.021 188.504 84.1295 188.504 84.2383Z" fill="#3F3D56"/>
<path d="M130.535 121.184H114.545C114.208 121.184 113.885 121.051 113.647 120.814C113.409 120.577 113.275 120.257 113.274 119.922V111.459C113.275 111.125 113.409 110.804 113.647 110.567C113.885 110.331 114.208 110.198 114.545 110.197H130.535C130.871 110.198 131.194 110.331 131.432 110.567C131.67 110.804 131.804 111.125 131.805 111.459V119.922C131.804 120.257 131.67 120.577 131.432 120.814C131.194 121.051 130.871 121.184 130.535 121.184Z" fill="#6C63FF"/>
<path d="M154.868 121.184H138.878C138.541 121.184 138.218 121.051 137.98 120.814C137.742 120.577 137.608 120.257 137.607 119.922V111.459C137.608 111.125 137.742 110.804 137.98 110.567C138.218 110.331 138.541 110.198 138.878 110.197H154.868C155.204 110.198 155.527 110.331 155.765 110.567C156.003 110.804 156.137 111.125 156.138 111.459V119.922C156.137 120.257 156.003 120.577 155.765 120.814C155.527 121.051 155.204 121.184 154.868 121.184Z" fill="#6C63FF"/>
<path d="M179.201 121.184H163.211C162.874 121.184 162.551 121.051 162.313 120.814C162.075 120.577 161.941 120.257 161.94 119.922V111.459C161.941 111.125 162.075 110.804 162.313 110.567C162.551 110.331 162.874 110.198 163.211 110.197H179.201C179.537 110.198 179.86 110.331 180.098 110.567C180.336 110.804 180.47 111.125 180.471 111.459V119.922C180.47 120.257 180.336 120.577 180.098 120.814C179.86 121.051 179.537 121.184 179.201 121.184Z" fill="#6C63FF"/>
<path d="M130.535 149.405H114.545C114.208 149.404 113.885 149.271 113.647 149.035C113.409 148.798 113.275 148.477 113.274 148.143V139.68C113.275 139.345 113.409 139.025 113.647 138.788C113.885 138.551 114.208 138.418 114.545 138.418H130.535C130.871 138.418 131.194 138.551 131.432 138.788C131.67 139.025 131.804 139.345 131.805 139.68V148.143C131.804 148.477 131.67 148.798 131.432 149.035C131.194 149.271 130.871 149.404 130.535 149.405Z" fill="#6C63FF"/>
<path d="M154.868 149.405H138.878C138.541 149.404 138.218 149.271 137.98 149.035C137.742 148.798 137.608 148.477 137.607 148.143V139.68C137.608 139.345 137.742 139.025 137.98 138.788C138.218 138.551 138.541 138.418 138.878 138.418H154.868C155.204 138.418 155.527 138.551 155.765 138.788C156.003 139.025 156.137 139.345 156.138 139.68V148.143C156.137 148.477 156.003 148.798 155.765 149.035C155.527 149.271 155.204 149.404 154.868 149.405Z" fill="#6C63FF"/>
<path d="M179.201 149.405H163.211C162.874 149.404 162.551 149.271 162.313 149.035C162.075 148.798 161.941 148.477 161.94 148.143V139.68C161.941 139.345 162.075 139.025 162.313 138.788C162.551 138.551 162.874 138.418 163.211 138.418H179.201C179.537 138.418 179.86 138.551 180.098 138.788C180.336 139.025 180.47 139.345 180.471 139.68V148.143C180.47 148.477 180.336 148.798 180.098 149.035C179.86 149.271 179.537 149.404 179.201 149.405Z" fill="#6C63FF"/>
<path d="M130.535 177.626H114.545C114.208 177.626 113.885 177.492 113.647 177.256C113.409 177.019 113.275 176.699 113.274 176.364V167.901C113.275 167.567 113.409 167.246 113.647 167.009C113.885 166.773 114.208 166.64 114.545 166.639H130.535C130.871 166.64 131.194 166.773 131.432 167.009C131.67 167.246 131.804 167.567 131.805 167.901V176.364C131.804 176.699 131.67 177.019 131.432 177.256C131.194 177.492 130.871 177.626 130.535 177.626Z" fill="#6C63FF"/>
<path d="M154.868 177.626H138.878C138.541 177.626 138.218 177.492 137.98 177.256C137.742 177.019 137.608 176.699 137.607 176.364V167.901C137.608 167.567 137.742 167.246 137.98 167.009C138.218 166.773 138.541 166.64 138.878 166.639H154.868C155.204 166.64 155.527 166.773 155.765 167.009C156.003 167.246 156.137 167.567 156.138 167.901V176.364C156.137 176.699 156.003 177.019 155.765 177.256C155.527 177.492 155.204 177.626 154.868 177.626Z" fill="#6C63FF"/>
<path d="M179.201 177.626H163.211C162.874 177.626 162.551 177.492 162.313 177.256C162.075 177.019 161.941 176.699 161.94 176.364V167.901C161.941 167.567 162.075 167.246 162.313 167.009C162.551 166.773 162.874 166.64 163.211 166.639H179.201C179.537 166.64 179.86 166.773 180.098 167.009C180.336 167.246 180.47 167.567 180.471 167.901V176.364C180.47 176.699 180.336 177.019 180.098 177.256C179.86 177.492 179.537 177.626 179.201 177.626Z" fill="#6C63FF"/>
<path d="M127.946 122.27H109.423C108.975 122.269 108.546 122.092 108.229 121.778C107.913 121.463 107.735 121.037 107.734 120.592V110.789C107.735 110.344 107.913 109.918 108.229 109.603C108.546 109.289 108.975 109.112 109.423 109.111H127.946C128.394 109.112 128.823 109.289 129.139 109.603C129.456 109.918 129.634 110.344 129.634 110.789V120.592C129.634 121.037 129.456 121.463 129.139 121.778C128.823 122.092 128.394 122.269 127.946 122.27ZM109.423 109.542C109.09 109.543 108.771 109.674 108.536 109.908C108.301 110.141 108.168 110.458 108.168 110.789V120.592C108.168 120.923 108.301 121.24 108.536 121.473C108.771 121.707 109.09 121.839 109.423 121.839H127.946C128.279 121.839 128.598 121.707 128.833 121.473C129.068 121.24 129.2 120.923 129.201 120.592V110.789C129.2 110.458 129.068 110.141 128.833 109.908C128.598 109.674 128.279 109.543 127.946 109.542H109.423Z" fill="#3F3D56"/>
<path d="M156.135 122.27H137.611C137.164 122.269 136.734 122.092 136.418 121.778C136.101 121.463 135.923 121.037 135.923 120.592V110.789C135.923 110.344 136.101 109.918 136.418 109.603C136.734 109.289 137.164 109.112 137.611 109.111H156.135C156.582 109.112 157.011 109.289 157.328 109.603C157.644 109.918 157.822 110.344 157.823 110.789V120.592C157.822 121.037 157.644 121.463 157.328 121.778C157.011 122.092 156.582 122.269 156.135 122.27ZM137.611 109.542C137.279 109.543 136.96 109.674 136.724 109.908C136.489 110.141 136.357 110.458 136.357 110.789V120.592C136.357 120.923 136.489 121.24 136.724 121.473C136.96 121.707 137.279 121.839 137.611 121.839H156.135C156.467 121.839 156.786 121.707 157.021 121.473C157.257 121.24 157.389 120.923 157.389 120.592V110.789C157.389 110.458 157.257 110.141 157.021 109.908C156.786 109.674 156.467 109.543 156.135 109.542H137.611Z" fill="#3F3D56"/>
<path d="M184.323 122.27H165.8C165.352 122.269 164.923 122.092 164.606 121.778C164.29 121.463 164.112 121.037 164.111 120.592V110.789C164.112 110.344 164.29 109.918 164.606 109.603C164.923 109.289 165.352 109.112 165.8 109.111H184.323C184.771 109.112 185.2 109.289 185.516 109.603C185.833 109.918 186.011 110.344 186.011 110.789V120.592C186.011 121.037 185.833 121.463 185.516 121.778C185.2 122.092 184.771 122.269 184.323 122.27ZM165.8 109.542C165.467 109.543 165.148 109.674 164.913 109.908C164.678 110.141 164.545 110.458 164.545 110.789V120.592C164.545 120.923 164.678 121.24 164.913 121.473C165.148 121.707 165.467 121.839 165.8 121.839H184.323C184.656 121.839 184.975 121.707 185.21 121.473C185.445 121.24 185.577 120.923 185.578 120.592V110.789C185.577 110.458 185.445 110.141 185.21 109.908C184.975 109.674 184.656 109.543 184.323 109.542H165.8Z" fill="#3F3D56"/>
<path d="M127.946 150.491H109.423C108.975 150.49 108.546 150.313 108.229 149.999C107.913 149.684 107.735 149.258 107.734 148.813V139.009C107.735 138.565 107.913 138.138 108.229 137.824C108.546 137.509 108.975 137.333 109.423 137.332H127.946C128.394 137.333 128.823 137.509 129.139 137.824C129.456 138.138 129.634 138.565 129.634 139.009V148.813C129.634 149.258 129.456 149.684 129.139 149.999C128.823 150.313 128.394 150.49 127.946 150.491ZM109.423 137.763C109.09 137.763 108.771 137.895 108.536 138.128C108.301 138.362 108.168 138.679 108.168 139.009V148.813C108.168 149.144 108.301 149.46 108.536 149.694C108.771 149.928 109.09 150.059 109.423 150.06H127.946C128.279 150.059 128.598 149.928 128.833 149.694C129.068 149.46 129.2 149.144 129.201 148.813V139.009C129.2 138.679 129.068 138.362 128.833 138.128C128.598 137.895 128.279 137.763 127.946 137.763H109.423Z" fill="#3F3D56"/>
<path d="M156.135 150.491H137.611C137.164 150.49 136.734 150.313 136.418 149.999C136.101 149.684 135.923 149.258 135.923 148.813V139.009C135.923 138.565 136.101 138.138 136.418 137.824C136.734 137.509 137.164 137.333 137.611 137.332H156.135C156.582 137.333 157.011 137.509 157.328 137.824C157.644 138.138 157.822 138.565 157.823 139.009V148.813C157.822 149.258 157.644 149.684 157.328 149.999C157.011 150.313 156.582 150.49 156.135 150.491ZM137.611 137.763C137.279 137.763 136.96 137.895 136.724 138.128C136.489 138.362 136.357 138.679 136.357 139.009V148.813C136.357 149.144 136.489 149.46 136.724 149.694C136.96 149.928 137.279 150.059 137.611 150.06H156.135C156.467 150.059 156.786 149.928 157.021 149.694C157.257 149.46 157.389 149.144 157.389 148.813V139.009C157.389 138.679 157.257 138.362 157.021 138.128C156.786 137.895 156.467 137.763 156.135 137.763H137.611Z" fill="#3F3D56"/>
<path d="M184.323 150.491H165.8C165.352 150.49 164.923 150.313 164.606 149.999C164.29 149.684 164.112 149.258 164.111 148.813V139.009C164.112 138.565 164.29 138.138 164.606 137.824C164.923 137.509 165.352 137.333 165.8 137.332H184.323C184.771 137.333 185.2 137.509 185.516 137.824C185.833 138.138 186.011 138.565 186.011 139.009V148.813C186.011 149.258 185.833 149.684 185.516 149.999C185.2 150.313 184.771 150.49 184.323 150.491ZM165.8 137.763C165.467 137.763 165.148 137.895 164.913 138.128C164.678 138.362 164.545 138.679 164.545 139.009V148.813C164.545 149.144 164.678 149.46 164.913 149.694C165.148 149.928 165.467 150.059 165.8 150.06H184.323C184.656 150.059 184.975 149.928 185.21 149.694C185.445 149.46 185.577 149.144 185.578 148.813V139.009C185.577 138.679 185.445 138.362 185.21 138.128C184.975 137.895 184.656 137.763 184.323 137.763H165.8Z" fill="#3F3D56"/>
<path d="M127.946 178.712H109.423C108.975 178.711 108.546 178.534 108.229 178.22C107.913 177.905 107.735 177.479 107.734 177.034V167.231C107.735 166.786 107.913 166.36 108.229 166.045C108.546 165.731 108.975 165.554 109.423 165.553H127.946C128.394 165.554 128.823 165.731 129.139 166.045C129.456 166.36 129.634 166.786 129.634 167.231V177.034C129.634 177.479 129.456 177.905 129.139 178.22C128.823 178.534 128.394 178.711 127.946 178.712ZM109.423 165.984C109.09 165.984 108.771 166.116 108.536 166.35C108.301 166.583 108.168 166.9 108.168 167.231V177.034C108.168 177.365 108.301 177.682 108.536 177.915C108.771 178.149 109.09 178.28 109.423 178.281H127.946C128.279 178.28 128.598 178.149 128.833 177.915C129.068 177.682 129.2 177.365 129.201 177.034V167.231C129.2 166.9 129.068 166.583 128.833 166.35C128.598 166.116 128.279 165.984 127.946 165.984H109.423Z" fill="#3F3D56"/>
<path d="M156.135 178.712H137.611C137.164 178.711 136.734 178.534 136.418 178.22C136.101 177.905 135.923 177.479 135.923 177.034V167.231C135.923 166.786 136.101 166.36 136.418 166.045C136.734 165.731 137.164 165.554 137.611 165.553H156.135C156.582 165.554 157.011 165.731 157.328 166.045C157.644 166.36 157.822 166.786 157.823 167.231V177.034C157.822 177.479 157.644 177.905 157.328 178.22C157.011 178.534 156.582 178.711 156.135 178.712ZM137.611 165.984C137.279 165.984 136.96 166.116 136.724 166.35C136.489 166.583 136.357 166.9 136.357 167.231V177.034C136.357 177.365 136.489 177.682 136.724 177.915C136.96 178.149 137.279 178.28 137.611 178.281H156.135C156.467 178.28 156.786 178.149 157.021 177.915C157.257 177.682 157.389 177.365 157.389 177.034V167.231C157.389 166.9 157.257 166.583 157.021 166.35C156.786 166.116 156.467 165.984 156.135 165.984H137.611Z" fill="#3F3D56"/>
<path d="M184.323 178.712H165.8C165.352 178.711 164.923 178.534 164.606 178.22C164.29 177.905 164.112 177.479 164.111 177.034V167.231C164.112 166.786 164.29 166.36 164.606 166.045C164.923 165.731 165.352 165.554 165.8 165.553H184.323C184.771 165.554 185.2 165.731 185.516 166.045C185.833 166.36 186.011 166.786 186.011 167.231V177.034C186.011 177.479 185.833 177.905 185.516 178.22C185.2 178.534 184.771 178.711 184.323 178.712ZM165.8 165.984C165.467 165.984 165.148 166.116 164.913 166.35C164.678 166.583 164.545 166.9 164.545 167.231V177.034C164.545 177.365 164.678 177.682 164.913 177.915C165.148 178.149 165.467 178.28 165.8 178.281H184.323C184.656 178.28 184.975 178.149 185.21 177.915C185.445 177.682 185.577 177.365 185.578 177.034V167.231C185.577 166.9 185.445 166.583 185.21 166.35C184.975 166.116 184.656 165.984 184.323 165.984H165.8Z" fill="#3F3D56"/>
<path d="M259.783 211.987H41.2168C41.1593 211.987 41.1042 211.964 41.0635 211.923C41.0228 211.883 41 211.828 41 211.771C41 211.714 41.0228 211.659 41.0635 211.619C41.1042 211.578 41.1593 211.556 41.2168 211.556H259.783C259.841 211.556 259.896 211.578 259.937 211.619C259.977 211.659 260 211.714 260 211.771C260 211.828 259.977 211.883 259.937 211.923C259.896 211.964 259.841 211.987 259.783 211.987Z" fill="#3F3D56"/>
<path d="M157.823 191.135C157.829 190.644 157.638 190.17 157.293 189.818C156.947 189.466 156.475 189.265 155.98 189.259H146.873V211.555H157.823V191.135Z" fill="#3F3D56"/>
<path d="M147.09 211.34H135.706V191.197C135.707 190.655 135.924 190.135 136.31 189.751C136.696 189.367 137.22 189.151 137.766 189.151H147.09V211.34ZM136.14 210.909H146.656V189.582H137.766C137.335 189.582 136.921 189.753 136.617 190.055C136.312 190.358 136.14 190.769 136.14 191.197V210.909Z" fill="#3F3D56"/>
<path d="M137.115 201.753C137.475 201.753 137.766 201.464 137.766 201.107C137.766 200.75 137.475 200.461 137.115 200.461C136.756 200.461 136.465 200.75 136.465 201.107C136.465 201.464 136.756 201.753 137.115 201.753Z" fill="#3F3D56"/>
</g>
<defs>
<clipPath id="clip0_2146_1340">
<rect width="219" height="166" fill="white" transform="translate(41 46)"/>
</clipPath>
</defs>
</svg>
