<svg width="260" height="35" viewBox="0 0 260 35" fill="none" xmlns="http://www.w3.org/2000/svg">
<path d="M259.999 32.0481C259.291 32.6697 258.443 33.1825 257.458 33.5865C256.472 33.9595 255.502 34.1459 254.547 34.1459C252.421 34.1459 250.681 33.4622 249.325 32.0947C248 30.7272 247.338 28.9557 247.338 26.7802V14.9856H244.057V9.48461H247.338V2.86475H253.853V9.48461H259.029V14.9856H253.853V25.7079C253.853 26.4849 254.069 27.1376 254.5 27.6659C254.932 28.1632 255.455 28.4118 256.071 28.4118C256.534 28.4118 256.965 28.3497 257.365 28.2254C257.797 28.07 258.135 27.868 258.382 27.6193L259.999 32.0481Z" fill="black"/>
<path d="M229.789 28.8781C230.898 28.8781 232.007 28.6606 233.116 28.2255C234.256 27.7904 235.211 27.2154 235.981 26.5006L239.77 30.4165C238.723 31.5354 237.275 32.4367 235.427 33.1204C233.609 33.8042 231.807 34.1461 230.021 34.1461C227.679 34.1461 225.523 33.6022 223.551 32.5144C221.611 31.4266 220.07 29.9193 218.931 27.9924C217.822 26.0655 217.267 23.8899 217.267 21.4657C217.267 19.0726 217.806 16.9282 218.884 15.0324C219.993 13.1365 221.487 11.6447 223.367 10.557C225.246 9.46918 227.34 8.92529 229.651 8.92529C232.115 8.92529 234.256 9.50026 236.074 10.6502C237.891 11.8001 239.278 13.4629 240.233 15.6384C241.187 17.8139 241.665 20.378 241.665 23.3305H223.69C223.998 25.0088 224.691 26.3607 225.769 27.3863C226.848 28.3809 228.188 28.8781 229.789 28.8781ZM229.743 14.1932C228.265 14.1932 226.986 14.6594 225.908 15.5918C224.83 16.4931 224.106 17.7207 223.736 19.2747H235.196C234.919 17.7207 234.302 16.4931 233.348 15.5918C232.393 14.6594 231.191 14.1932 229.743 14.1932Z" fill="black"/>
<path d="M204.003 8.92529C205.697 8.92529 207.207 9.32932 208.532 10.1374C209.887 10.9144 210.934 12.0177 211.674 13.4473C212.444 14.8459 212.829 16.4465 212.829 18.249V33.5866H206.36V19.6942C206.36 18.2024 205.929 16.9903 205.066 16.058C204.234 15.1256 203.141 14.6594 201.785 14.6594C200.368 14.6594 199.182 15.1101 198.227 16.0113C197.272 16.9126 196.795 18.016 196.795 19.3213V33.5866H190.048V9.48472H196.795V12.4217C197.534 11.3339 198.535 10.4793 199.798 9.85767C201.061 9.23609 202.463 8.92529 204.003 8.92529Z" fill="black"/>
<path d="M173.588 8.92529C175.652 8.92529 177.485 9.34486 179.087 10.184C180.689 11.0231 181.921 12.2197 182.784 13.7736C183.677 15.2965 184.124 17.0991 184.124 19.1814V33.5866H177.608V31.1625C176.777 32.0948 175.714 32.8252 174.42 33.3535C173.157 33.8819 171.863 34.1461 170.539 34.1461C168.844 34.1461 167.319 33.8353 165.964 33.2137C164.609 32.561 163.53 31.6597 162.729 30.5098C161.959 29.3288 161.574 27.9768 161.574 26.454C161.574 24.9 162.006 23.517 162.868 22.3049C163.761 21.0928 164.963 20.1449 166.472 19.4611C167.982 18.7774 169.645 18.4355 171.463 18.4355C173.527 18.4355 175.575 18.8551 177.608 19.6942V19.1814C177.608 17.7829 177.146 16.6329 176.222 15.7316C175.298 14.8303 173.912 14.3797 172.063 14.3797C170.154 14.3797 168.09 14.9547 165.872 16.1046L163.607 11.5826C167.058 9.81105 170.385 8.92529 173.588 8.92529ZM172.063 29.4376C173.419 29.4376 174.62 29.1423 175.668 28.5518C176.715 27.9302 177.362 27.0755 177.608 25.9878V23.7967C176.037 23.1751 174.312 22.8643 172.433 22.8643C171.201 22.8643 170.154 23.1906 169.291 23.8433C168.428 24.496 167.997 25.304 167.997 26.2675C167.997 27.2309 168.382 28.0079 169.152 28.5984C169.922 29.1578 170.893 29.4376 172.063 29.4376Z" fill="black"/>
<path d="M150.293 1H157.04V33.5865H150.293V1Z" fill="black"/>
<path d="M118.95 1.55933H133.228C135.508 1.55933 137.556 2.02551 139.374 2.95789C141.191 3.85919 142.608 5.13343 143.625 6.78063C144.672 8.42783 145.196 10.2926 145.196 12.3749C145.196 14.4572 144.672 16.3219 143.625 17.9691C142.608 19.6163 141.191 20.9061 139.374 21.8385C137.556 22.7398 135.508 23.1904 133.228 23.1904H125.789V33.5864H118.95V1.55933ZM132.535 16.8969C134.229 16.8969 135.6 16.4929 136.647 15.6848C137.695 14.8457 138.218 13.7424 138.218 12.3749C138.218 11.0074 137.695 9.91963 136.647 9.11157C135.6 8.27243 134.229 7.85286 132.535 7.85286H125.789V16.8969H132.535Z" fill="black"/>
<path d="M90.8635 1H97.6099V19.9272L106.528 9.48462H114.291L104.957 20.1603L114.152 33.5865H106.436L100.475 24.5425L97.6099 27.7126V33.5865H90.8635V1Z" fill="black"/>
<path d="M73.0798 34.1461C70.7385 34.1461 68.5668 33.5866 66.5644 32.4678C64.5621 31.3178 62.9756 29.7794 61.805 27.8525C60.6344 25.8945 60.0491 23.7811 60.0491 21.5124C60.0491 19.2436 60.6344 17.1457 61.805 15.2188C62.9756 13.2919 64.5621 11.769 66.5644 10.6502C68.5668 9.50026 70.7385 8.92529 73.0798 8.92529C75.421 8.92529 77.5927 9.50026 79.5951 10.6502C81.5974 11.769 83.1839 13.2919 84.3545 15.2188C85.5251 17.1457 86.1104 19.2436 86.1104 21.5124C86.1104 23.7811 85.5251 25.8945 84.3545 27.8525C83.1839 29.7794 81.5974 31.3178 79.5951 32.4678C77.5927 33.5866 75.421 34.1461 73.0798 34.1461ZM73.0798 28.4119C74.2504 28.4119 75.3285 28.1012 76.3143 27.4796C77.3309 26.858 78.1318 26.0188 78.7171 24.9622C79.3024 23.9055 79.5951 22.7555 79.5951 21.5124C79.5951 20.2692 79.3024 19.1348 78.7171 18.1092C78.1318 17.0525 77.3309 16.2134 76.3143 15.5918C75.3285 14.9702 74.2504 14.6594 73.0798 14.6594C71.9092 14.6594 70.8156 14.9702 69.799 15.5918C68.7824 16.2134 67.9815 17.0525 67.3962 18.1092C66.8109 19.1348 66.5182 20.2692 66.5182 21.5124C66.5182 22.7555 66.8109 23.9055 67.3962 24.9622C67.9815 26.0188 68.7824 26.858 69.799 27.4796C70.8156 28.1012 71.9092 28.4119 73.0798 28.4119Z" fill="black"/>
<path d="M43.9291 34.1461C41.5879 34.1461 39.4161 33.5866 37.4138 32.4678C35.4114 31.3178 33.825 29.7794 32.6543 27.8525C31.4837 25.8945 30.8984 23.7811 30.8984 21.5124C30.8984 19.2436 31.4837 17.1457 32.6543 15.2188C33.825 13.2919 35.4114 11.769 37.4138 10.6502C39.4161 9.50026 41.5879 8.92529 43.9291 8.92529C46.2703 8.92529 48.4421 9.50026 50.4445 10.6502C52.4468 11.769 54.0333 13.2919 55.2039 15.2188C56.3745 17.1457 56.9598 19.2436 56.9598 21.5124C56.9598 23.7811 56.3745 25.8945 55.2039 27.8525C54.0333 29.7794 52.4468 31.3178 50.4445 32.4678C48.4421 33.5866 46.2703 34.1461 43.9291 34.1461ZM43.9291 28.4119C45.0997 28.4119 46.1779 28.1012 47.1637 27.4796C48.1803 26.858 48.9812 26.0188 49.5665 24.9622C50.1518 23.9055 50.4445 22.7555 50.4445 21.5124C50.4445 20.2692 50.1518 19.1348 49.5665 18.1092C48.9812 17.0525 48.1803 16.2134 47.1637 15.5918C46.1779 14.9702 45.0997 14.6594 43.9291 14.6594C42.7585 14.6594 41.6649 14.9702 40.6483 15.5918C39.6318 16.2134 38.8308 17.0525 38.2455 18.1092C37.6602 19.1348 37.3676 20.2692 37.3676 21.5124C37.3676 22.7555 37.6602 23.9055 38.2455 24.9622C38.8308 26.0188 39.6318 26.858 40.6483 27.4796C41.6649 28.1012 42.7585 28.4119 43.9291 28.4119Z" fill="black"/>
<path d="M0 1.55933H16.0804C17.9595 1.55933 19.623 1.9012 21.0709 2.58494C22.5496 3.26868 23.6894 4.23214 24.4903 5.4753C25.322 6.68739 25.7379 8.05488 25.7379 9.57775C25.7379 12.7789 24.2593 15.1565 21.3019 16.7104C23.1503 17.5496 24.5827 18.684 25.5993 20.1136C26.6159 21.5432 27.1242 23.1438 27.1242 24.9153C27.1242 26.5936 26.6775 28.1009 25.7841 29.4374C24.8908 30.7427 23.6585 31.7683 22.0875 32.5142C20.5164 33.229 18.7297 33.5864 16.7273 33.5864H0V1.55933ZM14.4169 14.4727C15.6799 14.4727 16.7119 14.1464 17.5129 13.4937C18.3446 12.81 18.7605 11.9553 18.7605 10.9297C18.7605 9.93517 18.3446 9.11157 17.5129 8.4589C16.7119 7.77516 15.6799 7.43329 14.4169 7.43329H6.79259V14.4727H14.4169ZM15.4335 27.7125C16.8197 27.7125 17.9441 27.3551 18.8067 26.6402C19.7001 25.8943 20.1467 24.9464 20.1467 23.7965C20.1467 22.6466 19.7001 21.7142 18.8067 20.9994C17.9441 20.2535 16.8197 19.8805 15.4335 19.8805H6.79259V27.7125H15.4335Z" fill="black"/>
</svg>
