<svg width="234" height="68" viewBox="0 0 234 68" fill="none" xmlns="http://www.w3.org/2000/svg">
<rect width="54" height="54" rx="4" fill="#5A57FF"/>
<rect x="60" width="54" height="54" rx="4" fill="#3B38D8"/>
<rect x="120" width="54" height="54" rx="4" fill="#CACFFF"/>
<rect x="180.5" y="0.5" width="53" height="53" rx="3.5" fill="#5A57FF" fill-opacity="0.04" stroke="#F7F7FA"/>
<path d="M0.78125 58.9297H1.83594L4.21875 64.75H4.30664L6.68945 58.9297H7.74414V66H6.91406V60.6582H6.8457L4.64844 66H3.86719L1.66992 60.6582H1.61133V66H0.78125V58.9297ZM8.94531 64.4961C8.94531 63.2754 10.0195 63.002 10.9375 62.9336C11.2744 62.9092 12.1338 62.8652 12.373 62.8555V62.4258C12.373 61.752 11.9727 61.3613 11.1719 61.3613C10.498 61.3613 10.0977 61.6738 9.98047 62.0742H9.10156C9.20898 61.2246 10.0391 60.6289 11.2109 60.6289C11.9043 60.6289 13.2031 60.834 13.2031 62.5039V66H12.373V65.2773H12.334C12.1582 65.6387 11.6699 66.127 10.752 66.127C9.74609 66.127 8.94531 65.5312 8.94531 64.4961ZM9.78516 64.5352C9.78516 65.0918 10.2539 65.375 10.8984 65.375C11.8457 65.375 12.373 64.7402 12.373 64.0762V63.5391C12.124 63.5586 11.2891 63.6221 11.0352 63.6367C10.2734 63.6855 9.78516 63.959 9.78516 64.5352ZM14.5508 66V60.6973H15.3906V66H14.5508ZM14.9707 59.8184C14.6484 59.8184 14.3848 59.5742 14.3848 59.2617C14.3848 58.9492 14.6484 58.7051 14.9707 58.7051C15.293 58.7051 15.5664 58.9492 15.5664 59.2617C15.5664 59.5742 15.293 59.8184 14.9707 59.8184ZM17.5684 62.8164V66H16.7285V60.6973H17.5391V61.5273H17.6074C17.8613 60.9902 18.3496 60.6289 19.1602 60.6289C20.2344 60.6289 20.9473 61.2832 20.9473 62.6309V66H20.1074V62.6895C20.1074 61.8691 19.6582 61.3809 18.9062 61.3809C18.1348 61.3809 17.5684 61.8984 17.5684 62.8164Z" fill="#5A5A63"/>
<path d="M64.6387 60.707C64.5605 60.0137 63.9258 59.6133 63.0762 59.6133C62.1387 59.6133 61.5234 60.1016 61.5234 60.7754C61.5234 61.5176 62.3535 61.791 62.8906 61.9277L63.5938 62.123C64.3555 62.3184 65.5957 62.7578 65.5957 64.0762C65.5957 65.2285 64.668 66.127 63.0273 66.127C61.5039 66.127 60.5566 65.3359 60.4785 64.1641H61.377C61.4551 64.9551 62.1875 65.3262 63.0273 65.3262C64.0039 65.3262 64.7363 64.8281 64.7363 64.0566C64.7363 63.373 64.082 63.1094 63.3398 62.8945L62.4707 62.6602C61.3574 62.3379 60.6738 61.7715 60.6738 60.8145C60.6738 59.623 61.7383 58.832 63.1055 58.832C64.4727 58.832 65.459 59.6328 65.498 60.707H64.6387ZM70.0977 63.8223V60.6973H70.9277V66H70.0977V65.1016H70.0391C69.7852 65.6387 69.2676 66.0684 68.4668 66.0684C67.4609 66.0684 66.748 65.4141 66.748 64.0664V60.6973H67.5879V64.0078C67.5879 64.7695 68.0664 65.2578 68.7402 65.2578C69.3359 65.2578 70.0977 64.8086 70.0977 63.8223ZM72.3828 66V58.9297H73.2227V61.5371H73.291C73.4766 61.2539 73.7891 60.6289 74.8242 60.6289C76.1523 60.6289 77.0898 61.6836 77.0898 63.3633C77.0898 65.043 76.1523 66.1074 74.834 66.1074C73.8184 66.1074 73.4766 65.4824 73.291 65.1895H73.1934V66H72.3828ZM73.2031 63.3438C73.2031 64.5352 73.7402 65.3555 74.707 65.3555C75.7129 65.3555 76.2402 64.4766 76.2402 63.3438C76.2402 62.2402 75.7324 61.3809 74.707 61.3809C73.7305 61.3809 73.2031 62.1719 73.2031 63.3438ZM81.8457 66V66.7715H77.4219V66H81.8457ZM83.8672 58.9297V66H82.9785V59.8477H82.9395L81.2207 60.9902V60.1016L82.9785 58.9297H83.8672Z" fill="#5A5A63"/>
<path d="M124.639 60.707C124.561 60.0137 123.926 59.6133 123.076 59.6133C122.139 59.6133 121.523 60.1016 121.523 60.7754C121.523 61.5176 122.354 61.791 122.891 61.9277L123.594 62.123C124.355 62.3184 125.596 62.7578 125.596 64.0762C125.596 65.2285 124.668 66.127 123.027 66.127C121.504 66.127 120.557 65.3359 120.479 64.1641H121.377C121.455 64.9551 122.188 65.3262 123.027 65.3262C124.004 65.3262 124.736 64.8281 124.736 64.0566C124.736 63.373 124.082 63.1094 123.34 62.8945L122.471 62.6602C121.357 62.3379 120.674 61.7715 120.674 60.8145C120.674 59.623 121.738 58.832 123.105 58.832C124.473 58.832 125.459 59.6328 125.498 60.707H124.639ZM130.098 63.8223V60.6973H130.928V66H130.098V65.1016H130.039C129.785 65.6387 129.268 66.0684 128.467 66.0684C127.461 66.0684 126.748 65.4141 126.748 64.0664V60.6973H127.588V64.0078C127.588 64.7695 128.066 65.2578 128.74 65.2578C129.336 65.2578 130.098 64.8086 130.098 63.8223ZM132.383 66V58.9297H133.223V61.5371H133.291C133.477 61.2539 133.789 60.6289 134.824 60.6289C136.152 60.6289 137.09 61.6836 137.09 63.3633C137.09 65.043 136.152 66.1074 134.834 66.1074C133.818 66.1074 133.477 65.4824 133.291 65.1895H133.193V66H132.383ZM133.203 63.3438C133.203 64.5352 133.74 65.3555 134.707 65.3555C135.713 65.3555 136.24 64.4766 136.24 63.3438C136.24 62.2402 135.732 61.3809 134.707 61.3809C133.73 61.3809 133.203 62.1719 133.203 63.3438ZM141.846 66V66.7715H137.422V66H141.846ZM142.422 66L142.412 65.3555L144.824 62.8164C145.664 61.9277 146.064 61.4492 146.064 60.7949C146.064 60.0723 145.449 59.5938 144.658 59.5938C143.818 59.5938 143.281 60.1309 143.281 60.9219H142.451C142.441 59.6719 143.408 58.832 144.688 58.832C145.967 58.832 146.885 59.6914 146.885 60.7949C146.885 61.5859 146.514 62.2012 145.264 63.4902L143.643 65.1602V65.2188H147.012V66H142.422Z" fill="#5A5A63"/>
<path d="M184.639 60.707C184.561 60.0137 183.926 59.6133 183.076 59.6133C182.139 59.6133 181.523 60.1016 181.523 60.7754C181.523 61.5176 182.354 61.791 182.891 61.9277L183.594 62.123C184.355 62.3184 185.596 62.7578 185.596 64.0762C185.596 65.2285 184.668 66.127 183.027 66.127C181.504 66.127 180.557 65.3359 180.479 64.1641H181.377C181.455 64.9551 182.188 65.3262 183.027 65.3262C184.004 65.3262 184.736 64.8281 184.736 64.0566C184.736 63.373 184.082 63.1094 183.34 62.8945L182.471 62.6602C181.357 62.3379 180.674 61.7715 180.674 60.8145C180.674 59.623 181.738 58.832 183.105 58.832C184.473 58.832 185.459 59.6328 185.498 60.707H184.639ZM190.098 63.8223V60.6973H190.928V66H190.098V65.1016H190.039C189.785 65.6387 189.268 66.0684 188.467 66.0684C187.461 66.0684 186.748 65.4141 186.748 64.0664V60.6973H187.588V64.0078C187.588 64.7695 188.066 65.2578 188.74 65.2578C189.336 65.2578 190.098 64.8086 190.098 63.8223ZM192.383 66V58.9297H193.223V61.5371H193.291C193.477 61.2539 193.789 60.6289 194.824 60.6289C196.152 60.6289 197.09 61.6836 197.09 63.3633C197.09 65.043 196.152 66.1074 194.834 66.1074C193.818 66.1074 193.477 65.4824 193.291 65.1895H193.193V66H192.383ZM193.203 63.3438C193.203 64.5352 193.74 65.3555 194.707 65.3555C195.713 65.3555 196.24 64.4766 196.24 63.3438C196.24 62.2402 195.732 61.3809 194.707 61.3809C193.73 61.3809 193.203 62.1719 193.203 63.3438ZM201.846 66V66.7715H197.422V66H201.846ZM202.422 66L202.412 65.3555L204.824 62.8164C205.664 61.9277 206.064 61.4492 206.064 60.7949C206.064 60.0723 205.449 59.5938 204.658 59.5938C203.818 59.5938 203.281 60.1309 203.281 60.9219H202.451C202.441 59.6719 203.408 58.832 204.688 58.832C205.967 58.832 206.885 59.6914 206.885 60.7949C206.885 61.5859 206.514 62.2012 205.264 63.4902L203.643 65.1602V65.2188H207.012V66H202.422Z" fill="#5A5A63"/>
</svg>
