<svg width="73" height="13" viewBox="0 0 73 13" fill="none" xmlns="http://www.w3.org/2000/svg">
<path d="M4.98406 10.2759C4.10672 10.2759 3.28539 10.0519 2.52006 9.60391C1.75472 9.14658 1.14339 8.53524 0.686057 7.76991C0.228723 7.00458 5.6684e-05 6.17858 5.6684e-05 5.29191C5.6684e-05 4.40524 0.228723 3.58391 0.686057 2.82791C1.14339 2.06258 1.75472 1.45591 2.52006 1.00791C3.28539 0.550576 4.10672 0.321909 4.98406 0.321909C5.66539 0.321909 6.31406 0.457243 6.93006 0.72791C7.54606 0.989243 8.08272 1.35791 8.54006 1.83391L7.54606 2.78591C7.21006 2.42191 6.81806 2.13724 6.37006 1.93191C5.93139 1.72658 5.46939 1.62391 4.98406 1.62391C4.35872 1.62391 3.77072 1.79191 3.22006 2.12791C2.67872 2.46391 2.24472 2.91191 1.91806 3.47191C1.60072 4.03191 1.44206 4.63858 1.44206 5.29191C1.44206 5.94524 1.60072 6.55658 1.91806 7.12591C2.24472 7.68591 2.67872 8.13391 3.22006 8.46991C3.77072 8.80591 4.35872 8.97391 4.98406 8.97391C5.46939 8.97391 5.93139 8.87124 6.37006 8.66591C6.81806 8.46058 7.21006 8.17591 7.54606 7.81191L8.54006 8.76391C8.07339 9.23991 7.53206 9.61324 6.91606 9.88391C6.30006 10.1452 5.65606 10.2759 4.98406 10.2759ZM10.1674 0.321909H11.5534V10.1079H10.1674V0.321909ZM16.5618 2.70191C17.5138 2.70191 18.2558 2.97724 18.7878 3.52791C19.3198 4.07858 19.5858 4.81124 19.5858 5.72591V10.1079H18.2278V9.12791C17.9665 9.49191 17.6165 9.77658 17.1778 9.98191C16.7392 10.1779 16.2865 10.2759 15.8198 10.2759C15.0452 10.2759 14.4058 10.0659 13.9018 9.64591C13.3978 9.22591 13.1458 8.66591 13.1458 7.96591C13.1458 7.49924 13.2718 7.08391 13.5238 6.71991C13.7852 6.34658 14.1352 6.06191 14.5738 5.86591C15.0218 5.66058 15.5118 5.55791 16.0438 5.55791C16.7345 5.55791 17.4625 5.68858 18.2278 5.94991V5.72591C18.2278 5.19391 18.0832 4.75058 17.7938 4.39591C17.5045 4.03191 17.0285 3.84991 16.3658 3.84991C15.7965 3.84991 15.1198 4.05058 14.3358 4.45191L13.8178 3.42991C14.7885 2.94458 15.7032 2.70191 16.5618 2.70191ZM16.0998 9.18391C16.5852 9.18391 17.0332 9.06724 17.4438 8.83391C17.8545 8.59124 18.1158 8.25991 18.2278 7.83991V6.87391C17.6118 6.68724 16.9538 6.59391 16.2538 6.59391C15.7592 6.59391 15.3392 6.71991 14.9938 6.97191C14.6485 7.22391 14.4758 7.54124 14.4758 7.92391C14.4758 8.30658 14.6252 8.61458 14.9238 8.84791C15.2318 9.07191 15.6238 9.18391 16.0998 9.18391ZM23.0925 4.28391C23.3165 3.79858 23.6618 3.41591 24.1285 3.13591C24.6045 2.84658 25.1552 2.70191 25.7805 2.70191V3.90591C25.2578 3.90591 24.7912 4.00391 24.3805 4.19991C23.9698 4.39591 23.6525 4.67591 23.4285 5.03991C23.2045 5.39458 23.0925 5.80058 23.0925 6.25791V10.1079H21.7065V2.86991H23.0925V4.28391ZM27.4077 2.86991H28.7937V10.1079H27.4077V2.86991ZM28.1077 1.66591C27.8743 1.66591 27.6737 1.58191 27.5057 1.41391C27.347 1.24591 27.2677 1.04991 27.2677 0.825909C27.2677 0.60191 27.347 0.410576 27.5057 0.251909C27.6737 0.0839093 27.8743 -9.07183e-05 28.1077 -9.07183e-05C28.3317 -9.07183e-05 28.523 0.0839093 28.6817 0.251909C28.8497 0.410576 28.9337 0.60191 28.9337 0.825909C28.9337 1.04991 28.8497 1.24591 28.6817 1.41391C28.523 1.58191 28.3317 1.66591 28.1077 1.66591ZM34.6701 9.75791C34.4741 9.91658 34.2454 10.0426 33.9841 10.1359C33.7321 10.2292 33.4754 10.2759 33.2141 10.2759C32.6541 10.2759 32.1967 10.0939 31.8421 9.72991C31.4874 9.35658 31.3101 8.88058 31.3101 8.30191V4.04591H30.2321V2.86991H31.3101V0.88191H32.6681V2.86991H34.3761V4.04591H32.6681V8.20391C32.6681 8.45591 32.7427 8.66591 32.8921 8.83391C33.0414 8.99258 33.2187 9.07191 33.4241 9.07191C33.5734 9.07191 33.7134 9.04858 33.8441 9.00191C33.9747 8.94591 34.0774 8.88058 34.1521 8.80591L34.6701 9.75791ZM37.0547 12.6279C36.532 12.6279 36.0747 12.5252 35.6827 12.3199L35.9907 11.2559C36.2613 11.4052 36.5553 11.4799 36.8727 11.4799C37.106 11.4799 37.302 11.4379 37.4607 11.3539C37.6193 11.2699 37.7547 11.1252 37.8667 10.9199L38.2307 10.1499L35.1227 2.86991H36.6067L38.9307 8.58191L41.1287 2.86991H42.5707L39.3787 10.7659C39.1267 11.4006 38.8093 11.8672 38.4267 12.1659C38.044 12.4646 37.5867 12.6186 37.0547 12.6279ZM52.3024 10.2759C51.4251 10.2759 50.6037 10.0519 49.8384 9.60391C49.0731 9.14658 48.4617 8.53524 48.0044 7.76991C47.5471 7.00458 47.3184 6.17858 47.3184 5.29191C47.3184 4.40524 47.5471 3.58391 48.0044 2.82791C48.4617 2.06258 49.0731 1.45591 49.8384 1.00791C50.6037 0.550576 51.4251 0.321909 52.3024 0.321909C52.9837 0.321909 53.6324 0.457243 54.2484 0.72791C54.8644 0.989243 55.4011 1.35791 55.8584 1.83391L54.8644 2.78591C54.5284 2.42191 54.1364 2.13724 53.6884 1.93191C53.2497 1.72658 52.7877 1.62391 52.3024 1.62391C51.6771 1.62391 51.0891 1.79191 50.5384 2.12791C49.9971 2.46391 49.5631 2.91191 49.2364 3.47191C48.9191 4.03191 48.7604 4.63858 48.7604 5.29191C48.7604 5.94524 48.9191 6.55658 49.2364 7.12591C49.5631 7.68591 49.9971 8.13391 50.5384 8.46991C51.0891 8.80591 51.6771 8.97391 52.3024 8.97391C52.7877 8.97391 53.2497 8.87124 53.6884 8.66591C54.1364 8.46058 54.5284 8.17591 54.8644 7.81191L55.8584 8.76391C55.3917 9.23991 54.8504 9.61324 54.2344 9.88391C53.6184 10.1452 52.9744 10.2759 52.3024 10.2759ZM57.4858 2.86991H58.8718V10.1079H57.4858V2.86991ZM58.1858 1.66591C57.9525 1.66591 57.7518 1.58191 57.5838 1.41391C57.4251 1.24591 57.3458 1.04991 57.3458 0.825909C57.3458 0.60191 57.4251 0.410576 57.5838 0.251909C57.7518 0.0839093 57.9525 -9.07183e-05 58.1858 -9.07183e-05C58.4098 -9.07183e-05 58.6011 0.0839093 58.7598 0.251909C58.9278 0.410576 59.0118 0.60191 59.0118 0.825909C59.0118 1.04991 58.9278 1.24591 58.7598 1.41391C58.6011 1.58191 58.4098 1.66591 58.1858 1.66591ZM64.7482 9.75791C64.5522 9.91658 64.3235 10.0426 64.0622 10.1359C63.8102 10.2292 63.5535 10.2759 63.2922 10.2759C62.7322 10.2759 62.2749 10.0939 61.9202 9.72991C61.5655 9.35658 61.3882 8.88058 61.3882 8.30191V4.04591H60.3102V2.86991H61.3882V0.88191H62.7462V2.86991H64.4542V4.04591H62.7462V8.20391C62.7462 8.45591 62.8209 8.66591 62.9702 8.83391C63.1195 8.99258 63.2969 9.07191 63.5022 9.07191C63.6515 9.07191 63.7915 9.04858 63.9222 9.00191C64.0529 8.94591 64.1555 8.88058 64.2302 8.80591L64.7482 9.75791ZM67.1328 12.6279C66.6101 12.6279 66.1528 12.5252 65.7608 12.3199L66.0688 11.2559C66.3395 11.4052 66.6335 11.4799 66.9508 11.4799C67.1841 11.4799 67.3801 11.4379 67.5388 11.3539C67.6975 11.2699 67.8328 11.1252 67.9448 10.9199L68.3088 10.1499L65.2008 2.86991H66.6848L69.0088 8.58191L71.2068 2.86991H72.6488L69.4568 10.7659C69.2048 11.4006 68.8875 11.8672 68.5048 12.1659C68.1221 12.4646 67.6648 12.6186 67.1328 12.6279Z" fill="black"/>
</svg>
