<svg width="354" height="68" viewBox="0 0 354 68" fill="none" xmlns="http://www.w3.org/2000/svg">
<rect width="54" height="54" rx="4" fill="#9A9AA3"/>
<rect x="120" width="54" height="54" rx="4" fill="#E4E4EA"/>
<rect x="240.5" y="0.5" width="53" height="53" rx="3.5" fill="#FCFCFD" stroke="#F7F7FA"/>
<rect x="60" width="54" height="54" rx="4" fill="#C6C6CE"/>
<rect x="180.5" y="0.5" width="53" height="53" rx="3.5" fill="#F7F7FA" stroke="#EDEDF6"/>
<rect x="300.5" y="0.5" width="53" height="53" rx="3.5" fill="white" stroke="#F7F7FA"/>
<path d="M5.60547 61.1367C5.30273 60.2285 4.60938 59.6523 3.60352 59.6523C2.35352 59.6523 1.35742 60.6387 1.35742 62.4648C1.35742 64.291 2.35352 65.2773 3.66211 65.2773C4.8584 65.2773 5.67383 64.4766 5.69336 63.2266H3.84766V62.4551H6.55273V63.2168C6.55273 64.9746 5.3418 66.0977 3.66211 66.0977C1.77734 66.0977 0.507812 64.7012 0.507812 62.4648C0.507812 60.2285 1.78711 58.832 3.60352 58.832C5.09766 58.832 6.25 59.7695 6.51367 61.1367H5.60547ZM7.76367 66V60.6973H8.57422V61.5078H8.63281C8.82812 60.9707 9.375 60.6094 10 60.6094C10.127 60.6094 10.3418 60.6191 10.4395 60.6289V61.4785C10.3809 61.459 10.1465 61.4199 9.93164 61.4199C9.16992 61.4199 8.60352 61.9473 8.60352 62.6602V66H7.76367ZM10.9961 64.4961C10.9961 63.2754 12.0703 63.002 12.9883 62.9336C13.3252 62.9092 14.1846 62.8652 14.4238 62.8555V62.4258C14.4238 61.752 14.0234 61.3613 13.2227 61.3613C12.5488 61.3613 12.1484 61.6738 12.0312 62.0742H11.1523C11.2598 61.2246 12.0898 60.6289 13.2617 60.6289C13.9551 60.6289 15.2539 60.834 15.2539 62.5039V66H14.4238V65.2773H14.3848C14.209 65.6387 13.7207 66.127 12.8027 66.127C11.7969 66.127 10.9961 65.5312 10.9961 64.4961ZM11.8359 64.5352C11.8359 65.0918 12.3047 65.375 12.9492 65.375C13.8965 65.375 14.4238 64.7402 14.4238 64.0762V63.5391C14.1748 63.5586 13.3398 63.6221 13.0859 63.6367C12.3242 63.6855 11.8359 63.959 11.8359 64.5352ZM16.9434 67.9922C16.7578 67.9922 16.582 67.9824 16.4746 67.9727V67.2207C16.5625 67.2305 16.7578 67.2402 16.8848 67.2402C17.2266 67.2402 17.5098 67.2109 17.793 66.4395L17.9492 66.0391L15.9863 60.6973H16.9043L18.3496 64.9062H18.4082L19.8535 60.6973H20.7715L18.5254 66.7617C18.2129 67.5918 17.6953 67.9922 16.9434 67.9922ZM24.0234 64.5547V63.832L27.207 58.9297H28.291V63.7832H29.2773V64.5547H28.291V66H27.4512V64.5547H24.0234ZM24.9707 63.7832H27.4512V60.043H27.3633L24.9707 63.7246V63.7832ZM32.7539 66.0977C31.1816 66.0977 30.2832 64.7793 30.2832 62.4648C30.2832 60.1699 31.2012 58.832 32.7539 58.832C34.3066 58.832 35.2246 60.1699 35.2246 62.4648C35.2246 64.7793 34.3164 66.0977 32.7539 66.0977ZM32.7539 65.3164C33.7695 65.3164 34.3652 64.291 34.3652 62.4648C34.3652 60.6387 33.7695 59.5938 32.7539 59.5938C31.7383 59.5938 31.1328 60.6387 31.1328 62.4648C31.1328 64.291 31.7285 65.3164 32.7539 65.3164ZM38.7109 66.0977C37.1387 66.0977 36.2402 64.7793 36.2402 62.4648C36.2402 60.1699 37.1582 58.832 38.7109 58.832C40.2637 58.832 41.1816 60.1699 41.1816 62.4648C41.1816 64.7793 40.2734 66.0977 38.7109 66.0977ZM38.7109 65.3164C39.7266 65.3164 40.3223 64.291 40.3223 62.4648C40.3223 60.6387 39.7266 59.5938 38.7109 59.5938C37.6953 59.5938 37.0898 60.6387 37.0898 62.4648C37.0898 64.291 37.6855 65.3164 38.7109 65.3164Z" fill="#5A5A63"/>
<path d="M65.6055 61.1367C65.3027 60.2285 64.6094 59.6523 63.6035 59.6523C62.3535 59.6523 61.3574 60.6387 61.3574 62.4648C61.3574 64.291 62.3535 65.2773 63.6621 65.2773C64.8584 65.2773 65.6738 64.4766 65.6934 63.2266H63.8477V62.4551H66.5527V63.2168C66.5527 64.9746 65.3418 66.0977 63.6621 66.0977C61.7773 66.0977 60.5078 64.7012 60.5078 62.4648C60.5078 60.2285 61.7871 58.832 63.6035 58.832C65.0977 58.832 66.25 59.7695 66.5137 61.1367H65.6055ZM67.7637 66V60.6973H68.5742V61.5078H68.6328C68.8281 60.9707 69.375 60.6094 70 60.6094C70.127 60.6094 70.3418 60.6191 70.4395 60.6289V61.4785C70.3809 61.459 70.1465 61.4199 69.9316 61.4199C69.1699 61.4199 68.6035 61.9473 68.6035 62.6602V66H67.7637ZM70.9961 64.4961C70.9961 63.2754 72.0703 63.002 72.9883 62.9336C73.3252 62.9092 74.1846 62.8652 74.4238 62.8555V62.4258C74.4238 61.752 74.0234 61.3613 73.2227 61.3613C72.5488 61.3613 72.1484 61.6738 72.0312 62.0742H71.1523C71.2598 61.2246 72.0898 60.6289 73.2617 60.6289C73.9551 60.6289 75.2539 60.834 75.2539 62.5039V66H74.4238V65.2773H74.3848C74.209 65.6387 73.7207 66.127 72.8027 66.127C71.7969 66.127 70.9961 65.5312 70.9961 64.4961ZM71.8359 64.5352C71.8359 65.0918 72.3047 65.375 72.9492 65.375C73.8965 65.375 74.4238 64.7402 74.4238 64.0762V63.5391C74.1748 63.5586 73.3398 63.6221 73.0859 63.6367C72.3242 63.6855 71.8359 63.959 71.8359 64.5352ZM76.9434 67.9922C76.7578 67.9922 76.582 67.9824 76.4746 67.9727V67.2207C76.5625 67.2305 76.7578 67.2402 76.8848 67.2402C77.2266 67.2402 77.5098 67.2109 77.793 66.4395L77.9492 66.0391L75.9863 60.6973H76.9043L78.3496 64.9062H78.4082L79.8535 60.6973H80.7715L78.5254 66.7617C78.2129 67.5918 77.6953 67.9922 76.9434 67.9922ZM86.6406 66.0977C85.2344 66.0977 84.2285 65.3457 84.1797 64.2227H85.0684C85.1172 64.8965 85.791 65.3164 86.6309 65.3164C87.5586 65.3164 88.2422 64.8086 88.2422 64.0762C88.2422 63.3047 87.627 62.7578 86.5234 62.7578H85.9473V61.9863H86.5234C87.3828 61.9863 87.9785 61.5078 87.9785 60.7754C87.9785 60.0723 87.4609 59.5938 86.6602 59.5938C85.9082 59.5938 85.2148 60.0137 85.1758 60.707H84.3262C84.375 59.584 85.4102 58.832 86.6699 58.832C88.0176 58.832 88.8379 59.7109 88.8281 60.7266C88.8379 61.5273 88.3691 62.123 87.627 62.3281V62.377C88.5449 62.5234 89.1113 63.1777 89.1016 64.0762C89.1113 65.2383 88.0469 66.0977 86.6406 66.0977ZM92.6855 66.0977C91.1133 66.0977 90.2148 64.7793 90.2148 62.4648C90.2148 60.1699 91.1328 58.832 92.6855 58.832C94.2383 58.832 95.1562 60.1699 95.1562 62.4648C95.1562 64.7793 94.248 66.0977 92.6855 66.0977ZM92.6855 65.3164C93.7012 65.3164 94.2969 64.291 94.2969 62.4648C94.2969 60.6387 93.7012 59.5938 92.6855 59.5938C91.6699 59.5938 91.0645 60.6387 91.0645 62.4648C91.0645 64.291 91.6602 65.3164 92.6855 65.3164ZM98.6426 66.0977C97.0703 66.0977 96.1719 64.7793 96.1719 62.4648C96.1719 60.1699 97.0898 58.832 98.6426 58.832C100.195 58.832 101.113 60.1699 101.113 62.4648C101.113 64.7793 100.205 66.0977 98.6426 66.0977ZM98.6426 65.3164C99.6582 65.3164 100.254 64.291 100.254 62.4648C100.254 60.6387 99.6582 59.5938 98.6426 59.5938C97.627 59.5938 97.0215 60.6387 97.0215 62.4648C97.0215 64.291 97.6172 65.3164 98.6426 65.3164Z" fill="#5A5A63"/>
<path d="M125.605 61.1367C125.303 60.2285 124.609 59.6523 123.604 59.6523C122.354 59.6523 121.357 60.6387 121.357 62.4648C121.357 64.291 122.354 65.2773 123.662 65.2773C124.858 65.2773 125.674 64.4766 125.693 63.2266H123.848V62.4551H126.553V63.2168C126.553 64.9746 125.342 66.0977 123.662 66.0977C121.777 66.0977 120.508 64.7012 120.508 62.4648C120.508 60.2285 121.787 58.832 123.604 58.832C125.098 58.832 126.25 59.7695 126.514 61.1367H125.605ZM127.764 66V60.6973H128.574V61.5078H128.633C128.828 60.9707 129.375 60.6094 130 60.6094C130.127 60.6094 130.342 60.6191 130.439 60.6289V61.4785C130.381 61.459 130.146 61.4199 129.932 61.4199C129.17 61.4199 128.604 61.9473 128.604 62.6602V66H127.764ZM130.996 64.4961C130.996 63.2754 132.07 63.002 132.988 62.9336C133.325 62.9092 134.185 62.8652 134.424 62.8555V62.4258C134.424 61.752 134.023 61.3613 133.223 61.3613C132.549 61.3613 132.148 61.6738 132.031 62.0742H131.152C131.26 61.2246 132.09 60.6289 133.262 60.6289C133.955 60.6289 135.254 60.834 135.254 62.5039V66H134.424V65.2773H134.385C134.209 65.6387 133.721 66.127 132.803 66.127C131.797 66.127 130.996 65.5312 130.996 64.4961ZM131.836 64.5352C131.836 65.0918 132.305 65.375 132.949 65.375C133.896 65.375 134.424 64.7402 134.424 64.0762V63.5391C134.175 63.5586 133.34 63.6221 133.086 63.6367C132.324 63.6855 131.836 63.959 131.836 64.5352ZM136.943 67.9922C136.758 67.9922 136.582 67.9824 136.475 67.9727V67.2207C136.562 67.2305 136.758 67.2402 136.885 67.2402C137.227 67.2402 137.51 67.2109 137.793 66.4395L137.949 66.0391L135.986 60.6973H136.904L138.35 64.9062H138.408L139.854 60.6973H140.771L138.525 66.7617C138.213 67.5918 137.695 67.9922 136.943 67.9922ZM144.199 66L144.189 65.3555L146.602 62.8164C147.441 61.9277 147.842 61.4492 147.842 60.7949C147.842 60.0723 147.227 59.5938 146.436 59.5938C145.596 59.5938 145.059 60.1309 145.059 60.9219H144.229C144.219 59.6719 145.186 58.832 146.465 58.832C147.744 58.832 148.662 59.6914 148.662 60.7949C148.662 61.5859 148.291 62.2012 147.041 63.4902L145.42 65.1602V65.2188H148.789V66H144.199ZM152.383 66.0977C150.811 66.0977 149.912 64.7793 149.912 62.4648C149.912 60.1699 150.83 58.832 152.383 58.832C153.936 58.832 154.854 60.1699 154.854 62.4648C154.854 64.7793 153.945 66.0977 152.383 66.0977ZM152.383 65.3164C153.398 65.3164 153.994 64.291 153.994 62.4648C153.994 60.6387 153.398 59.5938 152.383 59.5938C151.367 59.5938 150.762 60.6387 150.762 62.4648C150.762 64.291 151.357 65.3164 152.383 65.3164ZM158.34 66.0977C156.768 66.0977 155.869 64.7793 155.869 62.4648C155.869 60.1699 156.787 58.832 158.34 58.832C159.893 58.832 160.811 60.1699 160.811 62.4648C160.811 64.7793 159.902 66.0977 158.34 66.0977ZM158.34 65.3164C159.355 65.3164 159.951 64.291 159.951 62.4648C159.951 60.6387 159.355 59.5938 158.34 59.5938C157.324 59.5938 156.719 60.6387 156.719 62.4648C156.719 64.291 157.314 65.3164 158.34 65.3164Z" fill="#5A5A63"/>
<path d="M185.605 61.1367C185.303 60.2285 184.609 59.6523 183.604 59.6523C182.354 59.6523 181.357 60.6387 181.357 62.4648C181.357 64.291 182.354 65.2773 183.662 65.2773C184.858 65.2773 185.674 64.4766 185.693 63.2266H183.848V62.4551H186.553V63.2168C186.553 64.9746 185.342 66.0977 183.662 66.0977C181.777 66.0977 180.508 64.7012 180.508 62.4648C180.508 60.2285 181.787 58.832 183.604 58.832C185.098 58.832 186.25 59.7695 186.514 61.1367H185.605ZM187.764 66V60.6973H188.574V61.5078H188.633C188.828 60.9707 189.375 60.6094 190 60.6094C190.127 60.6094 190.342 60.6191 190.439 60.6289V61.4785C190.381 61.459 190.146 61.4199 189.932 61.4199C189.17 61.4199 188.604 61.9473 188.604 62.6602V66H187.764ZM190.996 64.4961C190.996 63.2754 192.07 63.002 192.988 62.9336C193.325 62.9092 194.185 62.8652 194.424 62.8555V62.4258C194.424 61.752 194.023 61.3613 193.223 61.3613C192.549 61.3613 192.148 61.6738 192.031 62.0742H191.152C191.26 61.2246 192.09 60.6289 193.262 60.6289C193.955 60.6289 195.254 60.834 195.254 62.5039V66H194.424V65.2773H194.385C194.209 65.6387 193.721 66.127 192.803 66.127C191.797 66.127 190.996 65.5312 190.996 64.4961ZM191.836 64.5352C191.836 65.0918 192.305 65.375 192.949 65.375C193.896 65.375 194.424 64.7402 194.424 64.0762V63.5391C194.175 63.5586 193.34 63.6221 193.086 63.6367C192.324 63.6855 191.836 63.959 191.836 64.5352ZM196.943 67.9922C196.758 67.9922 196.582 67.9824 196.475 67.9727V67.2207C196.562 67.2305 196.758 67.2402 196.885 67.2402C197.227 67.2402 197.51 67.2109 197.793 66.4395L197.949 66.0391L195.986 60.6973H196.904L198.35 64.9062H198.408L199.854 60.6973H200.771L198.525 66.7617C198.213 67.5918 197.695 67.9922 196.943 67.9922ZM206.699 58.9297V66H205.811V59.8477H205.771L204.053 60.9902V60.1016L205.811 58.9297H206.699ZM210.898 66.0977C209.326 66.0977 208.428 64.7793 208.428 62.4648C208.428 60.1699 209.346 58.832 210.898 58.832C212.451 58.832 213.369 60.1699 213.369 62.4648C213.369 64.7793 212.461 66.0977 210.898 66.0977ZM210.898 65.3164C211.914 65.3164 212.51 64.291 212.51 62.4648C212.51 60.6387 211.914 59.5938 210.898 59.5938C209.883 59.5938 209.277 60.6387 209.277 62.4648C209.277 64.291 209.873 65.3164 210.898 65.3164ZM216.855 66.0977C215.283 66.0977 214.385 64.7793 214.385 62.4648C214.385 60.1699 215.303 58.832 216.855 58.832C218.408 58.832 219.326 60.1699 219.326 62.4648C219.326 64.7793 218.418 66.0977 216.855 66.0977ZM216.855 65.3164C217.871 65.3164 218.467 64.291 218.467 62.4648C218.467 60.6387 217.871 59.5938 216.855 59.5938C215.84 59.5938 215.234 60.6387 215.234 62.4648C215.234 64.291 215.83 65.3164 216.855 65.3164Z" fill="#5A5A63"/>
<path d="M245.605 61.1367C245.303 60.2285 244.609 59.6523 243.604 59.6523C242.354 59.6523 241.357 60.6387 241.357 62.4648C241.357 64.291 242.354 65.2773 243.662 65.2773C244.858 65.2773 245.674 64.4766 245.693 63.2266H243.848V62.4551H246.553V63.2168C246.553 64.9746 245.342 66.0977 243.662 66.0977C241.777 66.0977 240.508 64.7012 240.508 62.4648C240.508 60.2285 241.787 58.832 243.604 58.832C245.098 58.832 246.25 59.7695 246.514 61.1367H245.605ZM247.764 66V60.6973H248.574V61.5078H248.633C248.828 60.9707 249.375 60.6094 250 60.6094C250.127 60.6094 250.342 60.6191 250.439 60.6289V61.4785C250.381 61.459 250.146 61.4199 249.932 61.4199C249.17 61.4199 248.604 61.9473 248.604 62.6602V66H247.764ZM250.996 64.4961C250.996 63.2754 252.07 63.002 252.988 62.9336C253.325 62.9092 254.185 62.8652 254.424 62.8555V62.4258C254.424 61.752 254.023 61.3613 253.223 61.3613C252.549 61.3613 252.148 61.6738 252.031 62.0742H251.152C251.26 61.2246 252.09 60.6289 253.262 60.6289C253.955 60.6289 255.254 60.834 255.254 62.5039V66H254.424V65.2773H254.385C254.209 65.6387 253.721 66.127 252.803 66.127C251.797 66.127 250.996 65.5312 250.996 64.4961ZM251.836 64.5352C251.836 65.0918 252.305 65.375 252.949 65.375C253.896 65.375 254.424 64.7402 254.424 64.0762V63.5391C254.175 63.5586 253.34 63.6221 253.086 63.6367C252.324 63.6855 251.836 63.959 251.836 64.5352ZM256.943 67.9922C256.758 67.9922 256.582 67.9824 256.475 67.9727V67.2207C256.562 67.2305 256.758 67.2402 256.885 67.2402C257.227 67.2402 257.51 67.2109 257.793 66.4395L257.949 66.0391L255.986 60.6973H256.904L258.35 64.9062H258.408L259.854 60.6973H260.771L258.525 66.7617C258.213 67.5918 257.695 67.9922 256.943 67.9922ZM266.504 66.0977C265.225 66.0977 264.258 65.3066 264.209 64.2227H265.059C265.127 64.8574 265.742 65.3262 266.504 65.3262C267.422 65.3262 268.086 64.6523 268.086 63.7637C268.086 62.8457 267.393 62.1719 266.445 62.1621C265.85 62.1523 265.391 62.3379 265.127 62.7969H264.277L264.775 58.9297H268.604V59.7109H265.508L265.244 61.7812H265.312C265.625 61.5371 266.104 61.3711 266.602 61.3711C267.949 61.3711 268.945 62.3672 268.945 63.7441C268.945 65.1113 267.91 66.0977 266.504 66.0977ZM272.48 66.0977C270.908 66.0977 270.01 64.7793 270.01 62.4648C270.01 60.1699 270.928 58.832 272.48 58.832C274.033 58.832 274.951 60.1699 274.951 62.4648C274.951 64.7793 274.043 66.0977 272.48 66.0977ZM272.48 65.3164C273.496 65.3164 274.092 64.291 274.092 62.4648C274.092 60.6387 273.496 59.5938 272.48 59.5938C271.465 59.5938 270.859 60.6387 270.859 62.4648C270.859 64.291 271.455 65.3164 272.48 65.3164Z" fill="#5A5A63"/>
<path d="M302.09 66L300.156 58.9297H301.045L302.52 64.6523H302.588L304.082 58.9297H305.068L306.572 64.6523H306.631L308.105 58.9297H308.994L307.061 66H306.152L304.609 60.4043H304.551L302.998 66H302.09ZM310.664 62.8164V66H309.824V58.9297H310.664V61.5273H310.732C310.977 60.9805 311.455 60.6289 312.295 60.6289C313.379 60.6289 314.102 61.2734 314.102 62.6309V66H313.262V62.6895C313.262 61.8594 312.803 61.3809 312.041 61.3809C311.25 61.3809 310.664 61.8984 310.664 62.8164ZM315.449 66V60.6973H316.289V66H315.449ZM315.869 59.8184C315.547 59.8184 315.283 59.5742 315.283 59.2617C315.283 58.9492 315.547 58.7051 315.869 58.7051C316.191 58.7051 316.465 58.9492 316.465 59.2617C316.465 59.5742 316.191 59.8184 315.869 59.8184ZM319.941 60.6973V61.4004H318.828V64.4766C318.828 65.1602 319.16 65.2676 319.521 65.2676C319.678 65.2676 319.893 65.2578 320.02 65.248V66.0293C319.893 66.0488 319.678 66.0684 319.434 66.0684C318.73 66.0684 317.979 65.6289 317.979 64.6914V61.4004H317.178V60.6973H317.979V59.4277H318.828V60.6973H319.941ZM323.193 66.1074C321.66 66.1074 320.713 65.0234 320.713 63.3926C320.713 61.7617 321.67 60.6289 323.115 60.6289C324.229 60.6289 325.4 61.3125 325.4 63.2754V63.627H321.553C321.592 64.75 322.246 65.3652 323.193 65.3652C323.828 65.3652 324.229 65.0918 324.424 64.7598H325.322C325.068 65.5605 324.287 66.1074 323.193 66.1074ZM321.562 62.9141H324.551C324.551 62.0254 323.984 61.3711 323.115 61.3711C322.197 61.3711 321.611 62.0938 321.562 62.9141Z" fill="#5A5A63"/>
</svg>
