<svg width="354" height="68" viewBox="0 0 354 68" fill="none" xmlns="http://www.w3.org/2000/svg">
<rect x="60" width="54" height="54" rx="4" fill="#0B0B0C"/>
<rect width="54" height="54" rx="4" fill="#0B0B0C"/>
<rect x="180" width="54" height="54" rx="4" fill="#44444A"/>
<rect x="120" width="54" height="54" rx="4" fill="#2E2E32"/>
<rect x="240" width="54" height="54" rx="4" fill="#5A5A63"/>
<rect x="300" width="54" height="54" rx="4" fill="#6E6E78"/>
<path d="M5.60547 61.1367C5.30273 60.2285 4.60938 59.6523 3.60352 59.6523C2.35352 59.6523 1.35742 60.6387 1.35742 62.4648C1.35742 64.291 2.35352 65.2773 3.66211 65.2773C4.8584 65.2773 5.67383 64.4766 5.69336 63.2266H3.84766V62.4551H6.55273V63.2168C6.55273 64.9746 5.3418 66.0977 3.66211 66.0977C1.77734 66.0977 0.507812 64.7012 0.507812 62.4648C0.507812 60.2285 1.78711 58.832 3.60352 58.832C5.09766 58.832 6.25 59.7695 6.51367 61.1367H5.60547ZM7.76367 66V60.6973H8.57422V61.5078H8.63281C8.82812 60.9707 9.375 60.6094 10 60.6094C10.127 60.6094 10.3418 60.6191 10.4395 60.6289V61.4785C10.3809 61.459 10.1465 61.4199 9.93164 61.4199C9.16992 61.4199 8.60352 61.9473 8.60352 62.6602V66H7.76367ZM10.9961 64.4961C10.9961 63.2754 12.0703 63.002 12.9883 62.9336C13.3252 62.9092 14.1846 62.8652 14.4238 62.8555V62.4258C14.4238 61.752 14.0234 61.3613 13.2227 61.3613C12.5488 61.3613 12.1484 61.6738 12.0312 62.0742H11.1523C11.2598 61.2246 12.0898 60.6289 13.2617 60.6289C13.9551 60.6289 15.2539 60.834 15.2539 62.5039V66H14.4238V65.2773H14.3848C14.209 65.6387 13.7207 66.127 12.8027 66.127C11.7969 66.127 10.9961 65.5312 10.9961 64.4961ZM11.8359 64.5352C11.8359 65.0918 12.3047 65.375 12.9492 65.375C13.8965 65.375 14.4238 64.7402 14.4238 64.0762V63.5391C14.1748 63.5586 13.3398 63.6221 13.0859 63.6367C12.3242 63.6855 11.8359 63.959 11.8359 64.5352ZM16.9434 67.9922C16.7578 67.9922 16.582 67.9824 16.4746 67.9727V67.2207C16.5625 67.2305 16.7578 67.2402 16.8848 67.2402C17.2266 67.2402 17.5098 67.2109 17.793 66.4395L17.9492 66.0391L15.9863 60.6973H16.9043L18.3496 64.9062H18.4082L19.8535 60.6973H20.7715L18.5254 66.7617C18.2129 67.5918 17.6953 67.9922 16.9434 67.9922ZM26.5527 58.832C27.7734 58.8418 29.1211 59.5742 29.1211 62.1816C29.1211 64.6914 28.0957 66.0977 26.4355 66.0977C25.1953 66.0977 24.3164 65.3359 24.1406 64.2129H25.0098C25.166 64.8477 25.6445 65.3164 26.4355 65.3164C27.5879 65.3164 28.291 64.3203 28.3008 62.6016H28.2031C27.793 63.1875 27.1484 63.5391 26.3965 63.5391C25.127 63.5391 24.082 62.5723 24.082 61.2051C24.082 59.8867 25.0488 58.8223 26.5527 58.832ZM26.5527 59.6035C25.625 59.6035 24.9316 60.3262 24.9414 61.1953C24.9414 62.0742 25.5957 62.7676 26.5234 62.7676C27.4414 62.7676 28.1641 62.0059 28.1641 61.1758C28.1641 60.3652 27.4902 59.6035 26.5527 59.6035ZM32.6367 66.0977C31.3574 66.0977 30.3906 65.3066 30.3418 64.2227H31.1914C31.2598 64.8574 31.875 65.3262 32.6367 65.3262C33.5547 65.3262 34.2188 64.6523 34.2188 63.7637C34.2188 62.8457 33.5254 62.1719 32.5781 62.1621C31.9824 62.1523 31.5234 62.3379 31.2598 62.7969H30.4102L30.9082 58.9297H34.7363V59.7109H31.6406L31.377 61.7812H31.4453C31.7578 61.5371 32.2363 61.3711 32.7344 61.3711C34.082 61.3711 35.0781 62.3672 35.0781 63.7441C35.0781 65.1113 34.043 66.0977 32.6367 66.0977ZM38.6133 66.0977C37.041 66.0977 36.1426 64.7793 36.1426 62.4648C36.1426 60.1699 37.0605 58.832 38.6133 58.832C40.166 58.832 41.084 60.1699 41.084 62.4648C41.084 64.7793 40.1758 66.0977 38.6133 66.0977ZM38.6133 65.3164C39.6289 65.3164 40.2246 64.291 40.2246 62.4648C40.2246 60.6387 39.6289 59.5938 38.6133 59.5938C37.5977 59.5938 36.9922 60.6387 36.9922 62.4648C36.9922 64.291 37.5879 65.3164 38.6133 65.3164Z" fill="#5A5A63"/>
<path d="M65.6055 61.1367C65.3027 60.2285 64.6094 59.6523 63.6035 59.6523C62.3535 59.6523 61.3574 60.6387 61.3574 62.4648C61.3574 64.291 62.3535 65.2773 63.6621 65.2773C64.8584 65.2773 65.6738 64.4766 65.6934 63.2266H63.8477V62.4551H66.5527V63.2168C66.5527 64.9746 65.3418 66.0977 63.6621 66.0977C61.7773 66.0977 60.5078 64.7012 60.5078 62.4648C60.5078 60.2285 61.7871 58.832 63.6035 58.832C65.0977 58.832 66.25 59.7695 66.5137 61.1367H65.6055ZM67.7637 66V60.6973H68.5742V61.5078H68.6328C68.8281 60.9707 69.375 60.6094 70 60.6094C70.127 60.6094 70.3418 60.6191 70.4395 60.6289V61.4785C70.3809 61.459 70.1465 61.4199 69.9316 61.4199C69.1699 61.4199 68.6035 61.9473 68.6035 62.6602V66H67.7637ZM70.9961 64.4961C70.9961 63.2754 72.0703 63.002 72.9883 62.9336C73.3252 62.9092 74.1846 62.8652 74.4238 62.8555V62.4258C74.4238 61.752 74.0234 61.3613 73.2227 61.3613C72.5488 61.3613 72.1484 61.6738 72.0312 62.0742H71.1523C71.2598 61.2246 72.0898 60.6289 73.2617 60.6289C73.9551 60.6289 75.2539 60.834 75.2539 62.5039V66H74.4238V65.2773H74.3848C74.209 65.6387 73.7207 66.127 72.8027 66.127C71.7969 66.127 70.9961 65.5312 70.9961 64.4961ZM71.8359 64.5352C71.8359 65.0918 72.3047 65.375 72.9492 65.375C73.8965 65.375 74.4238 64.7402 74.4238 64.0762V63.5391C74.1748 63.5586 73.3398 63.6221 73.0859 63.6367C72.3242 63.6855 71.8359 63.959 71.8359 64.5352ZM76.9434 67.9922C76.7578 67.9922 76.582 67.9824 76.4746 67.9727V67.2207C76.5625 67.2305 76.7578 67.2402 76.8848 67.2402C77.2266 67.2402 77.5098 67.2109 77.793 66.4395L77.9492 66.0391L75.9863 60.6973H76.9043L78.3496 64.9062H78.4082L79.8535 60.6973H80.7715L78.5254 66.7617C78.2129 67.5918 77.6953 67.9922 76.9434 67.9922ZM86.5527 58.832C87.7734 58.8418 89.1211 59.5742 89.1211 62.1816C89.1211 64.6914 88.0957 66.0977 86.4355 66.0977C85.1953 66.0977 84.3164 65.3359 84.1406 64.2129H85.0098C85.166 64.8477 85.6445 65.3164 86.4355 65.3164C87.5879 65.3164 88.291 64.3203 88.3008 62.6016H88.2031C87.793 63.1875 87.1484 63.5391 86.3965 63.5391C85.127 63.5391 84.082 62.5723 84.082 61.2051C84.082 59.8867 85.0488 58.8223 86.5527 58.832ZM86.5527 59.6035C85.625 59.6035 84.9316 60.3262 84.9414 61.1953C84.9414 62.0742 85.5957 62.7676 86.5234 62.7676C87.4414 62.7676 88.1641 62.0059 88.1641 61.1758C88.1641 60.3652 87.4902 59.6035 86.5527 59.6035ZM92.6465 66.0977C91.0742 66.0977 90.1758 64.7793 90.1758 62.4648C90.1758 60.1699 91.0938 58.832 92.6465 58.832C94.1992 58.832 95.1172 60.1699 95.1172 62.4648C95.1172 64.7793 94.209 66.0977 92.6465 66.0977ZM92.6465 65.3164C93.6621 65.3164 94.2578 64.291 94.2578 62.4648C94.2578 60.6387 93.6621 59.5938 92.6465 59.5938C91.6309 59.5938 91.0254 60.6387 91.0254 62.4648C91.0254 64.291 91.6211 65.3164 92.6465 65.3164ZM98.6035 66.0977C97.0312 66.0977 96.1328 64.7793 96.1328 62.4648C96.1328 60.1699 97.0508 58.832 98.6035 58.832C100.156 58.832 101.074 60.1699 101.074 62.4648C101.074 64.7793 100.166 66.0977 98.6035 66.0977ZM98.6035 65.3164C99.6191 65.3164 100.215 64.291 100.215 62.4648C100.215 60.6387 99.6191 59.5938 98.6035 59.5938C97.5879 59.5938 96.9824 60.6387 96.9824 62.4648C96.9824 64.291 97.5781 65.3164 98.6035 65.3164Z" fill="#5A5A63"/>
<path d="M125.605 61.1367C125.303 60.2285 124.609 59.6523 123.604 59.6523C122.354 59.6523 121.357 60.6387 121.357 62.4648C121.357 64.291 122.354 65.2773 123.662 65.2773C124.858 65.2773 125.674 64.4766 125.693 63.2266H123.848V62.4551H126.553V63.2168C126.553 64.9746 125.342 66.0977 123.662 66.0977C121.777 66.0977 120.508 64.7012 120.508 62.4648C120.508 60.2285 121.787 58.832 123.604 58.832C125.098 58.832 126.25 59.7695 126.514 61.1367H125.605ZM127.764 66V60.6973H128.574V61.5078H128.633C128.828 60.9707 129.375 60.6094 130 60.6094C130.127 60.6094 130.342 60.6191 130.439 60.6289V61.4785C130.381 61.459 130.146 61.4199 129.932 61.4199C129.17 61.4199 128.604 61.9473 128.604 62.6602V66H127.764ZM130.996 64.4961C130.996 63.2754 132.07 63.002 132.988 62.9336C133.325 62.9092 134.185 62.8652 134.424 62.8555V62.4258C134.424 61.752 134.023 61.3613 133.223 61.3613C132.549 61.3613 132.148 61.6738 132.031 62.0742H131.152C131.26 61.2246 132.09 60.6289 133.262 60.6289C133.955 60.6289 135.254 60.834 135.254 62.5039V66H134.424V65.2773H134.385C134.209 65.6387 133.721 66.127 132.803 66.127C131.797 66.127 130.996 65.5312 130.996 64.4961ZM131.836 64.5352C131.836 65.0918 132.305 65.375 132.949 65.375C133.896 65.375 134.424 64.7402 134.424 64.0762V63.5391C134.175 63.5586 133.34 63.6221 133.086 63.6367C132.324 63.6855 131.836 63.959 131.836 64.5352ZM136.943 67.9922C136.758 67.9922 136.582 67.9824 136.475 67.9727V67.2207C136.562 67.2305 136.758 67.2402 136.885 67.2402C137.227 67.2402 137.51 67.2109 137.793 66.4395L137.949 66.0391L135.986 60.6973H136.904L138.35 64.9062H138.408L139.854 60.6973H140.771L138.525 66.7617C138.213 67.5918 137.695 67.9922 136.943 67.9922ZM146.562 66.0977C145.078 66.0977 144.043 65.2773 144.053 64.125C144.043 63.207 144.678 62.4551 145.488 62.3281V62.2891C144.785 62.123 144.326 61.4785 144.326 60.707C144.326 59.623 145.273 58.832 146.562 58.832C147.852 58.832 148.799 59.623 148.809 60.707C148.799 61.4785 148.33 62.123 147.637 62.2891V62.3281C148.438 62.4551 149.072 63.207 149.082 64.125C149.072 65.2773 148.037 66.0977 146.562 66.0977ZM146.562 65.3262C147.578 65.3262 148.203 64.8184 148.203 64.0762C148.203 63.2949 147.51 62.7188 146.562 62.7188C145.615 62.7188 144.912 63.2949 144.932 64.0762C144.912 64.8184 145.547 65.3262 146.562 65.3262ZM146.562 61.9766C147.363 61.9766 147.949 61.4883 147.949 60.7754C147.949 60.0723 147.393 59.5938 146.562 59.5938C145.723 59.5938 145.176 60.0723 145.176 60.7754C145.176 61.4883 145.752 61.9766 146.562 61.9766ZM152.578 66.0977C151.006 66.0977 150.107 64.7793 150.107 62.4648C150.107 60.1699 151.025 58.832 152.578 58.832C154.131 58.832 155.049 60.1699 155.049 62.4648C155.049 64.7793 154.141 66.0977 152.578 66.0977ZM152.578 65.3164C153.594 65.3164 154.189 64.291 154.189 62.4648C154.189 60.6387 153.594 59.5938 152.578 59.5938C151.562 59.5938 150.957 60.6387 150.957 62.4648C150.957 64.291 151.553 65.3164 152.578 65.3164ZM158.535 66.0977C156.963 66.0977 156.064 64.7793 156.064 62.4648C156.064 60.1699 156.982 58.832 158.535 58.832C160.088 58.832 161.006 60.1699 161.006 62.4648C161.006 64.7793 160.098 66.0977 158.535 66.0977ZM158.535 65.3164C159.551 65.3164 160.146 64.291 160.146 62.4648C160.146 60.6387 159.551 59.5938 158.535 59.5938C157.52 59.5938 156.914 60.6387 156.914 62.4648C156.914 64.291 157.51 65.3164 158.535 65.3164Z" fill="#5A5A63"/>
<path d="M185.605 61.1367C185.303 60.2285 184.609 59.6523 183.604 59.6523C182.354 59.6523 181.357 60.6387 181.357 62.4648C181.357 64.291 182.354 65.2773 183.662 65.2773C184.858 65.2773 185.674 64.4766 185.693 63.2266H183.848V62.4551H186.553V63.2168C186.553 64.9746 185.342 66.0977 183.662 66.0977C181.777 66.0977 180.508 64.7012 180.508 62.4648C180.508 60.2285 181.787 58.832 183.604 58.832C185.098 58.832 186.25 59.7695 186.514 61.1367H185.605ZM187.764 66V60.6973H188.574V61.5078H188.633C188.828 60.9707 189.375 60.6094 190 60.6094C190.127 60.6094 190.342 60.6191 190.439 60.6289V61.4785C190.381 61.459 190.146 61.4199 189.932 61.4199C189.17 61.4199 188.604 61.9473 188.604 62.6602V66H187.764ZM190.996 64.4961C190.996 63.2754 192.07 63.002 192.988 62.9336C193.325 62.9092 194.185 62.8652 194.424 62.8555V62.4258C194.424 61.752 194.023 61.3613 193.223 61.3613C192.549 61.3613 192.148 61.6738 192.031 62.0742H191.152C191.26 61.2246 192.09 60.6289 193.262 60.6289C193.955 60.6289 195.254 60.834 195.254 62.5039V66H194.424V65.2773H194.385C194.209 65.6387 193.721 66.127 192.803 66.127C191.797 66.127 190.996 65.5312 190.996 64.4961ZM191.836 64.5352C191.836 65.0918 192.305 65.375 192.949 65.375C193.896 65.375 194.424 64.7402 194.424 64.0762V63.5391C194.175 63.5586 193.34 63.6221 193.086 63.6367C192.324 63.6855 191.836 63.959 191.836 64.5352ZM196.943 67.9922C196.758 67.9922 196.582 67.9824 196.475 67.9727V67.2207C196.562 67.2305 196.758 67.2402 196.885 67.2402C197.227 67.2402 197.51 67.2109 197.793 66.4395L197.949 66.0391L195.986 60.6973H196.904L198.35 64.9062H198.408L199.854 60.6973H200.771L198.525 66.7617C198.213 67.5918 197.695 67.9922 196.943 67.9922ZM204.424 66L207.666 59.7598V59.7109H203.926V58.9297H208.574V59.75L205.342 66H204.424ZM211.875 66.0977C210.303 66.0977 209.404 64.7793 209.404 62.4648C209.404 60.1699 210.322 58.832 211.875 58.832C213.428 58.832 214.346 60.1699 214.346 62.4648C214.346 64.7793 213.438 66.0977 211.875 66.0977ZM211.875 65.3164C212.891 65.3164 213.486 64.291 213.486 62.4648C213.486 60.6387 212.891 59.5938 211.875 59.5938C210.859 59.5938 210.254 60.6387 210.254 62.4648C210.254 64.291 210.85 65.3164 211.875 65.3164ZM217.832 66.0977C216.26 66.0977 215.361 64.7793 215.361 62.4648C215.361 60.1699 216.279 58.832 217.832 58.832C219.385 58.832 220.303 60.1699 220.303 62.4648C220.303 64.7793 219.395 66.0977 217.832 66.0977ZM217.832 65.3164C218.848 65.3164 219.443 64.291 219.443 62.4648C219.443 60.6387 218.848 59.5938 217.832 59.5938C216.816 59.5938 216.211 60.6387 216.211 62.4648C216.211 64.291 216.807 65.3164 217.832 65.3164Z" fill="#5A5A63"/>
<path d="M245.605 61.1367C245.303 60.2285 244.609 59.6523 243.604 59.6523C242.354 59.6523 241.357 60.6387 241.357 62.4648C241.357 64.291 242.354 65.2773 243.662 65.2773C244.858 65.2773 245.674 64.4766 245.693 63.2266H243.848V62.4551H246.553V63.2168C246.553 64.9746 245.342 66.0977 243.662 66.0977C241.777 66.0977 240.508 64.7012 240.508 62.4648C240.508 60.2285 241.787 58.832 243.604 58.832C245.098 58.832 246.25 59.7695 246.514 61.1367H245.605ZM247.764 66V60.6973H248.574V61.5078H248.633C248.828 60.9707 249.375 60.6094 250 60.6094C250.127 60.6094 250.342 60.6191 250.439 60.6289V61.4785C250.381 61.459 250.146 61.4199 249.932 61.4199C249.17 61.4199 248.604 61.9473 248.604 62.6602V66H247.764ZM250.996 64.4961C250.996 63.2754 252.07 63.002 252.988 62.9336C253.325 62.9092 254.185 62.8652 254.424 62.8555V62.4258C254.424 61.752 254.023 61.3613 253.223 61.3613C252.549 61.3613 252.148 61.6738 252.031 62.0742H251.152C251.26 61.2246 252.09 60.6289 253.262 60.6289C253.955 60.6289 255.254 60.834 255.254 62.5039V66H254.424V65.2773H254.385C254.209 65.6387 253.721 66.127 252.803 66.127C251.797 66.127 250.996 65.5312 250.996 64.4961ZM251.836 64.5352C251.836 65.0918 252.305 65.375 252.949 65.375C253.896 65.375 254.424 64.7402 254.424 64.0762V63.5391C254.175 63.5586 253.34 63.6221 253.086 63.6367C252.324 63.6855 251.836 63.959 251.836 64.5352ZM256.943 67.9922C256.758 67.9922 256.582 67.9824 256.475 67.9727V67.2207C256.562 67.2305 256.758 67.2402 256.885 67.2402C257.227 67.2402 257.51 67.2109 257.793 66.4395L257.949 66.0391L255.986 60.6973H256.904L258.35 64.9062H258.408L259.854 60.6973H260.771L258.525 66.7617C258.213 67.5918 257.695 67.9922 256.943 67.9922ZM266.66 66.0977C265.43 66.0781 264.082 65.3555 264.082 62.7383C264.082 60.2383 265.107 58.832 266.768 58.832C268.008 58.832 268.877 59.5938 269.062 60.707H268.193C268.027 60.082 267.559 59.6133 266.768 59.6133C265.605 59.6133 264.912 60.6094 264.912 62.3086H265C265.41 61.7227 266.055 61.3711 266.816 61.3711C268.076 61.3711 269.121 62.3477 269.121 63.7148C269.121 65.043 268.145 66.1074 266.66 66.0977ZM266.66 65.3262C267.578 65.3262 268.262 64.6035 268.271 63.7246C268.262 62.8555 267.607 62.1426 266.68 62.1426C265.752 62.1426 265.039 62.8945 265.029 63.7344C265.029 64.5645 265.713 65.3262 266.66 65.3262ZM272.646 66.0977C271.074 66.0977 270.176 64.7793 270.176 62.4648C270.176 60.1699 271.094 58.832 272.646 58.832C274.199 58.832 275.117 60.1699 275.117 62.4648C275.117 64.7793 274.209 66.0977 272.646 66.0977ZM272.646 65.3164C273.662 65.3164 274.258 64.291 274.258 62.4648C274.258 60.6387 273.662 59.5938 272.646 59.5938C271.631 59.5938 271.025 60.6387 271.025 62.4648C271.025 64.291 271.621 65.3164 272.646 65.3164ZM278.604 66.0977C277.031 66.0977 276.133 64.7793 276.133 62.4648C276.133 60.1699 277.051 58.832 278.604 58.832C280.156 58.832 281.074 60.1699 281.074 62.4648C281.074 64.7793 280.166 66.0977 278.604 66.0977ZM278.604 65.3164C279.619 65.3164 280.215 64.291 280.215 62.4648C280.215 60.6387 279.619 59.5938 278.604 59.5938C277.588 59.5938 276.982 60.6387 276.982 62.4648C276.982 64.291 277.578 65.3164 278.604 65.3164Z" fill="#5A5A63"/>
<path d="M305.605 61.1367C305.303 60.2285 304.609 59.6523 303.604 59.6523C302.354 59.6523 301.357 60.6387 301.357 62.4648C301.357 64.291 302.354 65.2773 303.662 65.2773C304.858 65.2773 305.674 64.4766 305.693 63.2266H303.848V62.4551H306.553V63.2168C306.553 64.9746 305.342 66.0977 303.662 66.0977C301.777 66.0977 300.508 64.7012 300.508 62.4648C300.508 60.2285 301.787 58.832 303.604 58.832C305.098 58.832 306.25 59.7695 306.514 61.1367H305.605ZM307.764 66V60.6973H308.574V61.5078H308.633C308.828 60.9707 309.375 60.6094 310 60.6094C310.127 60.6094 310.342 60.6191 310.439 60.6289V61.4785C310.381 61.459 310.146 61.4199 309.932 61.4199C309.17 61.4199 308.604 61.9473 308.604 62.6602V66H307.764ZM310.996 64.4961C310.996 63.2754 312.07 63.002 312.988 62.9336C313.325 62.9092 314.185 62.8652 314.424 62.8555V62.4258C314.424 61.752 314.023 61.3613 313.223 61.3613C312.549 61.3613 312.148 61.6738 312.031 62.0742H311.152C311.26 61.2246 312.09 60.6289 313.262 60.6289C313.955 60.6289 315.254 60.834 315.254 62.5039V66H314.424V65.2773H314.385C314.209 65.6387 313.721 66.127 312.803 66.127C311.797 66.127 310.996 65.5312 310.996 64.4961ZM311.836 64.5352C311.836 65.0918 312.305 65.375 312.949 65.375C313.896 65.375 314.424 64.7402 314.424 64.0762V63.5391C314.175 63.5586 313.34 63.6221 313.086 63.6367C312.324 63.6855 311.836 63.959 311.836 64.5352ZM316.943 67.9922C316.758 67.9922 316.582 67.9824 316.475 67.9727V67.2207C316.562 67.2305 316.758 67.2402 316.885 67.2402C317.227 67.2402 317.51 67.2109 317.793 66.4395L317.949 66.0391L315.986 60.6973H316.904L318.35 64.9062H318.408L319.854 60.6973H320.771L318.525 66.7617C318.213 67.5918 317.695 67.9922 316.943 67.9922ZM326.504 66.0977C325.225 66.0977 324.258 65.3066 324.209 64.2227H325.059C325.127 64.8574 325.742 65.3262 326.504 65.3262C327.422 65.3262 328.086 64.6523 328.086 63.7637C328.086 62.8457 327.393 62.1719 326.445 62.1621C325.85 62.1523 325.391 62.3379 325.127 62.7969H324.277L324.775 58.9297H328.604V59.7109H325.508L325.244 61.7812H325.312C325.625 61.5371 326.104 61.3711 326.602 61.3711C327.949 61.3711 328.945 62.3672 328.945 63.7441C328.945 65.1113 327.91 66.0977 326.504 66.0977ZM332.48 66.0977C330.908 66.0977 330.01 64.7793 330.01 62.4648C330.01 60.1699 330.928 58.832 332.48 58.832C334.033 58.832 334.951 60.1699 334.951 62.4648C334.951 64.7793 334.043 66.0977 332.48 66.0977ZM332.48 65.3164C333.496 65.3164 334.092 64.291 334.092 62.4648C334.092 60.6387 333.496 59.5938 332.48 59.5938C331.465 59.5938 330.859 60.6387 330.859 62.4648C330.859 64.291 331.455 65.3164 332.48 65.3164ZM338.438 66.0977C336.865 66.0977 335.967 64.7793 335.967 62.4648C335.967 60.1699 336.885 58.832 338.438 58.832C339.99 58.832 340.908 60.1699 340.908 62.4648C340.908 64.7793 340 66.0977 338.438 66.0977ZM338.438 65.3164C339.453 65.3164 340.049 64.291 340.049 62.4648C340.049 60.6387 339.453 59.5938 338.438 59.5938C337.422 59.5938 336.816 60.6387 336.816 62.4648C336.816 64.291 337.412 65.3164 338.438 65.3164Z" fill="#5A5A63"/>
</svg>
