<svg width="24" height="24" viewBox="0 0 24 24" fill="none" xmlns="http://www.w3.org/2000/svg">
<path d="M9.88864 8.68637L11.4731 6.06337L10.1039 3.79612C9.92322 3.48845 9.65822 3.33462 9.30889 3.33462C8.95956 3.33462 8.69448 3.48845 8.51364 3.79612L6.72314 6.79037C6.60264 7.00437 6.56997 7.23445 6.62514 7.48062C6.68031 7.72678 6.81498 7.91012 7.02914 8.03062L8.64814 8.99787C8.86231 9.11837 9.09089 9.15012 9.33389 9.09312C9.57672 9.03612 9.76164 8.90053 9.88864 8.68637ZM18.3461 15.7306L16.7711 13.1076C16.634 12.8935 16.5981 12.6633 16.6636 12.4171C16.729 12.171 16.8687 11.9876 17.0829 11.8671L18.7271 10.9249C18.9411 10.8044 19.1686 10.7726 19.4096 10.8296C19.6506 10.8868 19.8314 11.0224 19.9519 11.2364L20.9751 12.9364C21.1391 13.2005 21.2311 13.4948 21.2511 13.8191C21.271 14.1435 21.204 14.4428 21.0501 14.7171C20.8963 15.0313 20.6681 15.2787 20.3654 15.4594C20.0629 15.6402 19.736 15.7306 19.3846 15.7306H18.3461ZM14.9194 21.4191L12.6329 19.1326C12.4521 18.9518 12.3616 18.7409 12.3616 18.4999C12.3616 18.2589 12.4521 18.048 12.6329 17.8671L14.9194 15.5806C15.0667 15.4331 15.2324 15.3963 15.4164 15.4701C15.6004 15.5438 15.6924 15.6845 15.6924 15.8921V16.6536H20.0769L18.7424 19.3326C18.5719 19.6403 18.3396 19.8861 18.0454 20.0701C17.7511 20.254 17.4283 20.3459 17.0771 20.3459H15.6924V21.1076C15.6924 21.3153 15.6004 21.456 15.4164 21.5296C15.2324 21.6033 15.0667 21.5665 14.9194 21.4191ZM6.75789 20.3459C6.45022 20.3459 6.17006 20.2665 5.91739 20.1076C5.66489 19.9486 5.47839 19.737 5.35789 19.4729C5.23739 19.2255 5.17972 18.9672 5.18489 18.6979C5.18989 18.4287 5.26097 18.1787 5.39814 17.9479L6.18089 16.6536H9.25014C9.50781 16.6536 9.72289 16.7399 9.89539 16.9124C10.0677 17.0847 10.1539 17.2998 10.1539 17.5576V19.4421C10.1539 19.6998 10.0677 19.9149 9.89539 20.0874C9.72289 20.2597 9.50781 20.3459 9.25014 20.3459H6.75789ZM4.47514 17.7171L2.97514 14.7171C2.83164 14.4365 2.76564 14.138 2.77714 13.8219C2.78864 13.5059 2.87964 13.2107 3.05014 12.9364L3.41164 12.3191L2.76564 11.9384C2.60147 11.8345 2.53447 11.6797 2.56464 11.4739C2.59481 11.2682 2.70856 11.1435 2.90589 11.0999L6.01939 10.3229C6.26039 10.2627 6.48889 10.297 6.70489 10.4259C6.92106 10.5547 7.05922 10.7396 7.11939 10.9806L7.89639 14.1094C7.93989 14.3069 7.87964 14.4659 7.71564 14.5864C7.55147 14.7069 7.38731 14.7152 7.22314 14.6114L6.57714 14.2056L4.47514 17.7171ZM16.0579 9.59987L12.9444 8.82287C12.7469 8.77937 12.6373 8.6547 12.6156 8.44887C12.5938 8.2432 12.6649 8.08845 12.8289 7.98462L13.4751 7.60387L10.5906 2.80762H13.8464C14.1707 2.80762 14.4742 2.8887 14.7569 3.05087C15.0396 3.21303 15.2661 3.43128 15.4366 3.70562L16.6404 5.71712L17.2521 5.33637C17.4161 5.23253 17.5818 5.23928 17.7491 5.35662C17.9165 5.47395 17.9783 5.63137 17.9346 5.82887L17.1579 8.94212C17.0976 9.18312 16.9594 9.36812 16.7434 9.49712C16.5274 9.62595 16.2989 9.6602 16.0579 9.59987Z" fill="#5A57FF"/>
</svg>
