<svg width="24" height="24" viewBox="0 0 24 24" fill="none" xmlns="http://www.w3.org/2000/svg">
<path d="M11.6636 13.2776L15.7366 9.20431C15.8751 9.06598 16.0491 8.99514 16.2588 8.99181C16.4683 8.98864 16.6456 9.05948 16.7906 9.20431C16.9354 9.34931 17.0078 9.52498 17.0078 9.73131C17.0078 9.93764 16.9354 10.1133 16.7906 10.2583L12.2963 14.7526C12.2026 14.8461 12.1039 14.9121 12.0001 14.9506C11.8962 14.9891 11.7841 15.0083 11.6636 15.0083C11.5431 15.0083 11.4309 14.9891 11.3271 14.9506C11.2232 14.9121 11.1245 14.8461 11.0308 14.7526L6.53656 10.2583C6.39823 10.1198 6.32739 9.94573 6.32406 9.73606C6.32089 9.52656 6.39173 9.34931 6.53656 9.20431C6.68156 9.05948 6.85723 8.98706 7.06356 8.98706C7.26989 8.98706 7.44556 9.05948 7.59056 9.20431L11.6636 13.2776Z" fill="#E4E4EA"/>
</svg>
