<svg width="24" height="24" viewBox="0 0 24 24" fill="none" xmlns="http://www.w3.org/2000/svg">
<path d="M10.9997 12.8845C11.2446 12.8845 11.4532 12.7983 11.6257 12.626C11.7981 12.4535 11.8842 12.2448 11.8842 12C11.8842 11.7552 11.7981 11.5465 11.6257 11.374C11.4532 11.2017 11.2446 11.1155 10.9997 11.1155C10.7549 11.1155 10.5462 11.2017 10.3737 11.374C10.2014 11.5465 10.1152 11.7552 10.1152 12C10.1152 12.2448 10.2014 12.4535 10.3737 12.626C10.5462 12.7983 10.7549 12.8845 10.9997 12.8845ZM6.99972 20.5V19L13.221 18.173C13.2978 18.1667 13.3635 18.1347 13.418 18.077C13.4725 18.0193 13.4997 17.952 13.4997 17.875V6.6635C13.4997 6.34933 13.4007 6.073 13.2027 5.8345C13.0046 5.59617 12.7568 5.46033 12.4595 5.427L7.30747 4.75V3.25L12.6727 3.95775C13.3484 4.05892 13.9051 4.36208 14.343 4.86725C14.7808 5.37242 14.9997 5.96283 14.9997 6.6385V17.8443C14.9997 18.2891 14.851 18.6814 14.5535 19.0212C14.2561 19.3609 13.8851 19.5628 13.4402 19.627L6.99972 20.5ZM6.99972 19H16.9997V5.05775C16.9997 4.96792 16.9709 4.89417 16.9132 4.8365C16.8556 4.77883 16.7818 4.75 16.692 4.75H7.30747C7.21764 4.75 7.14389 4.77883 7.08622 4.8365C7.02855 4.89417 6.99972 4.96792 6.99972 5.05775V19ZM4.48047 20.5C4.26764 20.5 4.08947 20.4282 3.94597 20.2845C3.8023 20.141 3.73047 19.9628 3.73047 19.75C3.73047 19.5372 3.8023 19.359 3.94597 19.2155C4.08947 19.0718 4.26764 19 4.48047 19H5.49972V5.05775C5.49972 4.55908 5.6763 4.13308 6.02947 3.77975C6.3828 3.42658 6.8088 3.25 7.30747 3.25H16.692C17.1906 3.25 17.6166 3.42658 17.97 3.77975C18.3231 4.13308 18.4997 4.55908 18.4997 5.05775V19H19.519C19.7318 19 19.91 19.0718 20.0535 19.2155C20.1971 19.359 20.269 19.5372 20.269 19.75C20.269 19.9628 20.1971 20.141 20.0535 20.2845C19.91 20.4282 19.7318 20.5 19.519 20.5H4.48047Z" fill="#5A57FF"/>
</svg>
