<svg width="1088" height="745" viewBox="0 0 1088 745" fill="none" xmlns="http://www.w3.org/2000/svg">
<g clip-path="url(#clip0_2166_2179)">
<rect x="118" y="12" width="160" height="49" rx="24.5" fill="#4340F2"/>
<path d="M182.898 33.7129C182.803 32.7969 181.996 32.2637 180.861 32.2637C179.645 32.2637 178.879 32.8789 178.879 33.7266C178.879 34.6699 179.904 35.0254 180.684 35.2168L181.641 35.4766C182.912 35.7773 184.484 36.4746 184.498 38.2656C184.484 39.9336 183.158 41.1641 180.82 41.1641C178.605 41.1641 177.211 40.0566 177.115 38.252H178.619C178.715 39.332 179.658 39.8516 180.82 39.8516C182.078 39.8516 182.994 39.209 183.008 38.2383C182.994 37.377 182.188 37.0215 181.135 36.748L179.959 36.4336C178.373 35.9961 177.375 35.1895 177.375 33.8086C177.375 32.0996 178.906 30.9648 180.902 30.9648C182.912 30.9648 184.32 32.1133 184.361 33.7129H182.898ZM185.988 43.7891V33.5762H187.41V34.7793H187.533C187.793 34.3145 188.299 33.4805 189.666 33.4805C191.457 33.4805 192.783 34.8887 192.783 37.3086C192.783 39.7012 191.484 41.1504 189.68 41.1504C188.326 41.1504 187.793 40.3301 187.533 39.8379H187.451V43.7891H185.988ZM187.424 37.2812C187.424 38.8398 188.107 39.9062 189.352 39.9062C190.637 39.9062 191.307 38.7715 191.307 37.2812C191.307 35.8184 190.65 34.7246 189.352 34.7246C188.094 34.7246 187.424 35.7363 187.424 37.2812ZM195.695 31.1016V41H194.232V31.1016H195.695ZM197.131 38.9082C197.131 37.2129 198.566 36.7754 199.906 36.6797C200.398 36.6455 201.513 36.584 201.861 36.5703L201.848 35.9824C201.848 35.1484 201.342 34.6562 200.344 34.6562C199.482 34.6562 198.963 35.0527 198.812 35.5996H197.363C197.5 34.3691 198.648 33.4805 200.398 33.4805C201.574 33.4805 203.311 33.918 203.311 36.0645V41H201.889V39.9883H201.834C201.547 40.5488 200.863 41.1641 199.633 41.1641C198.225 41.1641 197.131 40.3574 197.131 38.9082ZM198.553 38.9219C198.553 39.6328 199.141 40.002 199.961 40.002C201.15 40.002 201.861 39.209 201.861 38.3203V37.6367C201.52 37.6641 200.453 37.7393 200.111 37.7598C199.154 37.8281 198.553 38.1836 198.553 38.9219ZM209.244 35.5996C209.107 35.0117 208.643 34.6289 207.836 34.6289C207.002 34.6289 206.4 35.0664 206.414 35.627C206.4 36.0645 206.756 36.3789 207.576 36.5703L208.752 36.8438C210.119 37.1445 210.775 37.8008 210.789 38.8535C210.775 40.1934 209.654 41.1504 207.754 41.1504C205.977 41.1504 204.91 40.3574 204.732 38.9766H206.223C206.346 39.6465 206.865 39.9746 207.74 39.9746C208.684 39.9746 209.285 39.5918 209.299 38.9629C209.285 38.4844 208.93 38.1699 208.15 37.9922L206.988 37.7461C205.648 37.4453 204.951 36.7344 204.951 35.709C204.951 34.3828 206.1 33.4805 207.822 33.4805C209.477 33.4805 210.502 34.3281 210.652 35.5996H209.244ZM213.674 36.5977V41H212.211V31.1016H213.646V34.793H213.742C214.098 33.9863 214.781 33.4805 215.943 33.4805C217.475 33.4805 218.486 34.4238 218.486 36.2832V41H217.023V36.4609C217.023 35.3672 216.436 34.7383 215.451 34.7383C214.426 34.7383 213.674 35.4082 213.674 36.5977Z" fill="white"/>
<path d="M142.5 108.8H253.5C266.589 108.8 277.2 119.411 277.2 132.5C277.2 145.589 266.589 156.2 253.5 156.2H142.5C129.411 156.2 118.8 145.589 118.8 132.5C118.8 119.411 129.411 108.8 142.5 108.8Z" fill="#FCFCFD"/>
<path d="M142.5 108.8H253.5C266.589 108.8 277.2 119.411 277.2 132.5C277.2 145.589 266.589 156.2 253.5 156.2H142.5C129.411 156.2 118.8 145.589 118.8 132.5C118.8 119.411 129.411 108.8 142.5 108.8Z" stroke="#F7F7FA" stroke-width="1.6"/>
<path d="M164.662 135.605V136.699H153.451V135.605H158.387V133.459H154.818V129.562H162.01V127.84H154.791V126.773H163.295V130.602H156.104V132.393H163.582V133.459H159.672V135.605H164.662ZM175.258 127.156V128.469C175.258 130.055 175.258 131.777 174.807 134.389L173.48 134.266C173.973 131.818 173.973 130.014 173.973 128.469V128.223H166.754V127.156H175.258ZM176.721 135.346V136.426H165.551V135.346H176.721ZM187.809 125.926V134.826H186.51V125.926H187.809ZM188.178 136.85V137.902H179.797V133.924H181.109V136.85H188.178ZM181.164 126.746C183.01 126.746 184.418 128.004 184.418 129.781C184.418 131.586 183.01 132.83 181.164 132.83C179.318 132.83 177.896 131.586 177.896 129.781C177.896 128.004 179.318 126.746 181.164 126.746ZM181.164 127.881C180.016 127.881 179.168 128.66 179.168 129.781C179.168 130.93 180.016 131.695 181.164 131.695C182.285 131.695 183.146 130.93 183.146 129.781C183.146 128.66 182.285 127.881 181.164 127.881ZM193.961 126.637L190.775 138.49H189.477L192.662 126.637H193.961ZM204.734 125.912V138.162H203.436V125.912H204.734ZM194.672 134.826C195.677 134.819 196.832 134.812 198.035 134.771V133.555C196.6 133.37 195.67 132.529 195.684 131.326C195.67 129.945 196.873 129.029 198.65 129.029C200.441 129.029 201.672 129.945 201.672 131.326C201.672 132.516 200.742 133.35 199.32 133.541V134.73C200.455 134.683 201.604 134.594 202.684 134.457L202.779 135.428C200.059 135.879 197.092 135.906 194.85 135.906L194.672 134.826ZM202.41 127.375V128.414H194.932V127.375H198.035V125.939H199.334V127.375H202.41ZM198.65 130.041C197.625 130.041 196.9 130.547 196.914 131.326C196.9 132.105 197.625 132.584 198.65 132.584C199.703 132.584 200.428 132.105 200.428 131.326C200.428 130.547 199.703 130.041 198.65 130.041ZM216.889 125.926V135.209H215.59V134.033H213.129V133.117H215.59V125.926H216.889ZM217.189 136.85V137.902H208.344V134.307H209.629V136.85H217.189ZM206.648 131.518C208.918 131.504 211.967 131.477 214.578 131.148L214.66 132.078C213.614 132.249 212.514 132.365 211.434 132.434V134.826H210.135V132.502C208.945 132.557 207.804 132.563 206.812 132.557L206.648 131.518ZM210.654 126.391C212.445 126.391 213.689 127.252 213.689 128.551C213.689 129.85 212.445 130.684 210.654 130.684C208.836 130.684 207.605 129.85 207.605 128.551C207.605 127.252 208.836 126.391 210.654 126.391ZM210.654 127.361C209.561 127.348 208.822 127.812 208.836 128.551C208.822 129.275 209.561 129.727 210.654 129.727C211.707 129.727 212.445 129.275 212.459 128.551C212.445 127.812 211.707 127.348 210.654 127.361ZM228.346 125.912V130.793H230.246V131.873H228.346V138.148H227.047V125.912H228.346ZM225.146 127.197C225.133 130.738 223.574 133.896 219.541 135.893L218.816 134.881C221.886 133.35 223.554 131.135 223.82 128.277H219.432V127.197H225.146ZM241.061 125.912V132.488H239.762V125.912H241.061ZM234.32 133.076V134.457H239.775V133.076H241.061V138.012H233.049V133.076H234.32ZM234.32 136.945H239.775V135.482H234.32V136.945ZM234.416 126.473C236.289 126.473 237.67 127.635 237.67 129.316C237.67 130.998 236.289 132.16 234.416 132.146C232.543 132.16 231.148 130.998 231.148 129.316C231.148 127.635 232.543 126.473 234.416 126.473ZM234.416 127.566C233.254 127.553 232.42 128.277 232.42 129.316C232.42 130.369 233.254 131.08 234.416 131.08C235.564 131.08 236.398 130.369 236.398 129.316C236.398 128.277 235.564 127.553 234.416 127.566Z" fill="#111111"/>
<path d="M198 476.499L396 476.233M793 458.265L793 474.499C793 475.603 792.105 476.499 791 476.499L595 476.499M396 476.233L396 458M396 476.233L595 476.499M595 476.499L595 458.265" stroke="#D3D3D3" stroke-dasharray="2 2"/>
<path d="M198 61V108" stroke="#6E6E78" stroke-dasharray="2 2"/>
<path d="M198 458V500" stroke="#6E6E78" stroke-dasharray="2 2"/>
<path d="M198 157V237" stroke="#6E6E78" stroke-dasharray="2 2"/>
<path d="M393 288L393 305.032M393 321L393 305.032M393 305.032H601C602.105 305.032 603 305.928 603 307.032V321" stroke="#C6C6CE" stroke-dasharray="2 2"/>
<path d="M198 289V409" stroke="#6E6E78" stroke-dasharray="2 2"/>
<path d="M198 549L198 591" stroke="#6E6E78" stroke-dasharray="2 2"/>
<path d="M198 640L198 682" stroke="#6E6E78" stroke-dasharray="2 2"/>
<path d="M790 286L790 321" stroke="#D3D3D3" stroke-dasharray="2 2"/>
<path d="M991 286L991 321" stroke="#D3D3D3" stroke-dasharray="2 2"/>
<path d="M142.5 237.8H253.5C266.589 237.8 277.2 248.411 277.2 261.5C277.2 274.589 266.589 285.2 253.5 285.2H142.5C129.411 285.2 118.8 274.589 118.8 261.5C118.8 248.411 129.411 237.8 142.5 237.8Z" fill="#FCFCFD"/>
<path d="M142.5 237.8H253.5C266.589 237.8 277.2 248.411 277.2 261.5C277.2 274.589 266.589 285.2 253.5 285.2H142.5C129.411 285.2 118.8 274.589 118.8 261.5C118.8 248.411 129.411 237.8 142.5 237.8Z" stroke="#BDC4FF" stroke-width="1.6"/>
<path d="M201.754 263.471V267.012H193.291V263.471H201.754ZM194.576 264.469V266.014H200.496V264.469H194.576ZM202.492 255.883V256.881H192.525V255.883H196.887V254.748H198.186V255.883H202.492ZM197.529 257.318C200.113 257.318 201.549 257.906 201.549 259.055C201.549 260.101 200.353 260.682 198.186 260.777V261.611H203.121V262.637H191.951V261.611H196.887V260.777C194.72 260.682 193.496 260.101 193.51 259.055C193.496 257.906 194.959 257.318 197.529 257.318ZM197.529 258.207C195.82 258.221 194.891 258.494 194.891 259.055C194.891 259.602 195.82 259.902 197.529 259.902C199.252 259.902 200.168 259.602 200.168 259.055C200.168 258.494 199.252 258.221 197.529 258.207Z" fill="#111111"/>
<path d="M28.2812 254.688V266H26.7031L20.9688 257.734H20.875V266H19.1562V254.688H20.75L26.4844 262.969H26.5938V254.688H28.2812ZM30.0625 263.609C30.0625 261.672 31.7031 261.172 33.2344 261.062C33.7969 261.023 35.0703 260.953 35.4688 260.938L35.4531 260.266C35.4531 259.312 34.875 258.75 33.7344 258.75C32.75 258.75 32.1562 259.203 31.9844 259.828H30.3281C30.4844 258.422 31.7969 257.406 33.7969 257.406C35.1406 257.406 37.125 257.906 37.125 260.359V266H35.5V264.844H35.4375C35.1094 265.484 34.3281 266.188 32.9219 266.188C31.3125 266.188 30.0625 265.266 30.0625 263.609ZM31.6875 263.625C31.6875 264.438 32.3594 264.859 33.2969 264.859C34.6562 264.859 35.4688 263.953 35.4688 262.938V262.156C35.0781 262.188 33.8594 262.273 33.4688 262.297C32.375 262.375 31.6875 262.781 31.6875 263.625ZM46.1094 257.516L43.0312 266H41.2344L38.1562 257.516H39.9531L42.0938 264.031H42.1719L44.3125 257.516H46.1094ZM51.5156 254.688H53.6094L57.1875 263.453H57.3281L60.9062 254.688H63V266H61.3594V257.828H61.25L57.9375 265.984H56.5781L53.25 257.812H53.1562V266H51.5156V254.688ZM68.8281 266.172C66.3281 266.172 64.7969 264.453 64.7969 261.812C64.7969 259.203 66.3594 257.406 68.7188 257.406C70.6562 257.406 72.4844 258.609 72.4844 261.672V262.266H66.4531C66.5 263.875 67.4453 264.797 68.8438 264.797C69.7969 264.797 70.4062 264.391 70.6875 263.875H72.375C72 265.25 70.6875 266.172 68.8281 266.172ZM66.4688 261.016H70.8438C70.8438 259.719 70.0156 258.781 68.7344 258.781C67.3984 258.781 66.5312 259.812 66.4688 261.016ZM75.8125 260.969V266H74.1406V257.516H75.75V258.906H75.8438C76.25 258 77.0781 257.406 78.3438 257.406C80.0938 257.406 81.2344 258.5 81.2344 260.609V266H79.5781V260.812C79.5781 259.578 78.9062 258.844 77.7812 258.844C76.6406 258.844 75.8125 259.609 75.8125 260.969ZM88.6562 262.469V257.516H90.3125V266H88.6875V264.531H88.5938C88.2031 265.438 87.3281 266.109 86.0625 266.109C84.4219 266.109 83.2656 265.016 83.2656 262.906V257.516H84.9375V262.703C84.9375 263.859 85.6406 264.594 86.6562 264.594C87.5781 264.594 88.6562 263.922 88.6562 262.469Z" fill="#5A57FF"/>
<path d="M736.5 237.8H847.5C860.589 237.8 871.2 248.411 871.2 261.5C871.2 274.589 860.589 285.2 847.5 285.2H736.5C723.411 285.2 712.8 274.589 712.8 261.5C712.8 248.411 723.411 237.8 736.5 237.8Z" fill="#FCFCFD"/>
<path d="M736.5 237.8H847.5C860.589 237.8 871.2 248.411 871.2 261.5C871.2 274.589 860.589 285.2 847.5 285.2H736.5C723.411 285.2 712.8 274.589 712.8 261.5C712.8 248.411 723.411 237.8 736.5 237.8Z" stroke="#BDC4FF" stroke-width="1.6"/>
<path d="M764.115 258.658C764.115 260.559 765.004 262.541 766.713 263.43L765.975 264.4C764.792 263.771 763.965 262.603 763.527 261.215C763.083 262.691 762.263 263.97 761.08 264.66L760.314 263.703C761.996 262.719 762.885 260.627 762.898 258.658V258.207H760.629V257.127H762.898V255.35H764.115V257.127H766.344V258.207H764.115V258.658ZM771.033 254.912V267.162H769.789V260.873H768.326V266.561H767.096V255.145H768.326V259.779H769.789V254.912H771.033ZM779.141 255.801V256.84H774.561V258.193H778.799V259.219H774.561V260.613C777.015 260.627 778.443 260.586 780.098 260.299L780.234 261.352C778.457 261.639 776.939 261.68 774.26 261.68H773.248V255.801H779.141ZM782.709 254.926V262.459H781.41V254.926H782.709ZM778.607 262.623C781.178 262.623 782.777 263.457 782.777 264.879C782.777 266.314 781.178 267.148 778.607 267.135C776.01 267.148 774.438 266.314 774.438 264.879C774.438 263.457 776.01 262.623 778.607 262.623ZM778.607 263.648C776.775 263.648 775.736 264.1 775.736 264.879C775.736 265.686 776.775 266.137 778.607 266.137C780.398 266.137 781.479 265.686 781.479 264.879C781.479 264.1 780.398 263.648 778.607 263.648ZM798.24 254.912V267.189H796.941V254.912H798.24ZM794.494 256.02V260.49H790.092V263.17C792.074 263.163 793.811 263.074 795.861 262.732L795.984 263.799C793.811 264.168 791.965 264.25 789.805 264.25H788.766V259.451H793.168V257.072H788.752V256.02H794.494ZM806.389 256.648C806.389 258.645 808.521 260.531 810.873 260.955L810.271 262.035C808.316 261.611 806.512 260.326 805.719 258.604C804.912 260.312 803.114 261.598 801.152 262.035L800.578 260.955C802.902 260.518 805.021 258.645 805.021 256.648V255.719H806.389V256.648ZM811.379 264.469V265.549H800.168V264.469H811.379ZM822.207 261.434V262.473H813.676V255.924H822.084V256.977H814.988V258.631H821.824V259.656H814.988V261.434H822.207ZM823.479 264.551V265.617H812.268V264.551H823.479Z" fill="#111111"/>
<path d="M538.5 237.8H649.5C662.589 237.8 673.2 248.411 673.2 261.5C673.2 274.589 662.589 285.2 649.5 285.2H538.5C525.411 285.2 514.8 274.589 514.8 261.5C514.8 248.411 525.411 237.8 538.5 237.8Z" fill="#FCFCFD"/>
<path d="M538.5 237.8H649.5C662.589 237.8 673.2 248.411 673.2 261.5C673.2 274.589 662.589 285.2 649.5 285.2H538.5C525.411 285.2 514.8 274.589 514.8 261.5C514.8 248.411 525.411 237.8 538.5 237.8Z" stroke="#BDC4FF" stroke-width="1.6"/>
<path d="M572.676 256.867C572.676 258.48 573.797 259.971 575.629 260.572L574.932 261.598C573.592 261.126 572.587 260.169 572.061 258.959C571.521 260.333 570.481 261.406 569.053 261.939L568.355 260.9C570.27 260.217 571.377 258.59 571.391 256.758V255.555H572.676V256.867ZM578.076 254.912V257.988H579.854V259.082H578.076V262.309H576.777V254.912H578.076ZM574.125 262.596C576.641 262.596 578.186 263.43 578.186 264.865C578.186 266.314 576.641 267.148 574.125 267.135C571.582 267.148 570.01 266.314 570.01 264.865C570.01 263.43 571.582 262.596 574.125 262.596ZM574.125 263.621C572.348 263.621 571.295 264.086 571.309 264.865C571.295 265.672 572.348 266.109 574.125 266.123C575.889 266.109 576.914 265.672 576.914 264.865C576.914 264.086 575.889 263.621 574.125 263.621ZM591.721 260.777V261.816H586.771V263.129H590.354V267.012H581.891V263.129H585.486V261.816H580.551V260.777H591.721ZM590.668 255.295V256.348H588.891V258.686H590.613V259.738H581.631V258.686H583.367V256.348H581.576V255.295H590.668ZM583.176 264.154V265.959H589.096V264.154H583.176ZM584.652 258.686H587.592V256.348H584.652V258.686ZM607.252 260.668V261.734H596.068V260.668H607.252ZM605.953 258.549V259.602H597.463V255.35H605.871V256.416H598.748V258.549H605.953ZM601.646 262.691C604.285 262.691 605.871 263.498 605.871 264.92C605.871 266.342 604.285 267.148 601.646 267.135C598.994 267.148 597.395 266.342 597.395 264.92C597.395 263.498 598.994 262.691 601.646 262.691ZM601.646 263.689C599.773 263.703 598.707 264.141 598.707 264.92C598.707 265.699 599.773 266.137 601.646 266.137C603.492 266.137 604.572 265.699 604.572 264.92C604.572 264.141 603.492 263.703 601.646 263.689ZM619.365 261.598V262.65H608.154V261.598H613.117V260.436H609.59V257.318H616.658V256.225H609.562V255.199H617.957V258.275H610.875V259.424H618.203V260.436H614.402V261.598H619.365ZM618.025 263.512V267.066H616.713V264.551H609.412V263.512H618.025Z" fill="#111111"/>
<path d="M340.5 237.8H451.5C464.589 237.8 475.2 248.411 475.2 261.5C475.2 274.589 464.589 285.2 451.5 285.2H340.5C327.411 285.2 316.8 274.589 316.8 261.5C316.8 248.411 327.411 237.8 340.5 237.8Z" fill="#FCFCFD"/>
<path d="M340.5 237.8H451.5C464.589 237.8 475.2 248.411 475.2 261.5C475.2 274.589 464.589 285.2 451.5 285.2H340.5C327.411 285.2 316.8 274.589 316.8 261.5C316.8 248.411 327.411 237.8 340.5 237.8Z" stroke="#BDC4FF" stroke-width="1.6"/>
<path d="M386.938 254.912V267.162H385.693V260.887H384.121V266.533H382.904V255.158H384.121V259.82H385.693V254.912H386.938ZM378.324 256.361V262.896C379.459 262.89 380.696 262.801 382.084 262.527L382.221 263.662C380.539 263.963 379.131 264.045 377.818 264.045H377.025V256.361H378.324ZM395.674 257.605C395.674 258.986 396.549 260.326 398.107 260.887L397.492 261.871C396.337 261.42 395.53 260.579 395.086 259.547C394.662 260.675 393.842 261.598 392.652 262.076L392.037 261.119C393.582 260.49 394.443 259.082 394.443 257.605V257.496H392.311V256.457H394.443V255.049H395.674V256.457H397.779V257.496H395.674V257.605ZM402.414 254.926V262.418H401.184V259.191H399.789V262.363H398.545V255.131H399.789V258.125H401.184V254.926H402.414ZM402.414 263.033V267.162H401.129V264.086H394.088V263.033H402.414ZM409.742 262.541C412.271 262.541 413.803 263.389 413.803 264.838C413.803 266.301 412.271 267.148 409.742 267.162C407.186 267.148 405.627 266.301 405.627 264.838C405.627 263.389 407.186 262.541 409.742 262.541ZM409.742 263.566C407.965 263.566 406.912 264.018 406.926 264.838C406.912 265.658 407.965 266.123 409.742 266.123C411.506 266.123 412.531 265.658 412.531 264.838C412.531 264.018 411.506 263.566 409.742 263.566ZM413.693 254.912V257.906H415.471V259.014H413.693V262.227H412.395V254.912H413.693ZM405.818 255.678V257.441H409.031V255.678H410.316V261.365H404.547V255.678H405.818ZM405.818 260.326H409.031V258.467H405.818V260.326Z" fill="#111111"/>
<path d="M340.5 321.8H451.5C464.589 321.8 475.2 332.411 475.2 345.5C475.2 358.589 464.589 369.2 451.5 369.2H340.5C327.411 369.2 316.8 358.589 316.8 345.5C316.8 332.411 327.411 321.8 340.5 321.8Z" fill="#FCFCFD"/>
<path d="M340.5 321.8H451.5C464.589 321.8 475.2 332.411 475.2 345.5C475.2 358.589 464.589 369.2 451.5 369.2H340.5C327.411 369.2 316.8 358.589 316.8 345.5C316.8 332.411 327.411 321.8 340.5 321.8Z" stroke="#F7F7FA" stroke-width="1.6"/>
<path d="M362.49 341.469C362.49 343.055 363.666 344.545 365.553 345.146L364.883 346.158C363.475 345.693 362.408 344.729 361.861 343.506C361.308 344.839 360.221 345.892 358.758 346.404L358.088 345.379C359.988 344.736 361.164 343.15 361.178 341.469V340.936H358.43V339.883H365.184V340.936H362.49V341.469ZM368.109 338.926V347.867H366.811V338.926H368.109ZM368.479 349.85V350.902H360.098V347.02H361.41V349.85H368.479ZM380.496 338.912V346.637H379.266V343.219H377.844V346.213H376.627V339.145H377.844V342.152H379.266V338.912H380.496ZM376.176 340.307V341.332H369.982V340.307H372.457V339.008H373.742V340.307H376.176ZM373.086 341.906C374.645 341.906 375.738 342.74 375.738 344.012C375.738 345.283 374.645 346.117 373.086 346.117C371.555 346.117 370.461 345.283 370.461 344.012C370.461 342.74 371.555 341.906 373.086 341.906ZM373.086 342.863C372.225 342.863 371.623 343.314 371.623 344.012C371.623 344.709 372.225 345.174 373.086 345.174C373.975 345.174 374.562 344.709 374.562 344.012C374.562 343.314 373.975 342.863 373.086 342.863ZM376.395 346.814C378.992 346.814 380.551 347.594 380.564 348.988C380.551 350.355 378.992 351.148 376.395 351.135C373.797 351.148 372.238 350.355 372.252 348.988C372.238 347.594 373.797 346.814 376.395 346.814ZM376.395 347.812C374.576 347.812 373.523 348.223 373.537 348.988C373.523 349.727 374.576 350.15 376.395 350.137C378.227 350.15 379.252 349.727 379.266 348.988C379.252 348.223 378.227 347.812 376.395 347.812ZM393.32 344.586V345.639H388.371V346.814C390.62 346.938 391.953 347.696 391.953 348.975C391.953 350.369 390.367 351.148 387.729 351.135C385.062 351.148 383.477 350.369 383.477 348.975C383.477 347.696 384.81 346.938 387.086 346.814V345.639H382.15V344.586H393.32ZM387.729 347.799C385.855 347.799 384.789 348.223 384.789 348.975C384.789 349.713 385.855 350.15 387.729 350.137C389.574 350.15 390.654 349.713 390.654 348.975C390.654 348.223 389.574 347.799 387.729 347.799ZM392.322 339.473V340.512H388.604C388.788 341.694 390.511 342.699 392.746 342.918L392.281 343.943C390.162 343.697 388.405 342.802 387.742 341.496C387.059 342.802 385.309 343.697 383.189 343.943L382.738 342.918C384.939 342.699 386.669 341.694 386.854 340.512H383.176V339.473H392.322ZM404.408 338.926V347.826H403.109V338.926H404.408ZM404.777 349.85V350.902H396.396V346.924H397.709V349.85H404.777ZM397.764 339.746C399.609 339.746 401.018 341.004 401.018 342.781C401.018 344.586 399.609 345.83 397.764 345.83C395.918 345.83 394.496 344.586 394.496 342.781C394.496 341.004 395.918 339.746 397.764 339.746ZM397.764 340.881C396.615 340.881 395.768 341.66 395.768 342.781C395.768 343.93 396.615 344.695 397.764 344.695C398.885 344.695 399.746 343.93 399.746 342.781C399.746 341.66 398.885 340.881 397.764 340.881ZM419.967 338.912V351.162H418.682V344.832H415.934V343.766H418.682V338.912H419.967ZM415.975 340.225C415.961 343.779 414.58 346.828 410.424 348.893L409.74 347.867C412.987 346.281 414.43 344.073 414.662 341.264H410.287V340.225H415.975ZM426.871 340.197V344.627H423.508V347.211C424.841 347.204 426.099 347.143 427.568 346.91L427.678 347.949C425.969 348.25 424.615 348.291 423.084 348.305H422.25V343.561H425.613V341.264H422.236V340.197H426.871ZM432.381 338.912V351.162H431.137V344.736H429.551V350.533H428.361V339.158H429.551V343.684H431.137V338.912H432.381Z" fill="#111111"/>
<path d="M538.5 321.8H649.5C662.589 321.8 673.2 332.411 673.2 345.5C673.2 358.589 662.589 369.2 649.5 369.2H538.5C525.411 369.2 514.8 358.589 514.8 345.5C514.8 332.411 525.411 321.8 538.5 321.8Z" fill="#FCFCFD"/>
<path d="M538.5 321.8H649.5C662.589 321.8 673.2 332.411 673.2 345.5C673.2 358.589 662.589 369.2 649.5 369.2H538.5C525.411 369.2 514.8 358.589 514.8 345.5C514.8 332.411 525.411 321.8 538.5 321.8Z" stroke="#F7F7FA" stroke-width="1.6"/>
<path d="M572.676 340.867C572.676 342.48 573.797 343.971 575.629 344.572L574.932 345.598C573.592 345.126 572.587 344.169 572.061 342.959C571.521 344.333 570.481 345.406 569.053 345.939L568.355 344.9C570.27 344.217 571.377 342.59 571.391 340.758V339.555H572.676V340.867ZM578.076 338.912V341.988H579.854V343.082H578.076V346.309H576.777V338.912H578.076ZM574.125 346.596C576.641 346.596 578.186 347.43 578.186 348.865C578.186 350.314 576.641 351.148 574.125 351.135C571.582 351.148 570.01 350.314 570.01 348.865C570.01 347.43 571.582 346.596 574.125 346.596ZM574.125 347.621C572.348 347.621 571.295 348.086 571.309 348.865C571.295 349.672 572.348 350.109 574.125 350.123C575.889 350.109 576.914 349.672 576.914 348.865C576.914 348.086 575.889 347.621 574.125 347.621ZM591.721 344.777V345.816H586.771V347.129H590.354V351.012H581.891V347.129H585.486V345.816H580.551V344.777H591.721ZM590.668 339.295V340.348H588.891V342.686H590.613V343.738H581.631V342.686H583.367V340.348H581.576V339.295H590.668ZM583.176 348.154V349.959H589.096V348.154H583.176ZM584.652 342.686H587.592V340.348H584.652V342.686ZM602.891 339.842V340.525C602.877 341.346 602.877 342.562 602.576 344.148L601.291 344.025C601.558 342.665 601.599 341.681 601.619 340.908H596.711V339.842H602.891ZM599.76 342.59V345.119C601.072 345.078 602.426 344.982 603.656 344.805L603.738 345.748C601.182 346.199 598.256 346.24 596.096 346.254L595.973 345.201C596.725 345.194 597.579 345.188 598.475 345.16V342.59H599.76ZM605.762 338.912V342.809H607.443V343.902H605.762V348.113H604.436V338.912H605.762ZM606.158 349.85V350.902H597.832V347.279H599.131V349.85H606.158ZM618.34 338.912V351.189H617.041V338.912H618.34ZM614.594 340.02V344.49H610.191V347.17C612.174 347.163 613.91 347.074 615.961 346.732L616.084 347.799C613.91 348.168 612.064 348.25 609.904 348.25H608.865V343.451H613.268V341.072H608.852V340.02H614.594Z" fill="#111111"/>
<path d="M142.5 409.8H253.5C266.589 409.8 277.2 420.411 277.2 433.5C277.2 446.589 266.589 457.2 253.5 457.2H142.5C129.411 457.2 118.8 446.589 118.8 433.5C118.8 420.411 129.411 409.8 142.5 409.8Z" fill="#FCFCFD"/>
<path d="M142.5 409.8H253.5C266.589 409.8 277.2 420.411 277.2 433.5C277.2 446.589 266.589 457.2 253.5 457.2H142.5C129.411 457.2 118.8 446.589 118.8 433.5C118.8 420.411 129.411 409.8 142.5 409.8Z" stroke="#F7F7FA" stroke-width="1.6"/>
<path d="M192.281 427.678C192.281 430.795 190.148 433.01 186.594 434.008L186.061 432.996C188.884 432.203 190.641 430.672 190.9 428.744H186.703V427.678H192.281ZM196.164 426.926V433.857H194.865V431.068H192.336V429.988H194.865V426.926H196.164ZM196.164 434.363V438.998H188.152V434.363H196.164ZM189.424 435.402V437.959H194.879V435.402H189.424ZM201.797 429.223C201.797 430.604 202.645 431.984 204.23 432.6L203.533 433.598C202.412 433.146 201.619 432.299 201.182 431.273C200.724 432.415 199.89 433.399 198.707 433.912L197.996 432.914C199.65 432.189 200.539 430.604 200.539 429.223V427.65H201.797V429.223ZM208.496 426.926V434.322H207.266V431.123H205.83V434.254H204.627V427.131H205.83V430.043H207.266V426.926H208.496ZM208.496 434.965V439.162H207.211V436.018H200.17V434.965H208.496Z" fill="#111111"/>
<path d="M340.5 409.8H451.5C464.589 409.8 475.2 420.411 475.2 433.5C475.2 446.589 464.589 457.2 451.5 457.2H340.5C327.411 457.2 316.8 446.589 316.8 433.5C316.8 420.411 327.411 409.8 340.5 409.8Z" fill="#FCFCFD"/>
<path d="M340.5 409.8H451.5C464.589 409.8 475.2 420.411 475.2 433.5C475.2 446.589 464.589 457.2 451.5 457.2H340.5C327.411 457.2 316.8 446.589 316.8 433.5C316.8 420.411 327.411 409.8 340.5 409.8Z" stroke="#F7F7FA" stroke-width="1.6"/>
<path d="M386.938 426.912V439.162H385.693V432.887H384.121V438.533H382.904V427.158H384.121V431.82H385.693V426.912H386.938ZM378.324 428.361V434.896C379.459 434.89 380.696 434.801 382.084 434.527L382.221 435.662C380.539 435.963 379.131 436.045 377.818 436.045H377.025V428.361H378.324ZM402.168 426.912V439.162H400.883V432.832H398.135V431.766H400.883V426.912H402.168ZM398.176 428.225C398.162 431.779 396.781 434.828 392.625 436.893L391.941 435.867C395.188 434.281 396.631 432.073 396.863 429.264H392.488V428.225H398.176ZM409.072 428.197V432.627H405.709V435.211C407.042 435.204 408.3 435.143 409.77 434.91L409.879 435.949C408.17 436.25 406.816 436.291 405.285 436.305H404.451V431.561H407.814V429.264H404.438V428.197H409.072ZM414.582 426.912V439.162H413.338V432.736H411.752V438.533H410.562V427.158H411.752V431.684H413.338V426.912H414.582Z" fill="#111111"/>
<path d="M142.5 500.8H253.5C266.589 500.8 277.2 511.411 277.2 524.5C277.2 537.589 266.589 548.2 253.5 548.2H142.5C129.411 548.2 118.8 537.589 118.8 524.5C118.8 511.411 129.411 500.8 142.5 500.8Z" fill="#FCFCFD"/>
<path d="M142.5 500.8H253.5C266.589 500.8 277.2 511.411 277.2 524.5C277.2 537.589 266.589 548.2 253.5 548.2H142.5C129.411 548.2 118.8 537.589 118.8 524.5C118.8 511.411 129.411 500.8 142.5 500.8Z" stroke="#F7F7FA" stroke-width="1.6"/>
<path d="M170.676 519.867C170.676 521.48 171.797 522.971 173.629 523.572L172.932 524.598C171.592 524.126 170.587 523.169 170.061 521.959C169.521 523.333 168.481 524.406 167.053 524.939L166.355 523.9C168.27 523.217 169.377 521.59 169.391 519.758V518.555H170.676V519.867ZM176.076 517.912V520.988H177.854V522.082H176.076V525.309H174.777V517.912H176.076ZM172.125 525.596C174.641 525.596 176.186 526.43 176.186 527.865C176.186 529.314 174.641 530.148 172.125 530.135C169.582 530.148 168.01 529.314 168.01 527.865C168.01 526.43 169.582 525.596 172.125 525.596ZM172.125 526.621C170.348 526.621 169.295 527.086 169.309 527.865C169.295 528.672 170.348 529.109 172.125 529.123C173.889 529.109 174.914 528.672 174.914 527.865C174.914 527.086 173.889 526.621 172.125 526.621ZM189.721 523.777V524.816H184.771V526.129H188.354V530.012H179.891V526.129H183.486V524.816H178.551V523.777H189.721ZM188.668 518.295V519.348H186.891V521.686H188.613V522.738H179.631V521.686H181.367V519.348H179.576V518.295H188.668ZM181.176 527.154V528.959H187.096V527.154H181.176ZM182.652 521.686H185.592V519.348H182.652V521.686ZM204.24 517.912V530.189H202.941V517.912H204.24ZM200.494 519.02V523.49H196.092V526.17C198.074 526.163 199.811 526.074 201.861 525.732L201.984 526.799C199.811 527.168 197.965 527.25 195.805 527.25H194.766V522.451H199.168V520.072H194.752V519.02H200.494ZM212.389 519.648C212.389 521.645 214.521 523.531 216.873 523.955L216.271 525.035C214.316 524.611 212.512 523.326 211.719 521.604C210.912 523.312 209.114 524.598 207.152 525.035L206.578 523.955C208.902 523.518 211.021 521.645 211.021 519.648V518.719H212.389V519.648ZM217.379 527.469V528.549H206.168V527.469H217.379ZM228.207 524.434V525.473H219.676V518.924H228.084V519.977H220.988V521.631H227.824V522.656H220.988V524.434H228.207ZM229.479 527.551V528.617H218.268V527.551H229.479Z" fill="#111111"/>
<path d="M143.5 682.8H252.5C266.141 682.8 277.2 693.859 277.2 707.5C277.2 721.141 266.141 732.2 252.5 732.2H143.5C129.859 732.2 118.8 721.141 118.8 707.5C118.8 693.859 129.859 682.8 143.5 682.8Z" fill="#FCFCFD"/>
<path d="M143.5 682.8H252.5C266.141 682.8 277.2 693.859 277.2 707.5C277.2 721.141 266.141 732.2 252.5 732.2H143.5C129.859 732.2 118.8 721.141 118.8 707.5C118.8 693.859 129.859 682.8 143.5 682.8Z" stroke="#5A57FF" stroke-width="1.6"/>
<path d="M188.703 704.609C188.703 706.781 189.719 709.047 191.672 710.062L190.828 711.172C189.477 710.453 188.531 709.117 188.031 707.531C187.523 709.219 186.586 710.68 185.234 711.469L184.359 710.375C186.281 709.25 187.297 706.859 187.312 704.609V704.094H184.719V702.859H187.312V700.828H188.703V702.859H191.25V704.094H188.703V704.609ZM196.609 700.328V714.328H195.188V707.141H193.516V713.641H192.109V700.594H193.516V705.891H195.188V700.328H196.609ZM205.875 701.344V702.531H200.641V704.078H205.484V705.25H200.641V706.844C203.445 706.859 205.078 706.812 206.969 706.484L207.125 707.688C205.094 708.016 203.359 708.062 200.297 708.062H199.141V701.344H205.875ZM209.953 700.344V708.953H208.469V700.344H209.953ZM205.266 709.141C208.203 709.141 210.031 710.094 210.031 711.719C210.031 713.359 208.203 714.312 205.266 714.297C202.297 714.312 200.5 713.359 200.5 711.719C200.5 710.094 202.297 709.141 205.266 709.141ZM205.266 710.312C203.172 710.312 201.984 710.828 201.984 711.719C201.984 712.641 203.172 713.156 205.266 713.156C207.312 713.156 208.547 712.641 208.547 711.719C208.547 710.828 207.312 710.312 205.266 710.312Z" fill="#5A57FF"/>
<path d="M142.5 591.8H253.5C266.589 591.8 277.2 602.411 277.2 615.5C277.2 628.589 266.589 639.2 253.5 639.2H142.5C129.411 639.2 118.8 628.589 118.8 615.5C118.8 602.411 129.411 591.8 142.5 591.8Z" fill="#FCFCFD"/>
<path d="M142.5 591.8H253.5C266.589 591.8 277.2 602.411 277.2 615.5C277.2 628.589 266.589 639.2 253.5 639.2H142.5C129.411 639.2 118.8 628.589 118.8 615.5C118.8 602.411 129.411 591.8 142.5 591.8Z" stroke="#F7F7FA" stroke-width="1.6"/>
<path d="M170.676 610.867C170.676 612.48 171.797 613.971 173.629 614.572L172.932 615.598C171.592 615.126 170.587 614.169 170.061 612.959C169.521 614.333 168.481 615.406 167.053 615.939L166.355 614.9C168.27 614.217 169.377 612.59 169.391 610.758V609.555H170.676V610.867ZM176.076 608.912V611.988H177.854V613.082H176.076V616.309H174.777V608.912H176.076ZM172.125 616.596C174.641 616.596 176.186 617.43 176.186 618.865C176.186 620.314 174.641 621.148 172.125 621.135C169.582 621.148 168.01 620.314 168.01 618.865C168.01 617.43 169.582 616.596 172.125 616.596ZM172.125 617.621C170.348 617.621 169.295 618.086 169.309 618.865C169.295 619.672 170.348 620.109 172.125 620.123C173.889 620.109 174.914 619.672 174.914 618.865C174.914 618.086 173.889 617.621 172.125 617.621ZM182.283 612.262C182.283 614.217 183.104 616.309 184.744 617.307L184.02 618.305C182.871 617.614 182.092 616.391 181.682 614.969C181.224 616.527 180.383 617.854 179.193 618.578L178.387 617.607C180.123 616.568 181.025 614.408 181.025 612.316V610.033H182.283V612.262ZM189.092 608.912V621.162H187.848V608.912H189.092ZM186.549 609.145V620.561H185.318V614.299H183.418V613.219H185.318V609.145H186.549ZM204.664 608.912V621.162H203.42V608.912H204.664ZM202.244 609.186V620.533H201.014V614.668H199.482V613.506H201.014V609.186H202.244ZM199.811 610.416V611.482H198.867V616.951C199.284 616.924 199.688 616.876 200.057 616.828L200.152 617.771C198.211 618.154 195.668 618.209 194.082 618.209L193.932 617.115C194.287 617.115 194.697 617.115 195.135 617.102V611.482H194.191V610.416H199.811ZM196.311 617.088C196.755 617.074 197.213 617.061 197.664 617.033V611.482H196.311V617.088ZM216.312 608.912V621.189H215.014V608.912H216.312ZM209.764 609.828C211.582 609.828 212.922 611.496 212.922 614.121C212.922 616.76 211.582 618.428 209.764 618.428C207.918 618.428 206.592 616.76 206.592 614.121C206.592 611.496 207.918 609.828 209.764 609.828ZM209.764 610.99C208.629 610.99 207.85 612.193 207.85 614.121C207.85 616.062 208.629 617.266 209.764 617.266C210.885 617.266 211.664 616.062 211.664 614.121C211.664 612.193 210.885 610.99 209.764 610.99ZM222.779 612.521C222.779 614.572 224.119 616.691 226.006 617.498L225.295 618.51C223.853 617.874 222.704 616.527 222.137 614.887C221.569 616.637 220.414 618.127 218.992 618.824L218.24 617.799C220.086 616.938 221.453 614.627 221.467 612.521V611.223H218.664V610.143H225.568V611.223H222.779V612.521ZM228.412 608.912V621.162H227.113V608.912H228.412Z" fill="#111111"/>
<path d="M934.5 321.8H1045.5C1058.59 321.8 1069.2 332.411 1069.2 345.5C1069.2 358.589 1058.59 369.2 1045.5 369.2H934.5C921.411 369.2 910.8 358.589 910.8 345.5C910.8 332.411 921.411 321.8 934.5 321.8Z" fill="#FCFCFD"/>
<path d="M934.5 321.8H1045.5C1058.59 321.8 1069.2 332.411 1069.2 345.5C1069.2 358.589 1058.59 369.2 1045.5 369.2H934.5C921.411 369.2 910.8 358.589 910.8 345.5C910.8 332.411 921.411 321.8 934.5 321.8Z" stroke="#F7F7FA" stroke-width="1.6"/>
<path d="M988.164 338.912V345.215H986.865V342.07H984.281V341.018H986.865V338.912H988.164ZM988.164 345.789V348.838H981.451V349.973H988.588V351.012H980.18V347.854H986.879V346.814H980.152V345.789H988.164ZM982.258 340.375C982.258 341.934 983.379 343.383 985.225 343.971L984.541 344.982C983.194 344.518 982.176 343.595 981.643 342.426C981.103 343.738 980.05 344.771 978.607 345.27L977.91 344.23C979.824 343.615 980.959 342.098 980.973 340.375V339.309H982.258V340.375ZM1000.26 338.912V346.199H998.965V343.096H996.682V342.029H998.965V338.912H1000.26ZM996.162 346.541C998.732 346.541 1000.3 347.389 1000.3 348.852C1000.3 350.314 998.732 351.148 996.162 351.162C993.592 351.148 992.006 350.314 992.02 348.852C992.006 347.389 993.592 346.541 996.162 346.541ZM996.162 347.553C994.371 347.553 993.305 348.018 993.305 348.852C993.305 349.672 994.371 350.15 996.162 350.137C997.953 350.15 999.02 349.672 999.02 348.852C999.02 348.018 997.953 347.553 996.162 347.553ZM994.439 341.072C994.439 342.631 995.547 344.135 997.393 344.764L996.723 345.789C995.349 345.311 994.337 344.333 993.811 343.123C993.271 344.497 992.197 345.598 990.734 346.131L990.051 345.092C991.951 344.436 993.113 342.781 993.113 341.086V340.812H990.461V339.76H997.064V340.812H994.439V341.072Z" fill="#111111"/>
<path d="M736.5 321.8H847.5C860.589 321.8 871.2 332.411 871.2 345.5C871.2 358.589 860.589 369.2 847.5 369.2H736.5C723.411 369.2 712.8 358.589 712.8 345.5C712.8 332.411 723.411 321.8 736.5 321.8Z" fill="#FCFCFD"/>
<path d="M736.5 321.8H847.5C860.589 321.8 871.2 332.411 871.2 345.5C871.2 358.589 860.589 369.2 847.5 369.2H736.5C723.411 369.2 712.8 358.589 712.8 345.5C712.8 332.411 723.411 321.8 736.5 321.8Z" stroke="#F7F7FA" stroke-width="1.6"/>
<path d="M783.615 342.658C783.615 344.559 784.504 346.541 786.213 347.43L785.475 348.4C784.292 347.771 783.465 346.603 783.027 345.215C782.583 346.691 781.763 347.97 780.58 348.66L779.814 347.703C781.496 346.719 782.385 344.627 782.398 342.658V342.207H780.129V341.127H782.398V339.35H783.615V341.127H785.844V342.207H783.615V342.658ZM790.533 338.912V351.162H789.289V344.873H787.826V350.561H786.596V339.145H787.826V343.779H789.289V338.912H790.533ZM798.641 339.801V340.84H794.061V342.193H798.299V343.219H794.061V344.613C796.515 344.627 797.943 344.586 799.598 344.299L799.734 345.352C797.957 345.639 796.439 345.68 793.76 345.68H792.748V339.801H798.641ZM802.209 338.926V346.459H800.91V338.926H802.209ZM798.107 346.623C800.678 346.623 802.277 347.457 802.277 348.879C802.277 350.314 800.678 351.148 798.107 351.135C795.51 351.148 793.938 350.314 793.938 348.879C793.938 347.457 795.51 346.623 798.107 346.623ZM798.107 347.648C796.275 347.648 795.236 348.1 795.236 348.879C795.236 349.686 796.275 350.137 798.107 350.137C799.898 350.137 800.979 349.686 800.979 348.879C800.979 348.1 799.898 347.648 798.107 347.648Z" fill="#111111"/>
<path d="M538.5 409.8H649.5C662.589 409.8 673.2 420.411 673.2 433.5C673.2 446.589 662.589 457.2 649.5 457.2H538.5C525.411 457.2 514.8 446.589 514.8 433.5C514.8 420.411 525.411 409.8 538.5 409.8Z" fill="#FCFCFD"/>
<path d="M538.5 409.8H649.5C662.589 409.8 673.2 420.411 673.2 433.5C673.2 446.589 662.589 457.2 649.5 457.2H538.5C525.411 457.2 514.8 446.589 514.8 433.5C514.8 420.411 525.411 409.8 538.5 409.8Z" stroke="#F7F7FA" stroke-width="1.6"/>
<path d="M576.938 426.912V439.162H575.693V432.887H574.121V438.533H572.904V427.158H574.121V431.82H575.693V426.912H576.938ZM568.324 428.361V434.896C569.459 434.89 570.696 434.801 572.084 434.527L572.221 435.662C570.539 435.963 569.131 436.045 567.818 436.045H567.025V428.361H568.324ZM591.758 427.637V428.607C591.758 429.646 591.758 430.863 591.457 432.477H593.18V433.543H581.969V432.477H590.145C590.466 430.884 590.473 429.722 590.473 428.689H583.377V427.637H591.758ZM592.127 437.836V438.902H583.432V434.814H584.717V437.836H592.127ZM604.295 426.912V439.189H602.996V432.818H600.467V431.766H602.996V426.912H604.295ZM598.416 430.85C598.416 432.791 599.66 434.773 601.547 435.607L600.822 436.605C599.421 435.983 598.341 434.705 597.801 433.16C597.261 434.794 596.188 436.161 594.779 436.811L594.068 435.812C595.928 434.965 597.131 432.873 597.131 430.85V430.043H594.41V429.004H597.145V427.158H598.443V429.004H601.096V430.043H598.416V430.85ZM613.291 429.605C613.291 430.986 614.166 432.326 615.725 432.887L615.109 433.871C613.954 433.42 613.147 432.579 612.703 431.547C612.279 432.675 611.459 433.598 610.27 434.076L609.654 433.119C611.199 432.49 612.061 431.082 612.061 429.605V429.496H609.928V428.457H612.061V427.049H613.291V428.457H615.396V429.496H613.291V429.605ZM620.031 426.926V434.418H618.801V431.191H617.406V434.363H616.162V427.131H617.406V430.125H618.801V426.926H620.031ZM620.031 435.033V439.162H618.746V436.086H611.705V435.033H620.031Z" fill="#111111"/>
<path d="M736.5 409.8H847.5C860.589 409.8 871.2 420.411 871.2 433.5C871.2 446.589 860.589 457.2 847.5 457.2H736.5C723.411 457.2 712.8 446.589 712.8 433.5C712.8 420.411 723.411 409.8 736.5 409.8Z" fill="#FCFCFD"/>
<path d="M736.5 409.8H847.5C860.589 409.8 871.2 420.411 871.2 433.5C871.2 446.589 860.589 457.2 847.5 457.2H736.5C723.411 457.2 712.8 446.589 712.8 433.5C712.8 420.411 723.411 409.8 736.5 409.8Z" stroke="#F7F7FA" stroke-width="1.6"/>
<path d="M772.658 427.732V433.01H766.93V427.732H772.658ZM768.201 428.771V431.971H771.387V428.771H768.201ZM776.076 426.912V429.756H777.854V430.836H776.076V433.857H774.777V426.912H776.076ZM776.268 434.541V435.58H772.918C773.096 436.742 774.688 437.815 776.773 438.123L776.295 439.121C774.436 438.834 772.904 437.979 772.193 436.811C771.496 437.986 769.972 438.834 768.119 439.107L767.641 438.109C769.739 437.815 771.298 436.776 771.51 435.58H768.133V434.541H776.268ZM789.721 432.914V433.953H784.771V435.156H788.354V439.012H779.891V435.156H783.486V433.953H778.551V432.914H789.721ZM784.771 426.871V428.033H788.6V429.059H784.854C784.983 430.234 786.672 431.103 789.119 431.301L788.736 432.271C786.604 432.08 784.888 431.403 784.129 430.275C783.363 431.403 781.647 432.08 779.535 432.271L779.139 431.301C781.593 431.103 783.268 430.234 783.418 429.059H779.672V428.033H783.486V426.871H784.771ZM781.176 436.195V437.959H787.096V436.195H781.176ZM805.238 434.295V435.361H800.289V439.176H799.004V435.361H794.068V434.295H805.238ZM804.172 428.389V429.441H800.303C800.378 430.795 802.224 432.114 804.555 432.408L804.09 433.447C802.121 433.174 800.446 432.251 799.66 431C798.86 432.265 797.172 433.174 795.203 433.447L794.725 432.408C797.056 432.114 798.915 430.822 799.004 429.441H795.121V428.389H799.004V426.912H800.289V428.389H804.172ZM810.461 429.824C810.461 431.369 811.609 432.791 813.496 433.379L812.867 434.404C811.459 433.96 810.393 433.03 809.846 431.834C809.299 433.119 808.239 434.117 806.797 434.596L806.168 433.584C808.041 432.982 809.176 431.479 809.176 429.824V429.537H806.51V428.484H809.176V426.994H810.475V428.484H813.127V429.537H810.461V429.824ZM816.381 426.926V436.045H815.082V431.684H812.703V430.631H815.082V426.926H816.381ZM816.709 437.85V438.902H808.424V435.238H809.723V437.85H816.709Z" fill="#111111"/>
<path d="M594.5 211L594.5 237M594.5 211L789.5 211M594.5 211L393 211M789.5 211L989 211C990.105 211 991 211.895 991 213L991 237M789.5 211L789.5 237M393 211L393 237M393 211L199 211" stroke="#6E6E78" stroke-dasharray="2 2"/>
<path d="M934.5 237.8H1045.5C1058.59 237.8 1069.2 248.411 1069.2 261.5C1069.2 274.589 1058.59 285.2 1045.5 285.2H934.5C921.411 285.2 910.8 274.589 910.8 261.5C910.8 248.411 921.411 237.8 934.5 237.8Z" fill="#FCFCFD"/>
<path d="M934.5 237.8H1045.5C1058.59 237.8 1069.2 248.411 1069.2 261.5C1069.2 274.589 1058.59 285.2 1045.5 285.2H934.5C921.411 285.2 910.8 274.589 910.8 261.5C910.8 248.411 921.411 237.8 934.5 237.8Z" stroke="#BDC4FF" stroke-width="1.6"/>
<path d="M983.119 256.293V259.479H984.76V255.145H986.004V266.561H984.76V260.545H983.119V263.936H978.361V256.293H983.119ZM979.592 257.318V262.896H981.902V257.318H979.592ZM988.492 254.912V267.162H987.248V254.912H988.492ZM999.936 258.959V260.012H991.445V255.514H992.758V258.959H999.936ZM1001.22 261.666V262.719H998.432V267.162H997.119V262.719H994.152V267.162H992.854V262.719H990.051V261.666H1001.22Z" fill="#111111"/>
</g>
<defs>
<clipPath id="clip0_2166_2179">
<rect width="1088" height="745" fill="white"/>
</clipPath>
</defs>
</svg>
